G75*
%MOIN*%
%OFA0B0*%
%FSLAX25Y25*%
%IPPOS*%
%LPD*%
%AMOC8*
5,1,8,0,0,1.08239X$1,22.5*
%
%ADD10C,0.05200*%
%ADD11OC8,0.05600*%
%ADD12OC8,0.05740*%
%ADD13C,0.13055*%
%ADD14OC8,0.06000*%
%ADD15OC8,0.05200*%
%ADD16OC8,0.06300*%
%ADD17C,0.06300*%
%ADD18C,0.05200*%
%ADD19C,0.01000*%
D10*
X0113861Y0036000D02*
X0119061Y0036000D01*
X0119061Y0046000D02*
X0113861Y0046000D01*
X0113861Y0056000D02*
X0119061Y0056000D01*
X0119061Y0066000D02*
X0113861Y0066000D01*
X0113861Y0076000D02*
X0119061Y0076000D01*
X0119061Y0086000D02*
X0113861Y0086000D01*
X0113861Y0096000D02*
X0119061Y0096000D01*
X0119061Y0106000D02*
X0113861Y0106000D01*
X0113861Y0116000D02*
X0119061Y0116000D01*
X0119061Y0126000D02*
X0113861Y0126000D01*
X0113861Y0136000D02*
X0119061Y0136000D01*
X0119061Y0146000D02*
X0113861Y0146000D01*
X0113861Y0156000D02*
X0119061Y0156000D01*
X0119061Y0166000D02*
X0113861Y0166000D01*
X0113861Y0176000D02*
X0119061Y0176000D01*
X0119061Y0186000D02*
X0113861Y0186000D01*
X0113861Y0196000D02*
X0119061Y0196000D01*
X0119061Y0206000D02*
X0113861Y0206000D01*
X0113861Y0216000D02*
X0119061Y0216000D01*
X0119061Y0226000D02*
X0113861Y0226000D01*
X0173861Y0226000D02*
X0179061Y0226000D01*
X0179061Y0216000D02*
X0173861Y0216000D01*
X0173861Y0206000D02*
X0179061Y0206000D01*
X0179061Y0196000D02*
X0173861Y0196000D01*
X0173861Y0186000D02*
X0179061Y0186000D01*
X0179061Y0176000D02*
X0173861Y0176000D01*
X0173861Y0166000D02*
X0179061Y0166000D01*
X0179061Y0156000D02*
X0173861Y0156000D01*
X0173861Y0146000D02*
X0179061Y0146000D01*
X0179061Y0136000D02*
X0173861Y0136000D01*
X0173861Y0126000D02*
X0179061Y0126000D01*
X0179061Y0116000D02*
X0173861Y0116000D01*
X0173861Y0106000D02*
X0179061Y0106000D01*
X0179061Y0096000D02*
X0173861Y0096000D01*
X0173861Y0086000D02*
X0179061Y0086000D01*
X0179061Y0076000D02*
X0173861Y0076000D01*
X0173861Y0066000D02*
X0179061Y0066000D01*
X0179061Y0056000D02*
X0173861Y0056000D01*
X0173861Y0046000D02*
X0179061Y0046000D01*
X0179061Y0036000D02*
X0173861Y0036000D01*
D11*
X0043961Y0166000D03*
X0043961Y0176000D03*
X0043961Y0186000D03*
X0043961Y0196000D03*
X0043961Y0206000D03*
X0033961Y0206000D03*
X0033961Y0196000D03*
X0033961Y0186000D03*
X0033961Y0176000D03*
X0033961Y0166000D03*
D12*
X0052130Y0065921D03*
X0060004Y0065921D03*
X0060004Y0056079D03*
X0052130Y0056079D03*
D13*
X0041461Y0037299D03*
X0041461Y0084701D03*
D14*
X0231461Y0081000D03*
X0241461Y0081000D03*
X0241461Y0071000D03*
X0241461Y0061000D03*
X0241461Y0051000D03*
X0241461Y0041000D03*
X0241461Y0031000D03*
X0231461Y0031000D03*
X0231461Y0041000D03*
X0231461Y0051000D03*
X0231461Y0061000D03*
X0231461Y0071000D03*
X0231461Y0091000D03*
X0241461Y0091000D03*
X0241461Y0101000D03*
X0241461Y0111000D03*
X0241461Y0121000D03*
X0241461Y0131000D03*
X0241461Y0141000D03*
X0241461Y0151000D03*
X0241461Y0161000D03*
X0241461Y0171000D03*
X0241461Y0181000D03*
X0241461Y0191000D03*
X0241461Y0201000D03*
X0241461Y0211000D03*
X0241461Y0221000D03*
X0231461Y0221000D03*
X0231461Y0211000D03*
X0231461Y0201000D03*
X0231461Y0191000D03*
X0231461Y0181000D03*
X0231461Y0171000D03*
X0231461Y0161000D03*
X0231461Y0151000D03*
X0231461Y0141000D03*
X0231461Y0131000D03*
X0231461Y0121000D03*
X0231461Y0111000D03*
X0231461Y0101000D03*
D15*
X0191461Y0126000D03*
X0191461Y0146000D03*
X0106461Y0146000D03*
X0106461Y0136000D03*
X0106461Y0126000D03*
X0106461Y0116000D03*
X0086461Y0116000D03*
X0086461Y0126000D03*
X0086461Y0136000D03*
X0076461Y0146000D03*
X0076461Y0156000D03*
X0076461Y0166000D03*
X0076461Y0176000D03*
X0076461Y0196000D03*
X0106461Y0196000D03*
X0106461Y0176000D03*
X0106461Y0166000D03*
X0106461Y0156000D03*
X0051461Y0136000D03*
X0051461Y0116000D03*
X0048961Y0098500D03*
X0076461Y0086000D03*
X0078961Y0098500D03*
X0086461Y0061000D03*
X0076461Y0056000D03*
X0076461Y0031000D03*
X0086461Y0031000D03*
X0101461Y0036000D03*
X0076461Y0011000D03*
X0101461Y0006000D03*
D16*
X0056461Y0016000D03*
D17*
X0056461Y0026000D03*
D18*
X0096461Y0081500D03*
X0096461Y0100500D03*
D19*
X0041461Y0037299D02*
X0041461Y0034000D01*
X0056461Y0019000D01*
X0056461Y0016000D01*
X0061461Y0011000D01*
X0076461Y0011000D01*
X0060004Y0056079D02*
X0060461Y0057000D01*
X0060461Y0060000D01*
X0071461Y0071000D01*
X0071461Y0121000D01*
X0086461Y0136000D01*
X0076461Y0146000D02*
X0044461Y0146000D01*
X0027461Y0163000D01*
X0027461Y0180000D01*
X0033461Y0186000D01*
X0033961Y0186000D01*
X0033961Y0176000D02*
X0033461Y0176000D01*
X0029461Y0172000D01*
X0029461Y0164000D01*
X0037461Y0156000D01*
X0076461Y0156000D01*
X0076461Y0166000D02*
X0050461Y0166000D01*
X0045461Y0161000D01*
X0039461Y0161000D01*
X0034461Y0166000D01*
X0033961Y0166000D01*
X0101461Y0177000D02*
X0101461Y0151000D01*
X0106461Y0146000D01*
X0116461Y0126000D02*
X0126461Y0136000D01*
X0176461Y0136000D01*
X0176461Y0116000D02*
X0243461Y0116000D01*
X0253461Y0106000D01*
X0253461Y0043000D01*
X0241461Y0031000D01*
X0243461Y0036000D02*
X0248461Y0041000D01*
X0248461Y0064000D01*
X0241461Y0071000D01*
X0243461Y0066000D02*
X0246461Y0063000D01*
X0246461Y0046000D01*
X0241461Y0041000D01*
X0243461Y0036000D02*
X0176461Y0036000D01*
X0172461Y0041000D02*
X0231461Y0041000D01*
X0231461Y0051000D02*
X0216461Y0066000D01*
X0176461Y0066000D01*
X0176461Y0076000D02*
X0209461Y0076000D01*
X0229461Y0056000D01*
X0236461Y0056000D01*
X0241461Y0051000D01*
X0243461Y0066000D02*
X0229461Y0066000D01*
X0199461Y0096000D01*
X0176461Y0096000D01*
X0172461Y0101000D02*
X0211461Y0101000D01*
X0231461Y0081000D01*
X0176461Y0086000D02*
X0169461Y0079000D01*
X0169461Y0044000D01*
X0172461Y0041000D01*
X0127461Y0056000D02*
X0172461Y0101000D01*
X0127461Y0056000D02*
X0116461Y0056000D01*
X0116461Y0066000D02*
X0105461Y0066000D01*
X0079461Y0092000D01*
X0079461Y0098000D01*
X0078961Y0098500D01*
X0096461Y0086000D02*
X0096461Y0081500D01*
X0096461Y0086000D02*
X0116461Y0106000D01*
X0106461Y0116000D01*
X0116461Y0166000D02*
X0123461Y0173000D01*
X0123461Y0182000D01*
X0172461Y0231000D01*
X0184461Y0231000D01*
X0224461Y0191000D01*
X0231461Y0191000D01*
X0231461Y0181000D02*
X0186461Y0226000D01*
X0176461Y0226000D01*
X0171461Y0233000D02*
X0229461Y0233000D01*
X0241461Y0221000D01*
X0206461Y0186000D02*
X0231461Y0161000D01*
X0229461Y0166000D02*
X0236461Y0166000D01*
X0241461Y0171000D01*
X0236461Y0176000D02*
X0241461Y0181000D01*
X0236461Y0176000D02*
X0229461Y0176000D01*
X0189461Y0216000D01*
X0176461Y0216000D01*
X0176461Y0206000D02*
X0196461Y0206000D01*
X0231461Y0171000D01*
X0229461Y0166000D02*
X0199461Y0196000D01*
X0176461Y0196000D01*
X0176461Y0186000D02*
X0206461Y0186000D01*
X0216461Y0166000D02*
X0231461Y0151000D01*
X0216461Y0166000D02*
X0176461Y0166000D01*
X0154461Y0216000D02*
X0171461Y0233000D01*
X0154461Y0216000D02*
X0116461Y0216000D01*
X0106461Y0196000D02*
X0106461Y0182000D01*
X0101461Y0177000D01*
M02*
