G75*
%MOIN*%
%OFA0B0*%
%FSLAX25Y25*%
%IPPOS*%
%LPD*%
%AMOC8*
5,1,8,0,0,1.08239X$1,22.5*
%
%ADD10C,0.00000*%
%ADD11C,0.00400*%
%ADD12C,0.01000*%
%ADD13C,0.00300*%
%ADD14C,0.00600*%
%ADD15C,0.00700*%
%ADD16C,0.00500*%
%ADD17C,0.00200*%
%ADD18C,0.00100*%
%ADD19C,0.01600*%
%ADD20C,0.01200*%
D10*
X0021461Y0001000D02*
X0021461Y0250961D01*
X0272661Y0250961D01*
X0272661Y0001000D01*
X0021461Y0001000D01*
X0027461Y0013500D02*
X0027463Y0013661D01*
X0027469Y0013821D01*
X0027479Y0013982D01*
X0027493Y0014142D01*
X0027511Y0014302D01*
X0027532Y0014461D01*
X0027558Y0014620D01*
X0027588Y0014778D01*
X0027621Y0014935D01*
X0027659Y0015092D01*
X0027700Y0015247D01*
X0027745Y0015401D01*
X0027794Y0015554D01*
X0027847Y0015706D01*
X0027903Y0015857D01*
X0027964Y0016006D01*
X0028027Y0016154D01*
X0028095Y0016300D01*
X0028166Y0016444D01*
X0028240Y0016586D01*
X0028318Y0016727D01*
X0028400Y0016865D01*
X0028485Y0017002D01*
X0028573Y0017136D01*
X0028665Y0017268D01*
X0028760Y0017398D01*
X0028858Y0017526D01*
X0028959Y0017651D01*
X0029063Y0017773D01*
X0029170Y0017893D01*
X0029280Y0018010D01*
X0029393Y0018125D01*
X0029509Y0018236D01*
X0029628Y0018345D01*
X0029749Y0018450D01*
X0029873Y0018553D01*
X0029999Y0018653D01*
X0030127Y0018749D01*
X0030258Y0018842D01*
X0030392Y0018932D01*
X0030527Y0019019D01*
X0030665Y0019102D01*
X0030804Y0019182D01*
X0030946Y0019258D01*
X0031089Y0019331D01*
X0031234Y0019400D01*
X0031381Y0019466D01*
X0031529Y0019528D01*
X0031679Y0019586D01*
X0031830Y0019641D01*
X0031983Y0019692D01*
X0032137Y0019739D01*
X0032292Y0019782D01*
X0032448Y0019821D01*
X0032604Y0019857D01*
X0032762Y0019888D01*
X0032920Y0019916D01*
X0033079Y0019940D01*
X0033239Y0019960D01*
X0033399Y0019976D01*
X0033559Y0019988D01*
X0033720Y0019996D01*
X0033881Y0020000D01*
X0034041Y0020000D01*
X0034202Y0019996D01*
X0034363Y0019988D01*
X0034523Y0019976D01*
X0034683Y0019960D01*
X0034843Y0019940D01*
X0035002Y0019916D01*
X0035160Y0019888D01*
X0035318Y0019857D01*
X0035474Y0019821D01*
X0035630Y0019782D01*
X0035785Y0019739D01*
X0035939Y0019692D01*
X0036092Y0019641D01*
X0036243Y0019586D01*
X0036393Y0019528D01*
X0036541Y0019466D01*
X0036688Y0019400D01*
X0036833Y0019331D01*
X0036976Y0019258D01*
X0037118Y0019182D01*
X0037257Y0019102D01*
X0037395Y0019019D01*
X0037530Y0018932D01*
X0037664Y0018842D01*
X0037795Y0018749D01*
X0037923Y0018653D01*
X0038049Y0018553D01*
X0038173Y0018450D01*
X0038294Y0018345D01*
X0038413Y0018236D01*
X0038529Y0018125D01*
X0038642Y0018010D01*
X0038752Y0017893D01*
X0038859Y0017773D01*
X0038963Y0017651D01*
X0039064Y0017526D01*
X0039162Y0017398D01*
X0039257Y0017268D01*
X0039349Y0017136D01*
X0039437Y0017002D01*
X0039522Y0016865D01*
X0039604Y0016727D01*
X0039682Y0016586D01*
X0039756Y0016444D01*
X0039827Y0016300D01*
X0039895Y0016154D01*
X0039958Y0016006D01*
X0040019Y0015857D01*
X0040075Y0015706D01*
X0040128Y0015554D01*
X0040177Y0015401D01*
X0040222Y0015247D01*
X0040263Y0015092D01*
X0040301Y0014935D01*
X0040334Y0014778D01*
X0040364Y0014620D01*
X0040390Y0014461D01*
X0040411Y0014302D01*
X0040429Y0014142D01*
X0040443Y0013982D01*
X0040453Y0013821D01*
X0040459Y0013661D01*
X0040461Y0013500D01*
X0040459Y0013339D01*
X0040453Y0013179D01*
X0040443Y0013018D01*
X0040429Y0012858D01*
X0040411Y0012698D01*
X0040390Y0012539D01*
X0040364Y0012380D01*
X0040334Y0012222D01*
X0040301Y0012065D01*
X0040263Y0011908D01*
X0040222Y0011753D01*
X0040177Y0011599D01*
X0040128Y0011446D01*
X0040075Y0011294D01*
X0040019Y0011143D01*
X0039958Y0010994D01*
X0039895Y0010846D01*
X0039827Y0010700D01*
X0039756Y0010556D01*
X0039682Y0010414D01*
X0039604Y0010273D01*
X0039522Y0010135D01*
X0039437Y0009998D01*
X0039349Y0009864D01*
X0039257Y0009732D01*
X0039162Y0009602D01*
X0039064Y0009474D01*
X0038963Y0009349D01*
X0038859Y0009227D01*
X0038752Y0009107D01*
X0038642Y0008990D01*
X0038529Y0008875D01*
X0038413Y0008764D01*
X0038294Y0008655D01*
X0038173Y0008550D01*
X0038049Y0008447D01*
X0037923Y0008347D01*
X0037795Y0008251D01*
X0037664Y0008158D01*
X0037530Y0008068D01*
X0037395Y0007981D01*
X0037257Y0007898D01*
X0037118Y0007818D01*
X0036976Y0007742D01*
X0036833Y0007669D01*
X0036688Y0007600D01*
X0036541Y0007534D01*
X0036393Y0007472D01*
X0036243Y0007414D01*
X0036092Y0007359D01*
X0035939Y0007308D01*
X0035785Y0007261D01*
X0035630Y0007218D01*
X0035474Y0007179D01*
X0035318Y0007143D01*
X0035160Y0007112D01*
X0035002Y0007084D01*
X0034843Y0007060D01*
X0034683Y0007040D01*
X0034523Y0007024D01*
X0034363Y0007012D01*
X0034202Y0007004D01*
X0034041Y0007000D01*
X0033881Y0007000D01*
X0033720Y0007004D01*
X0033559Y0007012D01*
X0033399Y0007024D01*
X0033239Y0007040D01*
X0033079Y0007060D01*
X0032920Y0007084D01*
X0032762Y0007112D01*
X0032604Y0007143D01*
X0032448Y0007179D01*
X0032292Y0007218D01*
X0032137Y0007261D01*
X0031983Y0007308D01*
X0031830Y0007359D01*
X0031679Y0007414D01*
X0031529Y0007472D01*
X0031381Y0007534D01*
X0031234Y0007600D01*
X0031089Y0007669D01*
X0030946Y0007742D01*
X0030804Y0007818D01*
X0030665Y0007898D01*
X0030527Y0007981D01*
X0030392Y0008068D01*
X0030258Y0008158D01*
X0030127Y0008251D01*
X0029999Y0008347D01*
X0029873Y0008447D01*
X0029749Y0008550D01*
X0029628Y0008655D01*
X0029509Y0008764D01*
X0029393Y0008875D01*
X0029280Y0008990D01*
X0029170Y0009107D01*
X0029063Y0009227D01*
X0028959Y0009349D01*
X0028858Y0009474D01*
X0028760Y0009602D01*
X0028665Y0009732D01*
X0028573Y0009864D01*
X0028485Y0009998D01*
X0028400Y0010135D01*
X0028318Y0010273D01*
X0028240Y0010414D01*
X0028166Y0010556D01*
X0028095Y0010700D01*
X0028027Y0010846D01*
X0027964Y0010994D01*
X0027903Y0011143D01*
X0027847Y0011294D01*
X0027794Y0011446D01*
X0027745Y0011599D01*
X0027700Y0011753D01*
X0027659Y0011908D01*
X0027621Y0012065D01*
X0027588Y0012222D01*
X0027558Y0012380D01*
X0027532Y0012539D01*
X0027511Y0012698D01*
X0027493Y0012858D01*
X0027479Y0013018D01*
X0027469Y0013179D01*
X0027463Y0013339D01*
X0027461Y0013500D01*
X0252461Y0013500D02*
X0252463Y0013661D01*
X0252469Y0013821D01*
X0252479Y0013982D01*
X0252493Y0014142D01*
X0252511Y0014302D01*
X0252532Y0014461D01*
X0252558Y0014620D01*
X0252588Y0014778D01*
X0252621Y0014935D01*
X0252659Y0015092D01*
X0252700Y0015247D01*
X0252745Y0015401D01*
X0252794Y0015554D01*
X0252847Y0015706D01*
X0252903Y0015857D01*
X0252964Y0016006D01*
X0253027Y0016154D01*
X0253095Y0016300D01*
X0253166Y0016444D01*
X0253240Y0016586D01*
X0253318Y0016727D01*
X0253400Y0016865D01*
X0253485Y0017002D01*
X0253573Y0017136D01*
X0253665Y0017268D01*
X0253760Y0017398D01*
X0253858Y0017526D01*
X0253959Y0017651D01*
X0254063Y0017773D01*
X0254170Y0017893D01*
X0254280Y0018010D01*
X0254393Y0018125D01*
X0254509Y0018236D01*
X0254628Y0018345D01*
X0254749Y0018450D01*
X0254873Y0018553D01*
X0254999Y0018653D01*
X0255127Y0018749D01*
X0255258Y0018842D01*
X0255392Y0018932D01*
X0255527Y0019019D01*
X0255665Y0019102D01*
X0255804Y0019182D01*
X0255946Y0019258D01*
X0256089Y0019331D01*
X0256234Y0019400D01*
X0256381Y0019466D01*
X0256529Y0019528D01*
X0256679Y0019586D01*
X0256830Y0019641D01*
X0256983Y0019692D01*
X0257137Y0019739D01*
X0257292Y0019782D01*
X0257448Y0019821D01*
X0257604Y0019857D01*
X0257762Y0019888D01*
X0257920Y0019916D01*
X0258079Y0019940D01*
X0258239Y0019960D01*
X0258399Y0019976D01*
X0258559Y0019988D01*
X0258720Y0019996D01*
X0258881Y0020000D01*
X0259041Y0020000D01*
X0259202Y0019996D01*
X0259363Y0019988D01*
X0259523Y0019976D01*
X0259683Y0019960D01*
X0259843Y0019940D01*
X0260002Y0019916D01*
X0260160Y0019888D01*
X0260318Y0019857D01*
X0260474Y0019821D01*
X0260630Y0019782D01*
X0260785Y0019739D01*
X0260939Y0019692D01*
X0261092Y0019641D01*
X0261243Y0019586D01*
X0261393Y0019528D01*
X0261541Y0019466D01*
X0261688Y0019400D01*
X0261833Y0019331D01*
X0261976Y0019258D01*
X0262118Y0019182D01*
X0262257Y0019102D01*
X0262395Y0019019D01*
X0262530Y0018932D01*
X0262664Y0018842D01*
X0262795Y0018749D01*
X0262923Y0018653D01*
X0263049Y0018553D01*
X0263173Y0018450D01*
X0263294Y0018345D01*
X0263413Y0018236D01*
X0263529Y0018125D01*
X0263642Y0018010D01*
X0263752Y0017893D01*
X0263859Y0017773D01*
X0263963Y0017651D01*
X0264064Y0017526D01*
X0264162Y0017398D01*
X0264257Y0017268D01*
X0264349Y0017136D01*
X0264437Y0017002D01*
X0264522Y0016865D01*
X0264604Y0016727D01*
X0264682Y0016586D01*
X0264756Y0016444D01*
X0264827Y0016300D01*
X0264895Y0016154D01*
X0264958Y0016006D01*
X0265019Y0015857D01*
X0265075Y0015706D01*
X0265128Y0015554D01*
X0265177Y0015401D01*
X0265222Y0015247D01*
X0265263Y0015092D01*
X0265301Y0014935D01*
X0265334Y0014778D01*
X0265364Y0014620D01*
X0265390Y0014461D01*
X0265411Y0014302D01*
X0265429Y0014142D01*
X0265443Y0013982D01*
X0265453Y0013821D01*
X0265459Y0013661D01*
X0265461Y0013500D01*
X0265459Y0013339D01*
X0265453Y0013179D01*
X0265443Y0013018D01*
X0265429Y0012858D01*
X0265411Y0012698D01*
X0265390Y0012539D01*
X0265364Y0012380D01*
X0265334Y0012222D01*
X0265301Y0012065D01*
X0265263Y0011908D01*
X0265222Y0011753D01*
X0265177Y0011599D01*
X0265128Y0011446D01*
X0265075Y0011294D01*
X0265019Y0011143D01*
X0264958Y0010994D01*
X0264895Y0010846D01*
X0264827Y0010700D01*
X0264756Y0010556D01*
X0264682Y0010414D01*
X0264604Y0010273D01*
X0264522Y0010135D01*
X0264437Y0009998D01*
X0264349Y0009864D01*
X0264257Y0009732D01*
X0264162Y0009602D01*
X0264064Y0009474D01*
X0263963Y0009349D01*
X0263859Y0009227D01*
X0263752Y0009107D01*
X0263642Y0008990D01*
X0263529Y0008875D01*
X0263413Y0008764D01*
X0263294Y0008655D01*
X0263173Y0008550D01*
X0263049Y0008447D01*
X0262923Y0008347D01*
X0262795Y0008251D01*
X0262664Y0008158D01*
X0262530Y0008068D01*
X0262395Y0007981D01*
X0262257Y0007898D01*
X0262118Y0007818D01*
X0261976Y0007742D01*
X0261833Y0007669D01*
X0261688Y0007600D01*
X0261541Y0007534D01*
X0261393Y0007472D01*
X0261243Y0007414D01*
X0261092Y0007359D01*
X0260939Y0007308D01*
X0260785Y0007261D01*
X0260630Y0007218D01*
X0260474Y0007179D01*
X0260318Y0007143D01*
X0260160Y0007112D01*
X0260002Y0007084D01*
X0259843Y0007060D01*
X0259683Y0007040D01*
X0259523Y0007024D01*
X0259363Y0007012D01*
X0259202Y0007004D01*
X0259041Y0007000D01*
X0258881Y0007000D01*
X0258720Y0007004D01*
X0258559Y0007012D01*
X0258399Y0007024D01*
X0258239Y0007040D01*
X0258079Y0007060D01*
X0257920Y0007084D01*
X0257762Y0007112D01*
X0257604Y0007143D01*
X0257448Y0007179D01*
X0257292Y0007218D01*
X0257137Y0007261D01*
X0256983Y0007308D01*
X0256830Y0007359D01*
X0256679Y0007414D01*
X0256529Y0007472D01*
X0256381Y0007534D01*
X0256234Y0007600D01*
X0256089Y0007669D01*
X0255946Y0007742D01*
X0255804Y0007818D01*
X0255665Y0007898D01*
X0255527Y0007981D01*
X0255392Y0008068D01*
X0255258Y0008158D01*
X0255127Y0008251D01*
X0254999Y0008347D01*
X0254873Y0008447D01*
X0254749Y0008550D01*
X0254628Y0008655D01*
X0254509Y0008764D01*
X0254393Y0008875D01*
X0254280Y0008990D01*
X0254170Y0009107D01*
X0254063Y0009227D01*
X0253959Y0009349D01*
X0253858Y0009474D01*
X0253760Y0009602D01*
X0253665Y0009732D01*
X0253573Y0009864D01*
X0253485Y0009998D01*
X0253400Y0010135D01*
X0253318Y0010273D01*
X0253240Y0010414D01*
X0253166Y0010556D01*
X0253095Y0010700D01*
X0253027Y0010846D01*
X0252964Y0010994D01*
X0252903Y0011143D01*
X0252847Y0011294D01*
X0252794Y0011446D01*
X0252745Y0011599D01*
X0252700Y0011753D01*
X0252659Y0011908D01*
X0252621Y0012065D01*
X0252588Y0012222D01*
X0252558Y0012380D01*
X0252532Y0012539D01*
X0252511Y0012698D01*
X0252493Y0012858D01*
X0252479Y0013018D01*
X0252469Y0013179D01*
X0252463Y0013339D01*
X0252461Y0013500D01*
X0252461Y0238500D02*
X0252463Y0238661D01*
X0252469Y0238821D01*
X0252479Y0238982D01*
X0252493Y0239142D01*
X0252511Y0239302D01*
X0252532Y0239461D01*
X0252558Y0239620D01*
X0252588Y0239778D01*
X0252621Y0239935D01*
X0252659Y0240092D01*
X0252700Y0240247D01*
X0252745Y0240401D01*
X0252794Y0240554D01*
X0252847Y0240706D01*
X0252903Y0240857D01*
X0252964Y0241006D01*
X0253027Y0241154D01*
X0253095Y0241300D01*
X0253166Y0241444D01*
X0253240Y0241586D01*
X0253318Y0241727D01*
X0253400Y0241865D01*
X0253485Y0242002D01*
X0253573Y0242136D01*
X0253665Y0242268D01*
X0253760Y0242398D01*
X0253858Y0242526D01*
X0253959Y0242651D01*
X0254063Y0242773D01*
X0254170Y0242893D01*
X0254280Y0243010D01*
X0254393Y0243125D01*
X0254509Y0243236D01*
X0254628Y0243345D01*
X0254749Y0243450D01*
X0254873Y0243553D01*
X0254999Y0243653D01*
X0255127Y0243749D01*
X0255258Y0243842D01*
X0255392Y0243932D01*
X0255527Y0244019D01*
X0255665Y0244102D01*
X0255804Y0244182D01*
X0255946Y0244258D01*
X0256089Y0244331D01*
X0256234Y0244400D01*
X0256381Y0244466D01*
X0256529Y0244528D01*
X0256679Y0244586D01*
X0256830Y0244641D01*
X0256983Y0244692D01*
X0257137Y0244739D01*
X0257292Y0244782D01*
X0257448Y0244821D01*
X0257604Y0244857D01*
X0257762Y0244888D01*
X0257920Y0244916D01*
X0258079Y0244940D01*
X0258239Y0244960D01*
X0258399Y0244976D01*
X0258559Y0244988D01*
X0258720Y0244996D01*
X0258881Y0245000D01*
X0259041Y0245000D01*
X0259202Y0244996D01*
X0259363Y0244988D01*
X0259523Y0244976D01*
X0259683Y0244960D01*
X0259843Y0244940D01*
X0260002Y0244916D01*
X0260160Y0244888D01*
X0260318Y0244857D01*
X0260474Y0244821D01*
X0260630Y0244782D01*
X0260785Y0244739D01*
X0260939Y0244692D01*
X0261092Y0244641D01*
X0261243Y0244586D01*
X0261393Y0244528D01*
X0261541Y0244466D01*
X0261688Y0244400D01*
X0261833Y0244331D01*
X0261976Y0244258D01*
X0262118Y0244182D01*
X0262257Y0244102D01*
X0262395Y0244019D01*
X0262530Y0243932D01*
X0262664Y0243842D01*
X0262795Y0243749D01*
X0262923Y0243653D01*
X0263049Y0243553D01*
X0263173Y0243450D01*
X0263294Y0243345D01*
X0263413Y0243236D01*
X0263529Y0243125D01*
X0263642Y0243010D01*
X0263752Y0242893D01*
X0263859Y0242773D01*
X0263963Y0242651D01*
X0264064Y0242526D01*
X0264162Y0242398D01*
X0264257Y0242268D01*
X0264349Y0242136D01*
X0264437Y0242002D01*
X0264522Y0241865D01*
X0264604Y0241727D01*
X0264682Y0241586D01*
X0264756Y0241444D01*
X0264827Y0241300D01*
X0264895Y0241154D01*
X0264958Y0241006D01*
X0265019Y0240857D01*
X0265075Y0240706D01*
X0265128Y0240554D01*
X0265177Y0240401D01*
X0265222Y0240247D01*
X0265263Y0240092D01*
X0265301Y0239935D01*
X0265334Y0239778D01*
X0265364Y0239620D01*
X0265390Y0239461D01*
X0265411Y0239302D01*
X0265429Y0239142D01*
X0265443Y0238982D01*
X0265453Y0238821D01*
X0265459Y0238661D01*
X0265461Y0238500D01*
X0265459Y0238339D01*
X0265453Y0238179D01*
X0265443Y0238018D01*
X0265429Y0237858D01*
X0265411Y0237698D01*
X0265390Y0237539D01*
X0265364Y0237380D01*
X0265334Y0237222D01*
X0265301Y0237065D01*
X0265263Y0236908D01*
X0265222Y0236753D01*
X0265177Y0236599D01*
X0265128Y0236446D01*
X0265075Y0236294D01*
X0265019Y0236143D01*
X0264958Y0235994D01*
X0264895Y0235846D01*
X0264827Y0235700D01*
X0264756Y0235556D01*
X0264682Y0235414D01*
X0264604Y0235273D01*
X0264522Y0235135D01*
X0264437Y0234998D01*
X0264349Y0234864D01*
X0264257Y0234732D01*
X0264162Y0234602D01*
X0264064Y0234474D01*
X0263963Y0234349D01*
X0263859Y0234227D01*
X0263752Y0234107D01*
X0263642Y0233990D01*
X0263529Y0233875D01*
X0263413Y0233764D01*
X0263294Y0233655D01*
X0263173Y0233550D01*
X0263049Y0233447D01*
X0262923Y0233347D01*
X0262795Y0233251D01*
X0262664Y0233158D01*
X0262530Y0233068D01*
X0262395Y0232981D01*
X0262257Y0232898D01*
X0262118Y0232818D01*
X0261976Y0232742D01*
X0261833Y0232669D01*
X0261688Y0232600D01*
X0261541Y0232534D01*
X0261393Y0232472D01*
X0261243Y0232414D01*
X0261092Y0232359D01*
X0260939Y0232308D01*
X0260785Y0232261D01*
X0260630Y0232218D01*
X0260474Y0232179D01*
X0260318Y0232143D01*
X0260160Y0232112D01*
X0260002Y0232084D01*
X0259843Y0232060D01*
X0259683Y0232040D01*
X0259523Y0232024D01*
X0259363Y0232012D01*
X0259202Y0232004D01*
X0259041Y0232000D01*
X0258881Y0232000D01*
X0258720Y0232004D01*
X0258559Y0232012D01*
X0258399Y0232024D01*
X0258239Y0232040D01*
X0258079Y0232060D01*
X0257920Y0232084D01*
X0257762Y0232112D01*
X0257604Y0232143D01*
X0257448Y0232179D01*
X0257292Y0232218D01*
X0257137Y0232261D01*
X0256983Y0232308D01*
X0256830Y0232359D01*
X0256679Y0232414D01*
X0256529Y0232472D01*
X0256381Y0232534D01*
X0256234Y0232600D01*
X0256089Y0232669D01*
X0255946Y0232742D01*
X0255804Y0232818D01*
X0255665Y0232898D01*
X0255527Y0232981D01*
X0255392Y0233068D01*
X0255258Y0233158D01*
X0255127Y0233251D01*
X0254999Y0233347D01*
X0254873Y0233447D01*
X0254749Y0233550D01*
X0254628Y0233655D01*
X0254509Y0233764D01*
X0254393Y0233875D01*
X0254280Y0233990D01*
X0254170Y0234107D01*
X0254063Y0234227D01*
X0253959Y0234349D01*
X0253858Y0234474D01*
X0253760Y0234602D01*
X0253665Y0234732D01*
X0253573Y0234864D01*
X0253485Y0234998D01*
X0253400Y0235135D01*
X0253318Y0235273D01*
X0253240Y0235414D01*
X0253166Y0235556D01*
X0253095Y0235700D01*
X0253027Y0235846D01*
X0252964Y0235994D01*
X0252903Y0236143D01*
X0252847Y0236294D01*
X0252794Y0236446D01*
X0252745Y0236599D01*
X0252700Y0236753D01*
X0252659Y0236908D01*
X0252621Y0237065D01*
X0252588Y0237222D01*
X0252558Y0237380D01*
X0252532Y0237539D01*
X0252511Y0237698D01*
X0252493Y0237858D01*
X0252479Y0238018D01*
X0252469Y0238179D01*
X0252463Y0238339D01*
X0252461Y0238500D01*
X0027461Y0238500D02*
X0027463Y0238661D01*
X0027469Y0238821D01*
X0027479Y0238982D01*
X0027493Y0239142D01*
X0027511Y0239302D01*
X0027532Y0239461D01*
X0027558Y0239620D01*
X0027588Y0239778D01*
X0027621Y0239935D01*
X0027659Y0240092D01*
X0027700Y0240247D01*
X0027745Y0240401D01*
X0027794Y0240554D01*
X0027847Y0240706D01*
X0027903Y0240857D01*
X0027964Y0241006D01*
X0028027Y0241154D01*
X0028095Y0241300D01*
X0028166Y0241444D01*
X0028240Y0241586D01*
X0028318Y0241727D01*
X0028400Y0241865D01*
X0028485Y0242002D01*
X0028573Y0242136D01*
X0028665Y0242268D01*
X0028760Y0242398D01*
X0028858Y0242526D01*
X0028959Y0242651D01*
X0029063Y0242773D01*
X0029170Y0242893D01*
X0029280Y0243010D01*
X0029393Y0243125D01*
X0029509Y0243236D01*
X0029628Y0243345D01*
X0029749Y0243450D01*
X0029873Y0243553D01*
X0029999Y0243653D01*
X0030127Y0243749D01*
X0030258Y0243842D01*
X0030392Y0243932D01*
X0030527Y0244019D01*
X0030665Y0244102D01*
X0030804Y0244182D01*
X0030946Y0244258D01*
X0031089Y0244331D01*
X0031234Y0244400D01*
X0031381Y0244466D01*
X0031529Y0244528D01*
X0031679Y0244586D01*
X0031830Y0244641D01*
X0031983Y0244692D01*
X0032137Y0244739D01*
X0032292Y0244782D01*
X0032448Y0244821D01*
X0032604Y0244857D01*
X0032762Y0244888D01*
X0032920Y0244916D01*
X0033079Y0244940D01*
X0033239Y0244960D01*
X0033399Y0244976D01*
X0033559Y0244988D01*
X0033720Y0244996D01*
X0033881Y0245000D01*
X0034041Y0245000D01*
X0034202Y0244996D01*
X0034363Y0244988D01*
X0034523Y0244976D01*
X0034683Y0244960D01*
X0034843Y0244940D01*
X0035002Y0244916D01*
X0035160Y0244888D01*
X0035318Y0244857D01*
X0035474Y0244821D01*
X0035630Y0244782D01*
X0035785Y0244739D01*
X0035939Y0244692D01*
X0036092Y0244641D01*
X0036243Y0244586D01*
X0036393Y0244528D01*
X0036541Y0244466D01*
X0036688Y0244400D01*
X0036833Y0244331D01*
X0036976Y0244258D01*
X0037118Y0244182D01*
X0037257Y0244102D01*
X0037395Y0244019D01*
X0037530Y0243932D01*
X0037664Y0243842D01*
X0037795Y0243749D01*
X0037923Y0243653D01*
X0038049Y0243553D01*
X0038173Y0243450D01*
X0038294Y0243345D01*
X0038413Y0243236D01*
X0038529Y0243125D01*
X0038642Y0243010D01*
X0038752Y0242893D01*
X0038859Y0242773D01*
X0038963Y0242651D01*
X0039064Y0242526D01*
X0039162Y0242398D01*
X0039257Y0242268D01*
X0039349Y0242136D01*
X0039437Y0242002D01*
X0039522Y0241865D01*
X0039604Y0241727D01*
X0039682Y0241586D01*
X0039756Y0241444D01*
X0039827Y0241300D01*
X0039895Y0241154D01*
X0039958Y0241006D01*
X0040019Y0240857D01*
X0040075Y0240706D01*
X0040128Y0240554D01*
X0040177Y0240401D01*
X0040222Y0240247D01*
X0040263Y0240092D01*
X0040301Y0239935D01*
X0040334Y0239778D01*
X0040364Y0239620D01*
X0040390Y0239461D01*
X0040411Y0239302D01*
X0040429Y0239142D01*
X0040443Y0238982D01*
X0040453Y0238821D01*
X0040459Y0238661D01*
X0040461Y0238500D01*
X0040459Y0238339D01*
X0040453Y0238179D01*
X0040443Y0238018D01*
X0040429Y0237858D01*
X0040411Y0237698D01*
X0040390Y0237539D01*
X0040364Y0237380D01*
X0040334Y0237222D01*
X0040301Y0237065D01*
X0040263Y0236908D01*
X0040222Y0236753D01*
X0040177Y0236599D01*
X0040128Y0236446D01*
X0040075Y0236294D01*
X0040019Y0236143D01*
X0039958Y0235994D01*
X0039895Y0235846D01*
X0039827Y0235700D01*
X0039756Y0235556D01*
X0039682Y0235414D01*
X0039604Y0235273D01*
X0039522Y0235135D01*
X0039437Y0234998D01*
X0039349Y0234864D01*
X0039257Y0234732D01*
X0039162Y0234602D01*
X0039064Y0234474D01*
X0038963Y0234349D01*
X0038859Y0234227D01*
X0038752Y0234107D01*
X0038642Y0233990D01*
X0038529Y0233875D01*
X0038413Y0233764D01*
X0038294Y0233655D01*
X0038173Y0233550D01*
X0038049Y0233447D01*
X0037923Y0233347D01*
X0037795Y0233251D01*
X0037664Y0233158D01*
X0037530Y0233068D01*
X0037395Y0232981D01*
X0037257Y0232898D01*
X0037118Y0232818D01*
X0036976Y0232742D01*
X0036833Y0232669D01*
X0036688Y0232600D01*
X0036541Y0232534D01*
X0036393Y0232472D01*
X0036243Y0232414D01*
X0036092Y0232359D01*
X0035939Y0232308D01*
X0035785Y0232261D01*
X0035630Y0232218D01*
X0035474Y0232179D01*
X0035318Y0232143D01*
X0035160Y0232112D01*
X0035002Y0232084D01*
X0034843Y0232060D01*
X0034683Y0232040D01*
X0034523Y0232024D01*
X0034363Y0232012D01*
X0034202Y0232004D01*
X0034041Y0232000D01*
X0033881Y0232000D01*
X0033720Y0232004D01*
X0033559Y0232012D01*
X0033399Y0232024D01*
X0033239Y0232040D01*
X0033079Y0232060D01*
X0032920Y0232084D01*
X0032762Y0232112D01*
X0032604Y0232143D01*
X0032448Y0232179D01*
X0032292Y0232218D01*
X0032137Y0232261D01*
X0031983Y0232308D01*
X0031830Y0232359D01*
X0031679Y0232414D01*
X0031529Y0232472D01*
X0031381Y0232534D01*
X0031234Y0232600D01*
X0031089Y0232669D01*
X0030946Y0232742D01*
X0030804Y0232818D01*
X0030665Y0232898D01*
X0030527Y0232981D01*
X0030392Y0233068D01*
X0030258Y0233158D01*
X0030127Y0233251D01*
X0029999Y0233347D01*
X0029873Y0233447D01*
X0029749Y0233550D01*
X0029628Y0233655D01*
X0029509Y0233764D01*
X0029393Y0233875D01*
X0029280Y0233990D01*
X0029170Y0234107D01*
X0029063Y0234227D01*
X0028959Y0234349D01*
X0028858Y0234474D01*
X0028760Y0234602D01*
X0028665Y0234732D01*
X0028573Y0234864D01*
X0028485Y0234998D01*
X0028400Y0235135D01*
X0028318Y0235273D01*
X0028240Y0235414D01*
X0028166Y0235556D01*
X0028095Y0235700D01*
X0028027Y0235846D01*
X0027964Y0235994D01*
X0027903Y0236143D01*
X0027847Y0236294D01*
X0027794Y0236446D01*
X0027745Y0236599D01*
X0027700Y0236753D01*
X0027659Y0236908D01*
X0027621Y0237065D01*
X0027588Y0237222D01*
X0027558Y0237380D01*
X0027532Y0237539D01*
X0027511Y0237698D01*
X0027493Y0237858D01*
X0027479Y0238018D01*
X0027469Y0238179D01*
X0027463Y0238339D01*
X0027461Y0238500D01*
D11*
X0028195Y0090804D02*
X0029730Y0090804D01*
X0028963Y0090804D02*
X0028963Y0086967D01*
X0028195Y0086200D01*
X0027428Y0086200D01*
X0026661Y0086967D01*
X0031265Y0086200D02*
X0034334Y0086200D01*
X0032799Y0086200D02*
X0032799Y0090804D01*
X0031265Y0089269D01*
X0116661Y0010804D02*
X0116661Y0006200D01*
X0116661Y0008502D02*
X0117428Y0009269D01*
X0118963Y0009269D01*
X0119730Y0008502D01*
X0119730Y0006200D01*
X0122032Y0006967D02*
X0122032Y0010037D01*
X0121265Y0009269D02*
X0122799Y0009269D01*
X0124334Y0009269D02*
X0125868Y0009269D01*
X0125101Y0010037D02*
X0125101Y0006967D01*
X0125868Y0006200D01*
X0127403Y0006200D02*
X0129705Y0006200D01*
X0130472Y0006967D01*
X0130472Y0008502D01*
X0129705Y0009269D01*
X0127403Y0009269D01*
X0127403Y0004665D01*
X0122799Y0006200D02*
X0122032Y0006967D01*
X0132007Y0006967D02*
X0132007Y0006200D01*
X0132774Y0006200D01*
X0132774Y0006967D01*
X0132007Y0006967D01*
X0132007Y0008502D02*
X0132007Y0009269D01*
X0132774Y0009269D01*
X0132774Y0008502D01*
X0132007Y0008502D01*
X0134309Y0006200D02*
X0137378Y0010804D01*
X0139928Y0013700D02*
X0139161Y0014467D01*
X0139161Y0016769D01*
X0142230Y0016769D02*
X0142230Y0013700D01*
X0139928Y0013700D01*
X0141982Y0010804D02*
X0138913Y0006200D01*
X0143517Y0006967D02*
X0144284Y0006200D01*
X0145051Y0006967D01*
X0145819Y0006200D01*
X0146586Y0006967D01*
X0146586Y0009269D01*
X0148121Y0008502D02*
X0148121Y0006967D01*
X0148888Y0006200D01*
X0150423Y0006200D01*
X0151190Y0006967D01*
X0151190Y0008502D01*
X0150423Y0009269D01*
X0148888Y0009269D01*
X0148121Y0008502D01*
X0152725Y0009269D02*
X0152725Y0006200D01*
X0152725Y0007735D02*
X0154259Y0009269D01*
X0155027Y0009269D01*
X0156561Y0007735D02*
X0158863Y0009269D01*
X0160398Y0009269D02*
X0162700Y0009269D01*
X0163467Y0008502D01*
X0163467Y0006967D01*
X0162700Y0006200D01*
X0160398Y0006200D01*
X0160398Y0010804D01*
X0160646Y0013700D02*
X0160646Y0016769D01*
X0161413Y0016769D01*
X0162180Y0016002D01*
X0162948Y0016769D01*
X0163715Y0016002D01*
X0163715Y0013700D01*
X0165250Y0013700D02*
X0166784Y0013700D01*
X0166017Y0013700D02*
X0166017Y0018304D01*
X0165250Y0018304D02*
X0166784Y0018304D01*
X0168319Y0016769D02*
X0170621Y0016769D01*
X0171388Y0016002D01*
X0171388Y0013700D01*
X0172923Y0013700D02*
X0175225Y0013700D01*
X0175992Y0014467D01*
X0175992Y0016002D01*
X0175225Y0016769D01*
X0172923Y0016769D01*
X0172923Y0012165D01*
X0171908Y0009269D02*
X0172675Y0008502D01*
X0172675Y0006200D01*
X0174210Y0006967D02*
X0174977Y0006200D01*
X0177279Y0006200D01*
X0178814Y0006200D02*
X0178814Y0010804D01*
X0179581Y0009269D02*
X0181116Y0009269D01*
X0181883Y0008502D01*
X0181883Y0006200D01*
X0183418Y0006200D02*
X0184185Y0006200D01*
X0184185Y0006967D01*
X0183418Y0006967D01*
X0183418Y0006200D01*
X0186487Y0006200D02*
X0186487Y0010037D01*
X0187254Y0010804D01*
X0188789Y0009269D02*
X0188789Y0006200D01*
X0188789Y0007735D02*
X0190323Y0009269D01*
X0191091Y0009269D01*
X0192625Y0008502D02*
X0192625Y0006967D01*
X0193393Y0006200D01*
X0194927Y0006200D01*
X0195695Y0007735D02*
X0192625Y0007735D01*
X0192625Y0008502D02*
X0193393Y0009269D01*
X0194927Y0009269D01*
X0195695Y0008502D01*
X0195695Y0007735D01*
X0197229Y0007735D02*
X0200299Y0007735D01*
X0200299Y0008502D01*
X0199531Y0009269D01*
X0197997Y0009269D01*
X0197229Y0008502D01*
X0197229Y0006967D01*
X0197997Y0006200D01*
X0199531Y0006200D01*
X0201833Y0009269D02*
X0203368Y0009269D01*
X0202601Y0010037D02*
X0202601Y0006967D01*
X0203368Y0006200D01*
X0204902Y0006967D02*
X0205670Y0006200D01*
X0207972Y0006200D01*
X0209506Y0006200D02*
X0211808Y0006200D01*
X0212576Y0006967D01*
X0212576Y0008502D01*
X0211808Y0009269D01*
X0209506Y0009269D01*
X0209506Y0004665D01*
X0207972Y0009269D02*
X0205670Y0009269D01*
X0204902Y0008502D01*
X0204902Y0006967D01*
X0205918Y0013700D02*
X0208987Y0013700D01*
X0207452Y0013700D02*
X0207452Y0018304D01*
X0205918Y0016769D01*
X0204383Y0017537D02*
X0204383Y0014467D01*
X0203616Y0013700D01*
X0202081Y0013700D01*
X0201314Y0014467D01*
X0204383Y0017537D01*
X0203616Y0018304D01*
X0202081Y0018304D01*
X0201314Y0017537D01*
X0201314Y0014467D01*
X0199779Y0014467D02*
X0199779Y0013700D01*
X0199012Y0013700D01*
X0199012Y0014467D01*
X0199779Y0014467D01*
X0197477Y0013700D02*
X0194408Y0013700D01*
X0195942Y0013700D02*
X0195942Y0018304D01*
X0194408Y0016769D01*
X0192873Y0016769D02*
X0191338Y0013700D01*
X0189804Y0016769D01*
X0183665Y0016769D02*
X0182131Y0016769D01*
X0182898Y0017537D02*
X0182898Y0014467D01*
X0183665Y0013700D01*
X0180596Y0013700D02*
X0180596Y0016769D01*
X0180596Y0013700D02*
X0178294Y0013700D01*
X0177527Y0014467D01*
X0177527Y0016769D01*
X0177279Y0009269D02*
X0174977Y0009269D01*
X0174210Y0008502D01*
X0174210Y0006967D01*
X0171908Y0009269D02*
X0169606Y0009269D01*
X0169606Y0006200D01*
X0168071Y0007735D02*
X0165002Y0007735D01*
X0165002Y0008502D02*
X0165769Y0009269D01*
X0167304Y0009269D01*
X0168071Y0008502D01*
X0168071Y0007735D01*
X0167304Y0006200D02*
X0165769Y0006200D01*
X0165002Y0006967D01*
X0165002Y0008502D01*
X0162180Y0013700D02*
X0162180Y0016002D01*
X0159111Y0013700D02*
X0157576Y0013700D01*
X0158344Y0013700D02*
X0158344Y0016769D01*
X0157576Y0016769D01*
X0156042Y0017537D02*
X0155274Y0018304D01*
X0153740Y0018304D01*
X0152972Y0017537D01*
X0152972Y0016769D01*
X0153740Y0016002D01*
X0155274Y0016002D01*
X0156042Y0015235D01*
X0156042Y0014467D01*
X0155274Y0013700D01*
X0153740Y0013700D01*
X0152972Y0014467D01*
X0151438Y0014467D02*
X0151438Y0016002D01*
X0150670Y0016769D01*
X0148368Y0016769D01*
X0146834Y0016769D02*
X0144532Y0016769D01*
X0143765Y0016002D01*
X0144532Y0015235D01*
X0146067Y0015235D01*
X0146834Y0014467D01*
X0146067Y0013700D01*
X0143765Y0013700D01*
X0143517Y0009269D02*
X0143517Y0006967D01*
X0148368Y0013700D02*
X0150670Y0013700D01*
X0151438Y0014467D01*
X0148368Y0013700D02*
X0148368Y0018304D01*
X0158344Y0018304D02*
X0158344Y0019071D01*
X0156561Y0010804D02*
X0156561Y0006200D01*
X0156561Y0007735D02*
X0158863Y0006200D01*
X0168319Y0013700D02*
X0168319Y0016769D01*
X0178814Y0008502D02*
X0179581Y0009269D01*
X0185719Y0008502D02*
X0187254Y0008502D01*
X0214110Y0006967D02*
X0214878Y0006967D01*
X0214878Y0006200D01*
X0214110Y0006200D01*
X0214110Y0006967D01*
X0216412Y0006967D02*
X0216412Y0008502D01*
X0217180Y0009269D01*
X0219482Y0009269D01*
X0221016Y0008502D02*
X0221016Y0006967D01*
X0221784Y0006200D01*
X0223318Y0006200D01*
X0224085Y0006967D01*
X0224085Y0008502D01*
X0223318Y0009269D01*
X0221784Y0009269D01*
X0221016Y0008502D01*
X0219482Y0006200D02*
X0217180Y0006200D01*
X0216412Y0006967D01*
X0225620Y0006200D02*
X0225620Y0009269D01*
X0226387Y0009269D01*
X0227155Y0008502D01*
X0227922Y0009269D01*
X0228689Y0008502D01*
X0228689Y0006200D01*
X0227155Y0006200D02*
X0227155Y0008502D01*
D12*
X0226461Y0026000D02*
X0206461Y0026000D01*
X0206461Y0036000D01*
X0206461Y0056000D02*
X0206461Y0066000D01*
X0226461Y0066000D01*
X0246461Y0146000D02*
X0266461Y0146000D01*
X0266461Y0156000D01*
X0266461Y0176000D02*
X0266461Y0186000D01*
X0266461Y0196000D01*
X0266461Y0186000D02*
X0246461Y0186000D01*
X0266461Y0216000D02*
X0266461Y0226000D01*
X0246461Y0226000D01*
X0063508Y0084228D02*
X0049000Y0084228D01*
X0033508Y0084228D02*
X0001500Y0084228D01*
X0001500Y0037772D01*
X0033508Y0037772D01*
X0049000Y0037772D02*
X0063508Y0037772D01*
X0063508Y0084228D01*
X0056461Y0116000D02*
X0056461Y0121000D01*
X0051461Y0121000D01*
X0051461Y0119500D01*
X0051461Y0121000D02*
X0046461Y0121000D01*
X0046461Y0126000D01*
X0046461Y0131000D02*
X0051461Y0131000D01*
X0056461Y0131000D01*
X0051461Y0121000D01*
X0046461Y0131000D01*
X0051461Y0131000D02*
X0051461Y0132500D01*
X0071461Y0031000D02*
X0071461Y0026000D01*
X0076461Y0026000D01*
X0076461Y0027500D01*
X0076461Y0026000D02*
X0081461Y0026000D01*
X0081461Y0021000D01*
X0081461Y0016000D02*
X0076461Y0016000D01*
X0071461Y0016000D01*
X0076461Y0026000D01*
X0081461Y0016000D01*
X0076461Y0016000D02*
X0076461Y0014500D01*
D13*
X0205107Y0039267D02*
X0205725Y0038650D01*
X0208193Y0038650D01*
X0208811Y0039267D01*
X0208811Y0040502D01*
X0208193Y0041119D01*
X0208193Y0042333D02*
X0208811Y0042950D01*
X0208811Y0044185D01*
X0208193Y0044802D01*
X0206959Y0044802D01*
X0206342Y0044185D01*
X0206342Y0042950D01*
X0206959Y0042333D01*
X0208193Y0042333D01*
X0205725Y0041119D02*
X0205107Y0040502D01*
X0205107Y0039267D01*
X0205107Y0046016D02*
X0205107Y0046633D01*
X0208811Y0046633D01*
X0208811Y0046016D02*
X0208811Y0047251D01*
X0208811Y0048472D02*
X0208811Y0050323D01*
X0208193Y0050940D01*
X0207576Y0050323D01*
X0207576Y0049089D01*
X0206959Y0048472D01*
X0206342Y0049089D01*
X0206342Y0050940D01*
X0212607Y0049884D02*
X0216311Y0049884D01*
X0216311Y0048650D02*
X0216311Y0051119D01*
X0216311Y0052333D02*
X0216311Y0054802D01*
X0216311Y0053568D02*
X0212607Y0053568D01*
X0213842Y0052333D01*
X0212607Y0049884D02*
X0213842Y0048650D01*
X0213842Y0044802D02*
X0213225Y0044802D01*
X0212607Y0044185D01*
X0212607Y0042950D01*
X0213225Y0042333D01*
X0214459Y0043568D02*
X0214459Y0044185D01*
X0215076Y0044802D01*
X0215693Y0044802D01*
X0216311Y0044185D01*
X0216311Y0042950D01*
X0215693Y0042333D01*
X0216311Y0041119D02*
X0216311Y0038650D01*
X0216311Y0039884D02*
X0212607Y0039884D01*
X0213842Y0038650D01*
X0214459Y0034802D02*
X0215693Y0034802D01*
X0216311Y0034185D01*
X0216311Y0032950D01*
X0215693Y0032333D01*
X0214459Y0032333D02*
X0213842Y0033568D01*
X0213842Y0034185D01*
X0214459Y0034802D01*
X0212607Y0034802D02*
X0212607Y0032333D01*
X0214459Y0032333D01*
X0216311Y0031119D02*
X0216311Y0028650D01*
X0216311Y0029884D02*
X0212607Y0029884D01*
X0213842Y0028650D01*
X0220107Y0029884D02*
X0223811Y0029884D01*
X0223811Y0028650D02*
X0223811Y0031119D01*
X0223193Y0032333D02*
X0223811Y0032950D01*
X0223811Y0034185D01*
X0223193Y0034802D01*
X0222576Y0034802D01*
X0221959Y0034185D01*
X0221959Y0032333D01*
X0223193Y0032333D01*
X0221959Y0032333D02*
X0220725Y0033568D01*
X0220107Y0034802D01*
X0221342Y0038650D02*
X0220107Y0039884D01*
X0223811Y0039884D01*
X0223811Y0038650D02*
X0223811Y0041119D01*
X0221959Y0042333D02*
X0221959Y0044802D01*
X0223811Y0044185D02*
X0220107Y0044185D01*
X0221959Y0042333D01*
X0221342Y0048650D02*
X0220107Y0049884D01*
X0223811Y0049884D01*
X0223811Y0048650D02*
X0223811Y0051119D01*
X0223811Y0052333D02*
X0221342Y0054802D01*
X0220725Y0054802D01*
X0220107Y0054185D01*
X0220107Y0052950D01*
X0220725Y0052333D01*
X0223811Y0052333D02*
X0223811Y0054802D01*
X0223811Y0058650D02*
X0223811Y0061119D01*
X0223811Y0059884D02*
X0220107Y0059884D01*
X0221342Y0058650D01*
X0220725Y0062333D02*
X0220107Y0062950D01*
X0220107Y0064185D01*
X0220725Y0064802D01*
X0223193Y0062333D01*
X0223811Y0062950D01*
X0223811Y0064185D01*
X0223193Y0064802D01*
X0220725Y0064802D01*
X0220725Y0062333D02*
X0223193Y0062333D01*
X0216311Y0061767D02*
X0216311Y0063002D01*
X0215693Y0063619D01*
X0213225Y0063619D01*
X0212607Y0063002D01*
X0212607Y0061767D01*
X0213225Y0061150D01*
X0213842Y0061150D01*
X0214459Y0061767D01*
X0214459Y0063619D01*
X0216311Y0061767D02*
X0215693Y0061150D01*
X0213842Y0044802D02*
X0214459Y0044185D01*
X0220107Y0029884D02*
X0221342Y0028650D01*
X0222711Y0108650D02*
X0221477Y0109884D01*
X0221477Y0112353D01*
X0220263Y0112353D02*
X0217794Y0112353D01*
X0217794Y0110502D01*
X0219028Y0111119D01*
X0219645Y0111119D01*
X0220263Y0110502D01*
X0220263Y0109267D01*
X0219645Y0108650D01*
X0218411Y0108650D01*
X0217794Y0109267D01*
X0216579Y0110502D02*
X0214111Y0110502D01*
X0215345Y0111736D02*
X0215345Y0109267D01*
X0222711Y0108650D02*
X0223946Y0109884D01*
X0223946Y0112353D01*
X0223328Y0128650D02*
X0221477Y0128650D01*
X0221477Y0132353D01*
X0223328Y0132353D01*
X0223946Y0131736D01*
X0223946Y0129267D01*
X0223328Y0128650D01*
X0220263Y0128650D02*
X0220263Y0132353D01*
X0217794Y0132353D02*
X0217794Y0128650D01*
X0216579Y0129267D02*
X0216579Y0130502D01*
X0215345Y0130502D01*
X0214111Y0131736D02*
X0214111Y0129267D01*
X0214728Y0128650D01*
X0215962Y0128650D01*
X0216579Y0129267D01*
X0216579Y0131736D02*
X0215962Y0132353D01*
X0214728Y0132353D01*
X0214111Y0131736D01*
X0217794Y0132353D02*
X0220263Y0128650D01*
X0247607Y0148650D02*
X0247607Y0151119D01*
X0248225Y0151119D01*
X0250693Y0148650D01*
X0251311Y0148650D01*
X0255107Y0149267D02*
X0255725Y0148650D01*
X0256342Y0148650D01*
X0256959Y0149267D01*
X0256959Y0150502D01*
X0257576Y0151119D01*
X0258193Y0151119D01*
X0258811Y0150502D01*
X0258811Y0149267D01*
X0258193Y0148650D01*
X0257576Y0148650D01*
X0256959Y0149267D01*
X0256959Y0150502D02*
X0256342Y0151119D01*
X0255725Y0151119D01*
X0255107Y0150502D01*
X0255107Y0149267D01*
X0256959Y0158650D02*
X0256959Y0160502D01*
X0257576Y0161119D01*
X0258193Y0161119D01*
X0258811Y0160502D01*
X0258811Y0159267D01*
X0258193Y0158650D01*
X0256959Y0158650D01*
X0255725Y0159884D01*
X0255107Y0161119D01*
X0251311Y0160502D02*
X0251311Y0159267D01*
X0250693Y0158650D01*
X0249459Y0158650D02*
X0248842Y0159884D01*
X0248842Y0160502D01*
X0249459Y0161119D01*
X0250693Y0161119D01*
X0251311Y0160502D01*
X0249459Y0158650D02*
X0247607Y0158650D01*
X0247607Y0161119D01*
X0248225Y0171150D02*
X0247607Y0171767D01*
X0247607Y0173002D01*
X0248225Y0173619D01*
X0248842Y0173619D01*
X0249459Y0173002D01*
X0250076Y0173619D01*
X0250693Y0173619D01*
X0251311Y0173002D01*
X0251311Y0171767D01*
X0250693Y0171150D01*
X0249459Y0172384D02*
X0249459Y0173002D01*
X0255107Y0173002D02*
X0256959Y0171150D01*
X0256959Y0173619D01*
X0258811Y0173002D02*
X0255107Y0173002D01*
X0255725Y0181150D02*
X0255107Y0181767D01*
X0255107Y0183002D01*
X0255725Y0183619D01*
X0256342Y0183619D01*
X0258811Y0181150D01*
X0258811Y0183619D01*
X0258193Y0188650D02*
X0257576Y0188650D01*
X0256959Y0189267D01*
X0256959Y0190502D01*
X0257576Y0191119D01*
X0258193Y0191119D01*
X0258811Y0190502D01*
X0258811Y0189267D01*
X0258193Y0188650D01*
X0256959Y0189267D02*
X0256342Y0188650D01*
X0255725Y0188650D01*
X0255107Y0189267D01*
X0255107Y0190502D01*
X0255725Y0191119D01*
X0256342Y0191119D01*
X0256959Y0190502D01*
X0251311Y0188650D02*
X0250693Y0188650D01*
X0248225Y0191119D01*
X0247607Y0191119D01*
X0247607Y0188650D01*
X0251311Y0183619D02*
X0251311Y0181150D01*
X0251311Y0182384D02*
X0247607Y0182384D01*
X0248842Y0181150D01*
X0263842Y0172168D02*
X0263842Y0170317D01*
X0264459Y0169699D01*
X0265076Y0170317D01*
X0265076Y0171551D01*
X0265693Y0172168D01*
X0266311Y0171551D01*
X0266311Y0169699D01*
X0265693Y0168485D02*
X0263842Y0168485D01*
X0265693Y0168485D02*
X0266311Y0167868D01*
X0265693Y0167251D01*
X0266311Y0166633D01*
X0265693Y0166016D01*
X0263842Y0166016D01*
X0264459Y0164802D02*
X0263842Y0164185D01*
X0263842Y0162950D01*
X0264459Y0162333D01*
X0265693Y0162333D01*
X0266311Y0162950D01*
X0266311Y0164185D01*
X0265693Y0164802D01*
X0264459Y0164802D01*
X0264459Y0161119D02*
X0265076Y0160502D01*
X0265076Y0158650D01*
X0265076Y0159884D02*
X0266311Y0161119D01*
X0264459Y0161119D02*
X0263225Y0161119D01*
X0262607Y0160502D01*
X0262607Y0158650D01*
X0266311Y0158650D01*
X0258328Y0132353D02*
X0256477Y0132353D01*
X0256477Y0128650D01*
X0258328Y0128650D01*
X0258946Y0129267D01*
X0258946Y0131736D01*
X0258328Y0132353D01*
X0255263Y0132353D02*
X0255263Y0128650D01*
X0252794Y0132353D01*
X0252794Y0128650D01*
X0251579Y0129267D02*
X0251579Y0130502D01*
X0250345Y0130502D01*
X0249111Y0131736D02*
X0249111Y0129267D01*
X0249728Y0128650D01*
X0250962Y0128650D01*
X0251579Y0129267D01*
X0251579Y0131736D02*
X0250962Y0132353D01*
X0249728Y0132353D01*
X0249111Y0131736D01*
X0252794Y0112353D02*
X0252794Y0110502D01*
X0254028Y0111119D01*
X0254645Y0111119D01*
X0255263Y0110502D01*
X0255263Y0109267D01*
X0254645Y0108650D01*
X0253411Y0108650D01*
X0252794Y0109267D01*
X0251579Y0110502D02*
X0249111Y0110502D01*
X0250345Y0111736D02*
X0250345Y0109267D01*
X0252794Y0112353D02*
X0255263Y0112353D01*
X0256477Y0112353D02*
X0256477Y0109884D01*
X0257711Y0108650D01*
X0258946Y0109884D01*
X0258946Y0112353D01*
X0258193Y0198650D02*
X0256959Y0198650D01*
X0256959Y0200502D01*
X0257576Y0201119D01*
X0258193Y0201119D01*
X0258811Y0200502D01*
X0258811Y0199267D01*
X0258193Y0198650D01*
X0256959Y0198650D02*
X0255725Y0199884D01*
X0255107Y0201119D01*
X0251311Y0200502D02*
X0251311Y0199267D01*
X0250693Y0198650D01*
X0249459Y0198650D02*
X0248842Y0199884D01*
X0248842Y0200502D01*
X0249459Y0201119D01*
X0250693Y0201119D01*
X0251311Y0200502D01*
X0249459Y0198650D02*
X0247607Y0198650D01*
X0247607Y0201119D01*
X0248225Y0211150D02*
X0247607Y0211767D01*
X0247607Y0213002D01*
X0248225Y0213619D01*
X0248842Y0213619D01*
X0249459Y0213002D01*
X0250076Y0213619D01*
X0250693Y0213619D01*
X0251311Y0213002D01*
X0251311Y0211767D01*
X0250693Y0211150D01*
X0249459Y0212384D02*
X0249459Y0213002D01*
X0255107Y0213002D02*
X0256959Y0211150D01*
X0256959Y0213619D01*
X0258811Y0213002D02*
X0255107Y0213002D01*
X0262607Y0206633D02*
X0266311Y0206633D01*
X0266311Y0206016D02*
X0266311Y0207251D01*
X0266311Y0208472D02*
X0266311Y0210323D01*
X0265693Y0210940D01*
X0265076Y0210323D01*
X0265076Y0209089D01*
X0264459Y0208472D01*
X0263842Y0209089D01*
X0263842Y0210940D01*
X0262607Y0206633D02*
X0262607Y0206016D01*
X0263842Y0204185D02*
X0263842Y0202950D01*
X0264459Y0202333D01*
X0265693Y0202333D01*
X0266311Y0202950D01*
X0266311Y0204185D01*
X0265693Y0204802D01*
X0264459Y0204802D01*
X0263842Y0204185D01*
X0263225Y0201119D02*
X0262607Y0200502D01*
X0262607Y0199267D01*
X0263225Y0198650D01*
X0265693Y0198650D01*
X0266311Y0199267D01*
X0266311Y0200502D01*
X0265693Y0201119D01*
X0258811Y0221150D02*
X0256342Y0223619D01*
X0255725Y0223619D01*
X0255107Y0223002D01*
X0255107Y0221767D01*
X0255725Y0221150D01*
X0258811Y0221150D02*
X0258811Y0223619D01*
X0251311Y0223619D02*
X0251311Y0221150D01*
X0251311Y0222384D02*
X0247607Y0222384D01*
X0248842Y0221150D01*
D14*
X0246461Y0223500D02*
X0246461Y0218500D01*
X0243961Y0216000D01*
X0246461Y0213500D01*
X0246461Y0208500D01*
X0243961Y0206000D01*
X0246461Y0203500D01*
X0246461Y0198500D01*
X0243961Y0196000D01*
X0246461Y0193500D01*
X0246461Y0188500D01*
X0243961Y0186000D01*
X0246461Y0183500D01*
X0246461Y0178500D01*
X0243961Y0176000D01*
X0246461Y0173500D01*
X0246461Y0168500D01*
X0243961Y0166000D01*
X0246461Y0163500D01*
X0246461Y0158500D01*
X0243961Y0156000D01*
X0246461Y0153500D01*
X0246461Y0148500D01*
X0243961Y0146000D01*
X0246461Y0143500D01*
X0246461Y0138500D01*
X0243961Y0136000D01*
X0246461Y0133500D01*
X0246461Y0128500D01*
X0243961Y0126000D01*
X0246461Y0123500D01*
X0246461Y0118500D01*
X0243961Y0116000D01*
X0246461Y0113500D01*
X0246461Y0108500D01*
X0243961Y0106000D01*
X0246461Y0103500D01*
X0246461Y0098500D01*
X0243961Y0096000D01*
X0246461Y0093500D01*
X0246461Y0088500D01*
X0243961Y0086000D01*
X0246461Y0083500D01*
X0246461Y0078500D01*
X0243961Y0076000D01*
X0246461Y0073500D01*
X0246461Y0068500D01*
X0243961Y0066000D01*
X0246461Y0063500D01*
X0246461Y0058500D01*
X0243961Y0056000D01*
X0246461Y0053500D01*
X0246461Y0048500D01*
X0243961Y0046000D01*
X0246461Y0043500D01*
X0246461Y0038500D01*
X0243961Y0036000D01*
X0246461Y0033500D01*
X0246461Y0028500D01*
X0243961Y0026000D01*
X0228961Y0026000D01*
X0226461Y0028500D01*
X0226461Y0033500D01*
X0228961Y0036000D01*
X0226461Y0038500D01*
X0226461Y0043500D01*
X0228961Y0046000D01*
X0226461Y0048500D01*
X0226461Y0053500D01*
X0228961Y0056000D01*
X0226461Y0058500D01*
X0226461Y0063500D01*
X0228961Y0066000D01*
X0226461Y0068500D01*
X0226461Y0073500D01*
X0228961Y0076000D01*
X0226461Y0078500D01*
X0226461Y0083500D01*
X0228961Y0086000D01*
X0226461Y0088500D01*
X0226461Y0093500D01*
X0228961Y0096000D01*
X0226461Y0098500D01*
X0226461Y0103500D01*
X0228961Y0106000D01*
X0226461Y0108500D01*
X0226461Y0113500D01*
X0228961Y0116000D01*
X0226461Y0118500D01*
X0226461Y0123500D01*
X0228961Y0126000D01*
X0226461Y0128500D01*
X0226461Y0133500D01*
X0228961Y0136000D01*
X0226461Y0138500D01*
X0226461Y0143500D01*
X0228961Y0146000D01*
X0226461Y0148500D01*
X0226461Y0153500D01*
X0228961Y0156000D01*
X0226461Y0158500D01*
X0226461Y0163500D01*
X0228961Y0166000D01*
X0226461Y0168500D01*
X0226461Y0173500D01*
X0228961Y0176000D01*
X0226461Y0178500D01*
X0226461Y0183500D01*
X0228961Y0186000D01*
X0226461Y0188500D01*
X0226461Y0193500D01*
X0228961Y0196000D01*
X0226461Y0198500D01*
X0226461Y0203500D01*
X0228961Y0206000D01*
X0226461Y0208500D01*
X0226461Y0213500D01*
X0228961Y0216000D01*
X0226461Y0218500D01*
X0226461Y0223500D01*
X0228961Y0226000D01*
X0243961Y0226000D01*
X0246461Y0223500D01*
X0172461Y0235000D02*
X0172461Y0027000D01*
X0120461Y0027000D01*
X0120461Y0235000D01*
X0141461Y0235000D01*
X0141463Y0234860D01*
X0141469Y0234720D01*
X0141479Y0234580D01*
X0141492Y0234440D01*
X0141510Y0234301D01*
X0141532Y0234162D01*
X0141557Y0234025D01*
X0141586Y0233887D01*
X0141619Y0233751D01*
X0141656Y0233616D01*
X0141697Y0233482D01*
X0141742Y0233349D01*
X0141790Y0233217D01*
X0141842Y0233087D01*
X0141897Y0232958D01*
X0141956Y0232831D01*
X0142019Y0232705D01*
X0142085Y0232581D01*
X0142154Y0232460D01*
X0142227Y0232340D01*
X0142304Y0232222D01*
X0142383Y0232107D01*
X0142466Y0231993D01*
X0142552Y0231883D01*
X0142641Y0231774D01*
X0142733Y0231668D01*
X0142828Y0231565D01*
X0142925Y0231464D01*
X0143026Y0231367D01*
X0143129Y0231272D01*
X0143235Y0231180D01*
X0143344Y0231091D01*
X0143454Y0231005D01*
X0143568Y0230922D01*
X0143683Y0230843D01*
X0143801Y0230766D01*
X0143921Y0230693D01*
X0144042Y0230624D01*
X0144166Y0230558D01*
X0144292Y0230495D01*
X0144419Y0230436D01*
X0144548Y0230381D01*
X0144678Y0230329D01*
X0144810Y0230281D01*
X0144943Y0230236D01*
X0145077Y0230195D01*
X0145212Y0230158D01*
X0145348Y0230125D01*
X0145486Y0230096D01*
X0145623Y0230071D01*
X0145762Y0230049D01*
X0145901Y0230031D01*
X0146041Y0230018D01*
X0146181Y0230008D01*
X0146321Y0230002D01*
X0146461Y0230000D01*
X0146601Y0230002D01*
X0146741Y0230008D01*
X0146881Y0230018D01*
X0147021Y0230031D01*
X0147160Y0230049D01*
X0147299Y0230071D01*
X0147436Y0230096D01*
X0147574Y0230125D01*
X0147710Y0230158D01*
X0147845Y0230195D01*
X0147979Y0230236D01*
X0148112Y0230281D01*
X0148244Y0230329D01*
X0148374Y0230381D01*
X0148503Y0230436D01*
X0148630Y0230495D01*
X0148756Y0230558D01*
X0148880Y0230624D01*
X0149001Y0230693D01*
X0149121Y0230766D01*
X0149239Y0230843D01*
X0149354Y0230922D01*
X0149468Y0231005D01*
X0149578Y0231091D01*
X0149687Y0231180D01*
X0149793Y0231272D01*
X0149896Y0231367D01*
X0149997Y0231464D01*
X0150094Y0231565D01*
X0150189Y0231668D01*
X0150281Y0231774D01*
X0150370Y0231883D01*
X0150456Y0231993D01*
X0150539Y0232107D01*
X0150618Y0232222D01*
X0150695Y0232340D01*
X0150768Y0232460D01*
X0150837Y0232581D01*
X0150903Y0232705D01*
X0150966Y0232831D01*
X0151025Y0232958D01*
X0151080Y0233087D01*
X0151132Y0233217D01*
X0151180Y0233349D01*
X0151225Y0233482D01*
X0151266Y0233616D01*
X0151303Y0233751D01*
X0151336Y0233887D01*
X0151365Y0234025D01*
X0151390Y0234162D01*
X0151412Y0234301D01*
X0151430Y0234440D01*
X0151443Y0234580D01*
X0151453Y0234720D01*
X0151459Y0234860D01*
X0151461Y0235000D01*
X0172461Y0235000D01*
X0102961Y0200500D02*
X0101461Y0200500D01*
X0100961Y0200000D01*
X0081961Y0200000D01*
X0081461Y0200500D01*
X0079961Y0200500D01*
X0079901Y0200498D01*
X0079840Y0200493D01*
X0079781Y0200484D01*
X0079722Y0200471D01*
X0079663Y0200455D01*
X0079606Y0200435D01*
X0079551Y0200412D01*
X0079496Y0200385D01*
X0079444Y0200356D01*
X0079393Y0200323D01*
X0079344Y0200287D01*
X0079298Y0200249D01*
X0079254Y0200207D01*
X0079212Y0200163D01*
X0079174Y0200117D01*
X0079138Y0200068D01*
X0079105Y0200017D01*
X0079076Y0199965D01*
X0079049Y0199910D01*
X0079026Y0199855D01*
X0079006Y0199798D01*
X0078990Y0199739D01*
X0078977Y0199680D01*
X0078968Y0199621D01*
X0078963Y0199560D01*
X0078961Y0199500D01*
X0078961Y0192500D02*
X0078963Y0192440D01*
X0078968Y0192379D01*
X0078977Y0192320D01*
X0078990Y0192261D01*
X0079006Y0192202D01*
X0079026Y0192145D01*
X0079049Y0192090D01*
X0079076Y0192035D01*
X0079105Y0191983D01*
X0079138Y0191932D01*
X0079174Y0191883D01*
X0079212Y0191837D01*
X0079254Y0191793D01*
X0079298Y0191751D01*
X0079344Y0191713D01*
X0079393Y0191677D01*
X0079444Y0191644D01*
X0079496Y0191615D01*
X0079551Y0191588D01*
X0079606Y0191565D01*
X0079663Y0191545D01*
X0079722Y0191529D01*
X0079781Y0191516D01*
X0079840Y0191507D01*
X0079901Y0191502D01*
X0079961Y0191500D01*
X0081461Y0191500D01*
X0081961Y0192000D01*
X0100961Y0192000D01*
X0101461Y0191500D01*
X0102961Y0191500D01*
X0103021Y0191502D01*
X0103082Y0191507D01*
X0103141Y0191516D01*
X0103200Y0191529D01*
X0103259Y0191545D01*
X0103316Y0191565D01*
X0103371Y0191588D01*
X0103426Y0191615D01*
X0103478Y0191644D01*
X0103529Y0191677D01*
X0103578Y0191713D01*
X0103624Y0191751D01*
X0103668Y0191793D01*
X0103710Y0191837D01*
X0103748Y0191883D01*
X0103784Y0191932D01*
X0103817Y0191983D01*
X0103846Y0192035D01*
X0103873Y0192090D01*
X0103896Y0192145D01*
X0103916Y0192202D01*
X0103932Y0192261D01*
X0103945Y0192320D01*
X0103954Y0192379D01*
X0103959Y0192440D01*
X0103961Y0192500D01*
X0103961Y0199500D02*
X0103959Y0199560D01*
X0103954Y0199621D01*
X0103945Y0199680D01*
X0103932Y0199739D01*
X0103916Y0199798D01*
X0103896Y0199855D01*
X0103873Y0199910D01*
X0103846Y0199965D01*
X0103817Y0200017D01*
X0103784Y0200068D01*
X0103748Y0200117D01*
X0103710Y0200163D01*
X0103668Y0200207D01*
X0103624Y0200249D01*
X0103578Y0200287D01*
X0103529Y0200323D01*
X0103478Y0200356D01*
X0103426Y0200385D01*
X0103371Y0200412D01*
X0103316Y0200435D01*
X0103259Y0200455D01*
X0103200Y0200471D01*
X0103141Y0200484D01*
X0103082Y0200493D01*
X0103021Y0200498D01*
X0102961Y0200500D01*
X0102961Y0180500D02*
X0101461Y0180500D01*
X0100961Y0180000D01*
X0081961Y0180000D01*
X0081461Y0180500D01*
X0079961Y0180500D01*
X0079901Y0180498D01*
X0079840Y0180493D01*
X0079781Y0180484D01*
X0079722Y0180471D01*
X0079663Y0180455D01*
X0079606Y0180435D01*
X0079551Y0180412D01*
X0079496Y0180385D01*
X0079444Y0180356D01*
X0079393Y0180323D01*
X0079344Y0180287D01*
X0079298Y0180249D01*
X0079254Y0180207D01*
X0079212Y0180163D01*
X0079174Y0180117D01*
X0079138Y0180068D01*
X0079105Y0180017D01*
X0079076Y0179965D01*
X0079049Y0179910D01*
X0079026Y0179855D01*
X0079006Y0179798D01*
X0078990Y0179739D01*
X0078977Y0179680D01*
X0078968Y0179621D01*
X0078963Y0179560D01*
X0078961Y0179500D01*
X0078961Y0172500D02*
X0078963Y0172440D01*
X0078968Y0172379D01*
X0078977Y0172320D01*
X0078990Y0172261D01*
X0079006Y0172202D01*
X0079026Y0172145D01*
X0079049Y0172090D01*
X0079076Y0172035D01*
X0079105Y0171983D01*
X0079138Y0171932D01*
X0079174Y0171883D01*
X0079212Y0171837D01*
X0079254Y0171793D01*
X0079298Y0171751D01*
X0079344Y0171713D01*
X0079393Y0171677D01*
X0079444Y0171644D01*
X0079496Y0171615D01*
X0079551Y0171588D01*
X0079606Y0171565D01*
X0079663Y0171545D01*
X0079722Y0171529D01*
X0079781Y0171516D01*
X0079840Y0171507D01*
X0079901Y0171502D01*
X0079961Y0171500D01*
X0081461Y0171500D01*
X0081961Y0172000D01*
X0100961Y0172000D01*
X0101461Y0171500D01*
X0102961Y0171500D01*
X0103021Y0171502D01*
X0103082Y0171507D01*
X0103141Y0171516D01*
X0103200Y0171529D01*
X0103259Y0171545D01*
X0103316Y0171565D01*
X0103371Y0171588D01*
X0103426Y0171615D01*
X0103478Y0171644D01*
X0103529Y0171677D01*
X0103578Y0171713D01*
X0103624Y0171751D01*
X0103668Y0171793D01*
X0103710Y0171837D01*
X0103748Y0171883D01*
X0103784Y0171932D01*
X0103817Y0171983D01*
X0103846Y0172035D01*
X0103873Y0172090D01*
X0103896Y0172145D01*
X0103916Y0172202D01*
X0103932Y0172261D01*
X0103945Y0172320D01*
X0103954Y0172379D01*
X0103959Y0172440D01*
X0103961Y0172500D01*
X0102961Y0170500D02*
X0101461Y0170500D01*
X0100961Y0170000D01*
X0081961Y0170000D01*
X0081461Y0170500D01*
X0079961Y0170500D01*
X0079901Y0170498D01*
X0079840Y0170493D01*
X0079781Y0170484D01*
X0079722Y0170471D01*
X0079663Y0170455D01*
X0079606Y0170435D01*
X0079551Y0170412D01*
X0079496Y0170385D01*
X0079444Y0170356D01*
X0079393Y0170323D01*
X0079344Y0170287D01*
X0079298Y0170249D01*
X0079254Y0170207D01*
X0079212Y0170163D01*
X0079174Y0170117D01*
X0079138Y0170068D01*
X0079105Y0170017D01*
X0079076Y0169965D01*
X0079049Y0169910D01*
X0079026Y0169855D01*
X0079006Y0169798D01*
X0078990Y0169739D01*
X0078977Y0169680D01*
X0078968Y0169621D01*
X0078963Y0169560D01*
X0078961Y0169500D01*
X0078961Y0162500D02*
X0078963Y0162440D01*
X0078968Y0162379D01*
X0078977Y0162320D01*
X0078990Y0162261D01*
X0079006Y0162202D01*
X0079026Y0162145D01*
X0079049Y0162090D01*
X0079076Y0162035D01*
X0079105Y0161983D01*
X0079138Y0161932D01*
X0079174Y0161883D01*
X0079212Y0161837D01*
X0079254Y0161793D01*
X0079298Y0161751D01*
X0079344Y0161713D01*
X0079393Y0161677D01*
X0079444Y0161644D01*
X0079496Y0161615D01*
X0079551Y0161588D01*
X0079606Y0161565D01*
X0079663Y0161545D01*
X0079722Y0161529D01*
X0079781Y0161516D01*
X0079840Y0161507D01*
X0079901Y0161502D01*
X0079961Y0161500D01*
X0081461Y0161500D01*
X0081961Y0162000D01*
X0100961Y0162000D01*
X0101461Y0161500D01*
X0102961Y0161500D01*
X0103021Y0161502D01*
X0103082Y0161507D01*
X0103141Y0161516D01*
X0103200Y0161529D01*
X0103259Y0161545D01*
X0103316Y0161565D01*
X0103371Y0161588D01*
X0103426Y0161615D01*
X0103478Y0161644D01*
X0103529Y0161677D01*
X0103578Y0161713D01*
X0103624Y0161751D01*
X0103668Y0161793D01*
X0103710Y0161837D01*
X0103748Y0161883D01*
X0103784Y0161932D01*
X0103817Y0161983D01*
X0103846Y0162035D01*
X0103873Y0162090D01*
X0103896Y0162145D01*
X0103916Y0162202D01*
X0103932Y0162261D01*
X0103945Y0162320D01*
X0103954Y0162379D01*
X0103959Y0162440D01*
X0103961Y0162500D01*
X0102961Y0160500D02*
X0101461Y0160500D01*
X0100961Y0160000D01*
X0081961Y0160000D01*
X0081461Y0160500D01*
X0079961Y0160500D01*
X0079901Y0160498D01*
X0079840Y0160493D01*
X0079781Y0160484D01*
X0079722Y0160471D01*
X0079663Y0160455D01*
X0079606Y0160435D01*
X0079551Y0160412D01*
X0079496Y0160385D01*
X0079444Y0160356D01*
X0079393Y0160323D01*
X0079344Y0160287D01*
X0079298Y0160249D01*
X0079254Y0160207D01*
X0079212Y0160163D01*
X0079174Y0160117D01*
X0079138Y0160068D01*
X0079105Y0160017D01*
X0079076Y0159965D01*
X0079049Y0159910D01*
X0079026Y0159855D01*
X0079006Y0159798D01*
X0078990Y0159739D01*
X0078977Y0159680D01*
X0078968Y0159621D01*
X0078963Y0159560D01*
X0078961Y0159500D01*
X0078961Y0152500D02*
X0078963Y0152440D01*
X0078968Y0152379D01*
X0078977Y0152320D01*
X0078990Y0152261D01*
X0079006Y0152202D01*
X0079026Y0152145D01*
X0079049Y0152090D01*
X0079076Y0152035D01*
X0079105Y0151983D01*
X0079138Y0151932D01*
X0079174Y0151883D01*
X0079212Y0151837D01*
X0079254Y0151793D01*
X0079298Y0151751D01*
X0079344Y0151713D01*
X0079393Y0151677D01*
X0079444Y0151644D01*
X0079496Y0151615D01*
X0079551Y0151588D01*
X0079606Y0151565D01*
X0079663Y0151545D01*
X0079722Y0151529D01*
X0079781Y0151516D01*
X0079840Y0151507D01*
X0079901Y0151502D01*
X0079961Y0151500D01*
X0081461Y0151500D01*
X0081961Y0152000D01*
X0100961Y0152000D01*
X0101461Y0151500D01*
X0102961Y0151500D01*
X0103021Y0151502D01*
X0103082Y0151507D01*
X0103141Y0151516D01*
X0103200Y0151529D01*
X0103259Y0151545D01*
X0103316Y0151565D01*
X0103371Y0151588D01*
X0103426Y0151615D01*
X0103478Y0151644D01*
X0103529Y0151677D01*
X0103578Y0151713D01*
X0103624Y0151751D01*
X0103668Y0151793D01*
X0103710Y0151837D01*
X0103748Y0151883D01*
X0103784Y0151932D01*
X0103817Y0151983D01*
X0103846Y0152035D01*
X0103873Y0152090D01*
X0103896Y0152145D01*
X0103916Y0152202D01*
X0103932Y0152261D01*
X0103945Y0152320D01*
X0103954Y0152379D01*
X0103959Y0152440D01*
X0103961Y0152500D01*
X0102961Y0150500D02*
X0101461Y0150500D01*
X0100961Y0150000D01*
X0081961Y0150000D01*
X0081461Y0150500D01*
X0079961Y0150500D01*
X0079901Y0150498D01*
X0079840Y0150493D01*
X0079781Y0150484D01*
X0079722Y0150471D01*
X0079663Y0150455D01*
X0079606Y0150435D01*
X0079551Y0150412D01*
X0079496Y0150385D01*
X0079444Y0150356D01*
X0079393Y0150323D01*
X0079344Y0150287D01*
X0079298Y0150249D01*
X0079254Y0150207D01*
X0079212Y0150163D01*
X0079174Y0150117D01*
X0079138Y0150068D01*
X0079105Y0150017D01*
X0079076Y0149965D01*
X0079049Y0149910D01*
X0079026Y0149855D01*
X0079006Y0149798D01*
X0078990Y0149739D01*
X0078977Y0149680D01*
X0078968Y0149621D01*
X0078963Y0149560D01*
X0078961Y0149500D01*
X0078961Y0142500D02*
X0078963Y0142440D01*
X0078968Y0142379D01*
X0078977Y0142320D01*
X0078990Y0142261D01*
X0079006Y0142202D01*
X0079026Y0142145D01*
X0079049Y0142090D01*
X0079076Y0142035D01*
X0079105Y0141983D01*
X0079138Y0141932D01*
X0079174Y0141883D01*
X0079212Y0141837D01*
X0079254Y0141793D01*
X0079298Y0141751D01*
X0079344Y0141713D01*
X0079393Y0141677D01*
X0079444Y0141644D01*
X0079496Y0141615D01*
X0079551Y0141588D01*
X0079606Y0141565D01*
X0079663Y0141545D01*
X0079722Y0141529D01*
X0079781Y0141516D01*
X0079840Y0141507D01*
X0079901Y0141502D01*
X0079961Y0141500D01*
X0081461Y0141500D01*
X0081961Y0142000D01*
X0100961Y0142000D01*
X0101461Y0141500D01*
X0102961Y0141500D01*
X0103021Y0141502D01*
X0103082Y0141507D01*
X0103141Y0141516D01*
X0103200Y0141529D01*
X0103259Y0141545D01*
X0103316Y0141565D01*
X0103371Y0141588D01*
X0103426Y0141615D01*
X0103478Y0141644D01*
X0103529Y0141677D01*
X0103578Y0141713D01*
X0103624Y0141751D01*
X0103668Y0141793D01*
X0103710Y0141837D01*
X0103748Y0141883D01*
X0103784Y0141932D01*
X0103817Y0141983D01*
X0103846Y0142035D01*
X0103873Y0142090D01*
X0103896Y0142145D01*
X0103916Y0142202D01*
X0103932Y0142261D01*
X0103945Y0142320D01*
X0103954Y0142379D01*
X0103959Y0142440D01*
X0103961Y0142500D01*
X0109961Y0141000D02*
X0082961Y0141000D01*
X0082901Y0140998D01*
X0082840Y0140993D01*
X0082781Y0140984D01*
X0082722Y0140971D01*
X0082663Y0140955D01*
X0082606Y0140935D01*
X0082551Y0140912D01*
X0082496Y0140885D01*
X0082444Y0140856D01*
X0082393Y0140823D01*
X0082344Y0140787D01*
X0082298Y0140749D01*
X0082254Y0140707D01*
X0082212Y0140663D01*
X0082174Y0140617D01*
X0082138Y0140568D01*
X0082105Y0140517D01*
X0082076Y0140465D01*
X0082049Y0140410D01*
X0082026Y0140355D01*
X0082006Y0140298D01*
X0081990Y0140239D01*
X0081977Y0140180D01*
X0081968Y0140121D01*
X0081963Y0140060D01*
X0081961Y0140000D01*
X0081961Y0132000D01*
X0081963Y0131940D01*
X0081968Y0131879D01*
X0081977Y0131820D01*
X0081990Y0131761D01*
X0082006Y0131702D01*
X0082026Y0131645D01*
X0082049Y0131590D01*
X0082076Y0131535D01*
X0082105Y0131483D01*
X0082138Y0131432D01*
X0082174Y0131383D01*
X0082212Y0131337D01*
X0082254Y0131293D01*
X0082298Y0131251D01*
X0082344Y0131213D01*
X0082393Y0131177D01*
X0082444Y0131144D01*
X0082496Y0131115D01*
X0082551Y0131088D01*
X0082606Y0131065D01*
X0082663Y0131045D01*
X0082722Y0131029D01*
X0082781Y0131016D01*
X0082840Y0131007D01*
X0082901Y0131002D01*
X0082961Y0131000D01*
X0109961Y0131000D01*
X0110021Y0131002D01*
X0110082Y0131007D01*
X0110141Y0131016D01*
X0110200Y0131029D01*
X0110259Y0131045D01*
X0110316Y0131065D01*
X0110371Y0131088D01*
X0110426Y0131115D01*
X0110478Y0131144D01*
X0110529Y0131177D01*
X0110578Y0131213D01*
X0110624Y0131251D01*
X0110668Y0131293D01*
X0110710Y0131337D01*
X0110748Y0131383D01*
X0110784Y0131432D01*
X0110817Y0131483D01*
X0110846Y0131535D01*
X0110873Y0131590D01*
X0110896Y0131645D01*
X0110916Y0131702D01*
X0110932Y0131761D01*
X0110945Y0131820D01*
X0110954Y0131879D01*
X0110959Y0131940D01*
X0110961Y0132000D01*
X0110961Y0140000D01*
X0110959Y0140060D01*
X0110954Y0140121D01*
X0110945Y0140180D01*
X0110932Y0140239D01*
X0110916Y0140298D01*
X0110896Y0140355D01*
X0110873Y0140410D01*
X0110846Y0140465D01*
X0110817Y0140517D01*
X0110784Y0140568D01*
X0110748Y0140617D01*
X0110710Y0140663D01*
X0110668Y0140707D01*
X0110624Y0140749D01*
X0110578Y0140787D01*
X0110529Y0140823D01*
X0110478Y0140856D01*
X0110426Y0140885D01*
X0110371Y0140912D01*
X0110316Y0140935D01*
X0110259Y0140955D01*
X0110200Y0140971D01*
X0110141Y0140984D01*
X0110082Y0140993D01*
X0110021Y0140998D01*
X0109961Y0141000D01*
X0102461Y0136000D02*
X0097761Y0136000D01*
X0095261Y0136000D02*
X0090461Y0136000D01*
X0088961Y0129500D02*
X0083961Y0129500D01*
X0083874Y0129498D01*
X0083787Y0129492D01*
X0083700Y0129483D01*
X0083614Y0129470D01*
X0083528Y0129453D01*
X0083443Y0129432D01*
X0083360Y0129407D01*
X0083277Y0129379D01*
X0083196Y0129348D01*
X0083116Y0129313D01*
X0083038Y0129274D01*
X0082961Y0129232D01*
X0082886Y0129187D01*
X0082814Y0129138D01*
X0082743Y0129087D01*
X0082675Y0129032D01*
X0082610Y0128975D01*
X0082547Y0128914D01*
X0082486Y0128851D01*
X0082429Y0128786D01*
X0082374Y0128718D01*
X0082323Y0128647D01*
X0082274Y0128575D01*
X0082229Y0128500D01*
X0082187Y0128423D01*
X0082148Y0128345D01*
X0082113Y0128265D01*
X0082082Y0128184D01*
X0082054Y0128101D01*
X0082029Y0128018D01*
X0082008Y0127933D01*
X0081991Y0127847D01*
X0081978Y0127761D01*
X0081969Y0127674D01*
X0081963Y0127587D01*
X0081961Y0127500D01*
X0081961Y0114500D01*
X0081963Y0114413D01*
X0081969Y0114326D01*
X0081978Y0114239D01*
X0081991Y0114153D01*
X0082008Y0114067D01*
X0082029Y0113982D01*
X0082054Y0113899D01*
X0082082Y0113816D01*
X0082113Y0113735D01*
X0082148Y0113655D01*
X0082187Y0113577D01*
X0082229Y0113500D01*
X0082274Y0113425D01*
X0082323Y0113353D01*
X0082374Y0113282D01*
X0082429Y0113214D01*
X0082486Y0113149D01*
X0082547Y0113086D01*
X0082610Y0113025D01*
X0082675Y0112968D01*
X0082743Y0112913D01*
X0082814Y0112862D01*
X0082886Y0112813D01*
X0082961Y0112768D01*
X0083038Y0112726D01*
X0083116Y0112687D01*
X0083196Y0112652D01*
X0083277Y0112621D01*
X0083360Y0112593D01*
X0083443Y0112568D01*
X0083528Y0112547D01*
X0083614Y0112530D01*
X0083700Y0112517D01*
X0083787Y0112508D01*
X0083874Y0112502D01*
X0083961Y0112500D01*
X0088961Y0112500D01*
X0089048Y0112502D01*
X0089135Y0112508D01*
X0089222Y0112517D01*
X0089308Y0112530D01*
X0089394Y0112547D01*
X0089479Y0112568D01*
X0089562Y0112593D01*
X0089645Y0112621D01*
X0089726Y0112652D01*
X0089806Y0112687D01*
X0089884Y0112726D01*
X0089961Y0112768D01*
X0090036Y0112813D01*
X0090108Y0112862D01*
X0090179Y0112913D01*
X0090247Y0112968D01*
X0090312Y0113025D01*
X0090375Y0113086D01*
X0090436Y0113149D01*
X0090493Y0113214D01*
X0090548Y0113282D01*
X0090599Y0113353D01*
X0090648Y0113425D01*
X0090693Y0113500D01*
X0090735Y0113577D01*
X0090774Y0113655D01*
X0090809Y0113735D01*
X0090840Y0113816D01*
X0090868Y0113899D01*
X0090893Y0113982D01*
X0090914Y0114067D01*
X0090931Y0114153D01*
X0090944Y0114239D01*
X0090953Y0114326D01*
X0090959Y0114413D01*
X0090961Y0114500D01*
X0090961Y0127500D01*
X0090959Y0127587D01*
X0090953Y0127674D01*
X0090944Y0127761D01*
X0090931Y0127847D01*
X0090914Y0127933D01*
X0090893Y0128018D01*
X0090868Y0128101D01*
X0090840Y0128184D01*
X0090809Y0128265D01*
X0090774Y0128345D01*
X0090735Y0128423D01*
X0090693Y0128500D01*
X0090648Y0128575D01*
X0090599Y0128647D01*
X0090548Y0128718D01*
X0090493Y0128786D01*
X0090436Y0128851D01*
X0090375Y0128914D01*
X0090312Y0128975D01*
X0090247Y0129032D01*
X0090179Y0129087D01*
X0090108Y0129138D01*
X0090036Y0129187D01*
X0089961Y0129232D01*
X0089884Y0129274D01*
X0089806Y0129313D01*
X0089726Y0129348D01*
X0089645Y0129379D01*
X0089562Y0129407D01*
X0089479Y0129432D01*
X0089394Y0129453D01*
X0089308Y0129470D01*
X0089222Y0129483D01*
X0089135Y0129492D01*
X0089048Y0129498D01*
X0088961Y0129500D01*
X0101961Y0127500D02*
X0101961Y0114500D01*
X0101963Y0114413D01*
X0101969Y0114326D01*
X0101978Y0114239D01*
X0101991Y0114153D01*
X0102008Y0114067D01*
X0102029Y0113982D01*
X0102054Y0113899D01*
X0102082Y0113816D01*
X0102113Y0113735D01*
X0102148Y0113655D01*
X0102187Y0113577D01*
X0102229Y0113500D01*
X0102274Y0113425D01*
X0102323Y0113353D01*
X0102374Y0113282D01*
X0102429Y0113214D01*
X0102486Y0113149D01*
X0102547Y0113086D01*
X0102610Y0113025D01*
X0102675Y0112968D01*
X0102743Y0112913D01*
X0102814Y0112862D01*
X0102886Y0112813D01*
X0102961Y0112768D01*
X0103038Y0112726D01*
X0103116Y0112687D01*
X0103196Y0112652D01*
X0103277Y0112621D01*
X0103360Y0112593D01*
X0103443Y0112568D01*
X0103528Y0112547D01*
X0103614Y0112530D01*
X0103700Y0112517D01*
X0103787Y0112508D01*
X0103874Y0112502D01*
X0103961Y0112500D01*
X0108961Y0112500D01*
X0109048Y0112502D01*
X0109135Y0112508D01*
X0109222Y0112517D01*
X0109308Y0112530D01*
X0109394Y0112547D01*
X0109479Y0112568D01*
X0109562Y0112593D01*
X0109645Y0112621D01*
X0109726Y0112652D01*
X0109806Y0112687D01*
X0109884Y0112726D01*
X0109961Y0112768D01*
X0110036Y0112813D01*
X0110108Y0112862D01*
X0110179Y0112913D01*
X0110247Y0112968D01*
X0110312Y0113025D01*
X0110375Y0113086D01*
X0110436Y0113149D01*
X0110493Y0113214D01*
X0110548Y0113282D01*
X0110599Y0113353D01*
X0110648Y0113425D01*
X0110693Y0113500D01*
X0110735Y0113577D01*
X0110774Y0113655D01*
X0110809Y0113735D01*
X0110840Y0113816D01*
X0110868Y0113899D01*
X0110893Y0113982D01*
X0110914Y0114067D01*
X0110931Y0114153D01*
X0110944Y0114239D01*
X0110953Y0114326D01*
X0110959Y0114413D01*
X0110961Y0114500D01*
X0110961Y0127500D01*
X0110959Y0127587D01*
X0110953Y0127674D01*
X0110944Y0127761D01*
X0110931Y0127847D01*
X0110914Y0127933D01*
X0110893Y0128018D01*
X0110868Y0128101D01*
X0110840Y0128184D01*
X0110809Y0128265D01*
X0110774Y0128345D01*
X0110735Y0128423D01*
X0110693Y0128500D01*
X0110648Y0128575D01*
X0110599Y0128647D01*
X0110548Y0128718D01*
X0110493Y0128786D01*
X0110436Y0128851D01*
X0110375Y0128914D01*
X0110312Y0128975D01*
X0110247Y0129032D01*
X0110179Y0129087D01*
X0110108Y0129138D01*
X0110036Y0129187D01*
X0109961Y0129232D01*
X0109884Y0129274D01*
X0109806Y0129313D01*
X0109726Y0129348D01*
X0109645Y0129379D01*
X0109562Y0129407D01*
X0109479Y0129432D01*
X0109394Y0129453D01*
X0109308Y0129470D01*
X0109222Y0129483D01*
X0109135Y0129492D01*
X0109048Y0129498D01*
X0108961Y0129500D01*
X0103961Y0129500D01*
X0103874Y0129498D01*
X0103787Y0129492D01*
X0103700Y0129483D01*
X0103614Y0129470D01*
X0103528Y0129453D01*
X0103443Y0129432D01*
X0103360Y0129407D01*
X0103277Y0129379D01*
X0103196Y0129348D01*
X0103116Y0129313D01*
X0103038Y0129274D01*
X0102961Y0129232D01*
X0102886Y0129187D01*
X0102814Y0129138D01*
X0102743Y0129087D01*
X0102675Y0129032D01*
X0102610Y0128975D01*
X0102547Y0128914D01*
X0102486Y0128851D01*
X0102429Y0128786D01*
X0102374Y0128718D01*
X0102323Y0128647D01*
X0102274Y0128575D01*
X0102229Y0128500D01*
X0102187Y0128423D01*
X0102148Y0128345D01*
X0102113Y0128265D01*
X0102082Y0128184D01*
X0102054Y0128101D01*
X0102029Y0128018D01*
X0102008Y0127933D01*
X0101991Y0127847D01*
X0101978Y0127761D01*
X0101969Y0127674D01*
X0101963Y0127587D01*
X0101961Y0127500D01*
X0103961Y0149500D02*
X0103959Y0149560D01*
X0103954Y0149621D01*
X0103945Y0149680D01*
X0103932Y0149739D01*
X0103916Y0149798D01*
X0103896Y0149855D01*
X0103873Y0149910D01*
X0103846Y0149965D01*
X0103817Y0150017D01*
X0103784Y0150068D01*
X0103748Y0150117D01*
X0103710Y0150163D01*
X0103668Y0150207D01*
X0103624Y0150249D01*
X0103578Y0150287D01*
X0103529Y0150323D01*
X0103478Y0150356D01*
X0103426Y0150385D01*
X0103371Y0150412D01*
X0103316Y0150435D01*
X0103259Y0150455D01*
X0103200Y0150471D01*
X0103141Y0150484D01*
X0103082Y0150493D01*
X0103021Y0150498D01*
X0102961Y0150500D01*
X0103961Y0159500D02*
X0103959Y0159560D01*
X0103954Y0159621D01*
X0103945Y0159680D01*
X0103932Y0159739D01*
X0103916Y0159798D01*
X0103896Y0159855D01*
X0103873Y0159910D01*
X0103846Y0159965D01*
X0103817Y0160017D01*
X0103784Y0160068D01*
X0103748Y0160117D01*
X0103710Y0160163D01*
X0103668Y0160207D01*
X0103624Y0160249D01*
X0103578Y0160287D01*
X0103529Y0160323D01*
X0103478Y0160356D01*
X0103426Y0160385D01*
X0103371Y0160412D01*
X0103316Y0160435D01*
X0103259Y0160455D01*
X0103200Y0160471D01*
X0103141Y0160484D01*
X0103082Y0160493D01*
X0103021Y0160498D01*
X0102961Y0160500D01*
X0103961Y0169500D02*
X0103959Y0169560D01*
X0103954Y0169621D01*
X0103945Y0169680D01*
X0103932Y0169739D01*
X0103916Y0169798D01*
X0103896Y0169855D01*
X0103873Y0169910D01*
X0103846Y0169965D01*
X0103817Y0170017D01*
X0103784Y0170068D01*
X0103748Y0170117D01*
X0103710Y0170163D01*
X0103668Y0170207D01*
X0103624Y0170249D01*
X0103578Y0170287D01*
X0103529Y0170323D01*
X0103478Y0170356D01*
X0103426Y0170385D01*
X0103371Y0170412D01*
X0103316Y0170435D01*
X0103259Y0170455D01*
X0103200Y0170471D01*
X0103141Y0170484D01*
X0103082Y0170493D01*
X0103021Y0170498D01*
X0102961Y0170500D01*
X0103961Y0179500D02*
X0103959Y0179560D01*
X0103954Y0179621D01*
X0103945Y0179680D01*
X0103932Y0179739D01*
X0103916Y0179798D01*
X0103896Y0179855D01*
X0103873Y0179910D01*
X0103846Y0179965D01*
X0103817Y0180017D01*
X0103784Y0180068D01*
X0103748Y0180117D01*
X0103710Y0180163D01*
X0103668Y0180207D01*
X0103624Y0180249D01*
X0103578Y0180287D01*
X0103529Y0180323D01*
X0103478Y0180356D01*
X0103426Y0180385D01*
X0103371Y0180412D01*
X0103316Y0180435D01*
X0103259Y0180455D01*
X0103200Y0180471D01*
X0103141Y0180484D01*
X0103082Y0180493D01*
X0103021Y0180498D01*
X0102961Y0180500D01*
X0103461Y0102500D02*
X0103461Y0079500D01*
X0103459Y0079330D01*
X0103453Y0079159D01*
X0103442Y0078989D01*
X0103428Y0078819D01*
X0103409Y0078650D01*
X0103386Y0078481D01*
X0103360Y0078312D01*
X0103329Y0078145D01*
X0103294Y0077978D01*
X0103254Y0077812D01*
X0103211Y0077647D01*
X0103164Y0077483D01*
X0103113Y0077321D01*
X0103058Y0077159D01*
X0102999Y0076999D01*
X0102936Y0076841D01*
X0102870Y0076684D01*
X0102799Y0076529D01*
X0102725Y0076375D01*
X0102647Y0076224D01*
X0102565Y0076074D01*
X0102480Y0075926D01*
X0102391Y0075781D01*
X0102299Y0075638D01*
X0102203Y0075497D01*
X0102104Y0075358D01*
X0102001Y0075222D01*
X0101896Y0075088D01*
X0101787Y0074957D01*
X0101674Y0074829D01*
X0101559Y0074703D01*
X0101441Y0074580D01*
X0101320Y0074461D01*
X0101195Y0074344D01*
X0101068Y0074230D01*
X0100939Y0074119D01*
X0100806Y0074012D01*
X0100671Y0073908D01*
X0100534Y0073807D01*
X0100394Y0073709D01*
X0100252Y0073615D01*
X0100108Y0073525D01*
X0099961Y0073438D01*
X0099812Y0073354D01*
X0099662Y0073275D01*
X0099509Y0073199D01*
X0099355Y0073126D01*
X0099199Y0073058D01*
X0099041Y0072993D01*
X0098882Y0072932D01*
X0098721Y0072875D01*
X0098559Y0072822D01*
X0098396Y0072773D01*
X0098232Y0072728D01*
X0098066Y0072687D01*
X0097900Y0072649D01*
X0097732Y0072616D01*
X0097564Y0072588D01*
X0097396Y0072563D01*
X0097227Y0072542D01*
X0097057Y0072525D01*
X0096887Y0072513D01*
X0096717Y0072505D01*
X0096546Y0072501D01*
X0096376Y0072501D01*
X0096205Y0072505D01*
X0096035Y0072513D01*
X0095865Y0072525D01*
X0095695Y0072542D01*
X0095526Y0072563D01*
X0095358Y0072588D01*
X0095190Y0072616D01*
X0095022Y0072649D01*
X0094856Y0072687D01*
X0094690Y0072728D01*
X0094526Y0072773D01*
X0094363Y0072822D01*
X0094201Y0072875D01*
X0094040Y0072932D01*
X0093881Y0072993D01*
X0093723Y0073058D01*
X0093567Y0073126D01*
X0093413Y0073199D01*
X0093260Y0073275D01*
X0093110Y0073354D01*
X0092961Y0073438D01*
X0092814Y0073525D01*
X0092670Y0073615D01*
X0092528Y0073709D01*
X0092388Y0073807D01*
X0092251Y0073908D01*
X0092116Y0074012D01*
X0091983Y0074119D01*
X0091854Y0074230D01*
X0091727Y0074344D01*
X0091602Y0074461D01*
X0091481Y0074580D01*
X0091363Y0074703D01*
X0091248Y0074829D01*
X0091135Y0074957D01*
X0091026Y0075088D01*
X0090921Y0075222D01*
X0090818Y0075358D01*
X0090719Y0075497D01*
X0090623Y0075638D01*
X0090531Y0075781D01*
X0090442Y0075926D01*
X0090357Y0076074D01*
X0090275Y0076224D01*
X0090197Y0076375D01*
X0090123Y0076529D01*
X0090052Y0076684D01*
X0089986Y0076841D01*
X0089923Y0076999D01*
X0089864Y0077159D01*
X0089809Y0077321D01*
X0089758Y0077483D01*
X0089711Y0077647D01*
X0089668Y0077812D01*
X0089628Y0077978D01*
X0089593Y0078145D01*
X0089562Y0078312D01*
X0089536Y0078481D01*
X0089513Y0078650D01*
X0089494Y0078819D01*
X0089480Y0078989D01*
X0089469Y0079159D01*
X0089463Y0079330D01*
X0089461Y0079500D01*
X0089461Y0102500D01*
X0089463Y0102670D01*
X0089469Y0102841D01*
X0089480Y0103011D01*
X0089494Y0103181D01*
X0089513Y0103350D01*
X0089536Y0103519D01*
X0089562Y0103688D01*
X0089593Y0103855D01*
X0089628Y0104022D01*
X0089668Y0104188D01*
X0089711Y0104353D01*
X0089758Y0104517D01*
X0089809Y0104679D01*
X0089864Y0104841D01*
X0089923Y0105001D01*
X0089986Y0105159D01*
X0090052Y0105316D01*
X0090123Y0105471D01*
X0090197Y0105625D01*
X0090275Y0105776D01*
X0090357Y0105926D01*
X0090442Y0106074D01*
X0090531Y0106219D01*
X0090623Y0106362D01*
X0090719Y0106503D01*
X0090818Y0106642D01*
X0090921Y0106778D01*
X0091026Y0106912D01*
X0091135Y0107043D01*
X0091248Y0107171D01*
X0091363Y0107297D01*
X0091481Y0107420D01*
X0091602Y0107539D01*
X0091727Y0107656D01*
X0091854Y0107770D01*
X0091983Y0107881D01*
X0092116Y0107988D01*
X0092251Y0108092D01*
X0092388Y0108193D01*
X0092528Y0108291D01*
X0092670Y0108385D01*
X0092814Y0108475D01*
X0092961Y0108562D01*
X0093110Y0108646D01*
X0093260Y0108725D01*
X0093413Y0108801D01*
X0093567Y0108874D01*
X0093723Y0108942D01*
X0093881Y0109007D01*
X0094040Y0109068D01*
X0094201Y0109125D01*
X0094363Y0109178D01*
X0094526Y0109227D01*
X0094690Y0109272D01*
X0094856Y0109313D01*
X0095022Y0109351D01*
X0095190Y0109384D01*
X0095358Y0109412D01*
X0095526Y0109437D01*
X0095695Y0109458D01*
X0095865Y0109475D01*
X0096035Y0109487D01*
X0096205Y0109495D01*
X0096376Y0109499D01*
X0096546Y0109499D01*
X0096717Y0109495D01*
X0096887Y0109487D01*
X0097057Y0109475D01*
X0097227Y0109458D01*
X0097396Y0109437D01*
X0097564Y0109412D01*
X0097732Y0109384D01*
X0097900Y0109351D01*
X0098066Y0109313D01*
X0098232Y0109272D01*
X0098396Y0109227D01*
X0098559Y0109178D01*
X0098721Y0109125D01*
X0098882Y0109068D01*
X0099041Y0109007D01*
X0099199Y0108942D01*
X0099355Y0108874D01*
X0099509Y0108801D01*
X0099662Y0108725D01*
X0099812Y0108646D01*
X0099961Y0108562D01*
X0100108Y0108475D01*
X0100252Y0108385D01*
X0100394Y0108291D01*
X0100534Y0108193D01*
X0100671Y0108092D01*
X0100806Y0107988D01*
X0100939Y0107881D01*
X0101068Y0107770D01*
X0101195Y0107656D01*
X0101320Y0107539D01*
X0101441Y0107420D01*
X0101559Y0107297D01*
X0101674Y0107171D01*
X0101787Y0107043D01*
X0101896Y0106912D01*
X0102001Y0106778D01*
X0102104Y0106642D01*
X0102203Y0106503D01*
X0102299Y0106362D01*
X0102391Y0106219D01*
X0102480Y0106074D01*
X0102565Y0105926D01*
X0102647Y0105776D01*
X0102725Y0105625D01*
X0102799Y0105471D01*
X0102870Y0105316D01*
X0102936Y0105159D01*
X0102999Y0105001D01*
X0103058Y0104841D01*
X0103113Y0104679D01*
X0103164Y0104517D01*
X0103211Y0104353D01*
X0103254Y0104188D01*
X0103294Y0104022D01*
X0103329Y0103855D01*
X0103360Y0103688D01*
X0103386Y0103519D01*
X0103409Y0103350D01*
X0103428Y0103181D01*
X0103442Y0103011D01*
X0103453Y0102841D01*
X0103459Y0102670D01*
X0103461Y0102500D01*
X0096461Y0096000D02*
X0096461Y0093500D01*
X0092961Y0093500D01*
X0092961Y0092000D02*
X0099961Y0092000D01*
X0099961Y0090000D01*
X0092961Y0090000D01*
X0092961Y0092000D01*
X0092961Y0088500D02*
X0096461Y0088500D01*
X0096461Y0086000D01*
X0096461Y0088500D02*
X0099961Y0088500D01*
X0099961Y0093500D02*
X0096461Y0093500D01*
X0080961Y0082500D02*
X0080961Y0081000D01*
X0080461Y0080500D01*
X0080461Y0061500D01*
X0080961Y0061000D01*
X0080961Y0059500D01*
X0080959Y0059440D01*
X0080954Y0059379D01*
X0080945Y0059320D01*
X0080932Y0059261D01*
X0080916Y0059202D01*
X0080896Y0059145D01*
X0080873Y0059090D01*
X0080846Y0059035D01*
X0080817Y0058983D01*
X0080784Y0058932D01*
X0080748Y0058883D01*
X0080710Y0058837D01*
X0080668Y0058793D01*
X0080624Y0058751D01*
X0080578Y0058713D01*
X0080529Y0058677D01*
X0080478Y0058644D01*
X0080426Y0058615D01*
X0080371Y0058588D01*
X0080316Y0058565D01*
X0080259Y0058545D01*
X0080200Y0058529D01*
X0080141Y0058516D01*
X0080082Y0058507D01*
X0080021Y0058502D01*
X0079961Y0058500D01*
X0081961Y0057500D02*
X0081961Y0056000D01*
X0082461Y0055500D01*
X0082461Y0036500D01*
X0081961Y0036000D01*
X0081961Y0034500D01*
X0081963Y0034440D01*
X0081968Y0034379D01*
X0081977Y0034320D01*
X0081990Y0034261D01*
X0082006Y0034202D01*
X0082026Y0034145D01*
X0082049Y0034090D01*
X0082076Y0034035D01*
X0082105Y0033983D01*
X0082138Y0033932D01*
X0082174Y0033883D01*
X0082212Y0033837D01*
X0082254Y0033793D01*
X0082298Y0033751D01*
X0082344Y0033713D01*
X0082393Y0033677D01*
X0082444Y0033644D01*
X0082496Y0033615D01*
X0082551Y0033588D01*
X0082606Y0033565D01*
X0082663Y0033545D01*
X0082722Y0033529D01*
X0082781Y0033516D01*
X0082840Y0033507D01*
X0082901Y0033502D01*
X0082961Y0033500D01*
X0089961Y0033500D02*
X0090021Y0033502D01*
X0090082Y0033507D01*
X0090141Y0033516D01*
X0090200Y0033529D01*
X0090259Y0033545D01*
X0090316Y0033565D01*
X0090371Y0033588D01*
X0090426Y0033615D01*
X0090478Y0033644D01*
X0090529Y0033677D01*
X0090578Y0033713D01*
X0090624Y0033751D01*
X0090668Y0033793D01*
X0090710Y0033837D01*
X0090748Y0033883D01*
X0090784Y0033932D01*
X0090817Y0033983D01*
X0090846Y0034035D01*
X0090873Y0034090D01*
X0090896Y0034145D01*
X0090916Y0034202D01*
X0090932Y0034261D01*
X0090945Y0034320D01*
X0090954Y0034379D01*
X0090959Y0034440D01*
X0090961Y0034500D01*
X0090961Y0036000D01*
X0090461Y0036500D01*
X0090461Y0055500D01*
X0090961Y0056000D01*
X0090961Y0057500D01*
X0090959Y0057560D01*
X0090954Y0057621D01*
X0090945Y0057680D01*
X0090932Y0057739D01*
X0090916Y0057798D01*
X0090896Y0057855D01*
X0090873Y0057910D01*
X0090846Y0057965D01*
X0090817Y0058017D01*
X0090784Y0058068D01*
X0090748Y0058117D01*
X0090710Y0058163D01*
X0090668Y0058207D01*
X0090624Y0058249D01*
X0090578Y0058287D01*
X0090529Y0058323D01*
X0090478Y0058356D01*
X0090426Y0058385D01*
X0090371Y0058412D01*
X0090316Y0058435D01*
X0090259Y0058455D01*
X0090200Y0058471D01*
X0090141Y0058484D01*
X0090082Y0058493D01*
X0090021Y0058498D01*
X0089961Y0058500D01*
X0082961Y0058500D02*
X0082901Y0058498D01*
X0082840Y0058493D01*
X0082781Y0058484D01*
X0082722Y0058471D01*
X0082663Y0058455D01*
X0082606Y0058435D01*
X0082551Y0058412D01*
X0082496Y0058385D01*
X0082444Y0058356D01*
X0082393Y0058323D01*
X0082344Y0058287D01*
X0082298Y0058249D01*
X0082254Y0058207D01*
X0082212Y0058163D01*
X0082174Y0058117D01*
X0082138Y0058068D01*
X0082105Y0058017D01*
X0082076Y0057965D01*
X0082049Y0057910D01*
X0082026Y0057855D01*
X0082006Y0057798D01*
X0081990Y0057739D01*
X0081977Y0057680D01*
X0081968Y0057621D01*
X0081963Y0057560D01*
X0081961Y0057500D01*
X0072961Y0058500D02*
X0072901Y0058502D01*
X0072840Y0058507D01*
X0072781Y0058516D01*
X0072722Y0058529D01*
X0072663Y0058545D01*
X0072606Y0058565D01*
X0072551Y0058588D01*
X0072496Y0058615D01*
X0072444Y0058644D01*
X0072393Y0058677D01*
X0072344Y0058713D01*
X0072298Y0058751D01*
X0072254Y0058793D01*
X0072212Y0058837D01*
X0072174Y0058883D01*
X0072138Y0058932D01*
X0072105Y0058983D01*
X0072076Y0059035D01*
X0072049Y0059090D01*
X0072026Y0059145D01*
X0072006Y0059202D01*
X0071990Y0059261D01*
X0071977Y0059320D01*
X0071968Y0059379D01*
X0071963Y0059440D01*
X0071961Y0059500D01*
X0071961Y0061000D01*
X0072461Y0061500D01*
X0072461Y0080500D01*
X0071961Y0081000D01*
X0071961Y0082500D01*
X0071963Y0082560D01*
X0071968Y0082621D01*
X0071977Y0082680D01*
X0071990Y0082739D01*
X0072006Y0082798D01*
X0072026Y0082855D01*
X0072049Y0082910D01*
X0072076Y0082965D01*
X0072105Y0083017D01*
X0072138Y0083068D01*
X0072174Y0083117D01*
X0072212Y0083163D01*
X0072254Y0083207D01*
X0072298Y0083249D01*
X0072344Y0083287D01*
X0072393Y0083323D01*
X0072444Y0083356D01*
X0072496Y0083385D01*
X0072551Y0083412D01*
X0072606Y0083435D01*
X0072663Y0083455D01*
X0072722Y0083471D01*
X0072781Y0083484D01*
X0072840Y0083493D01*
X0072901Y0083498D01*
X0072961Y0083500D01*
X0079961Y0083500D02*
X0080021Y0083498D01*
X0080082Y0083493D01*
X0080141Y0083484D01*
X0080200Y0083471D01*
X0080259Y0083455D01*
X0080316Y0083435D01*
X0080371Y0083412D01*
X0080426Y0083385D01*
X0080478Y0083356D01*
X0080529Y0083323D01*
X0080578Y0083287D01*
X0080624Y0083249D01*
X0080668Y0083207D01*
X0080710Y0083163D01*
X0080748Y0083117D01*
X0080784Y0083068D01*
X0080817Y0083017D01*
X0080846Y0082965D01*
X0080873Y0082910D01*
X0080896Y0082855D01*
X0080916Y0082798D01*
X0080932Y0082739D01*
X0080945Y0082680D01*
X0080954Y0082621D01*
X0080959Y0082560D01*
X0080961Y0082500D01*
X0075461Y0094000D02*
X0073961Y0094000D01*
X0073461Y0094500D01*
X0054461Y0094500D01*
X0053961Y0094000D01*
X0052461Y0094000D01*
X0052401Y0094002D01*
X0052340Y0094007D01*
X0052281Y0094016D01*
X0052222Y0094029D01*
X0052163Y0094045D01*
X0052106Y0094065D01*
X0052051Y0094088D01*
X0051996Y0094115D01*
X0051944Y0094144D01*
X0051893Y0094177D01*
X0051844Y0094213D01*
X0051798Y0094251D01*
X0051754Y0094293D01*
X0051712Y0094337D01*
X0051674Y0094383D01*
X0051638Y0094432D01*
X0051605Y0094483D01*
X0051576Y0094535D01*
X0051549Y0094590D01*
X0051526Y0094645D01*
X0051506Y0094702D01*
X0051490Y0094761D01*
X0051477Y0094820D01*
X0051468Y0094879D01*
X0051463Y0094940D01*
X0051461Y0095000D01*
X0051461Y0102000D02*
X0051463Y0102060D01*
X0051468Y0102121D01*
X0051477Y0102180D01*
X0051490Y0102239D01*
X0051506Y0102298D01*
X0051526Y0102355D01*
X0051549Y0102410D01*
X0051576Y0102465D01*
X0051605Y0102517D01*
X0051638Y0102568D01*
X0051674Y0102617D01*
X0051712Y0102663D01*
X0051754Y0102707D01*
X0051798Y0102749D01*
X0051844Y0102787D01*
X0051893Y0102823D01*
X0051944Y0102856D01*
X0051996Y0102885D01*
X0052051Y0102912D01*
X0052106Y0102935D01*
X0052163Y0102955D01*
X0052222Y0102971D01*
X0052281Y0102984D01*
X0052340Y0102993D01*
X0052401Y0102998D01*
X0052461Y0103000D01*
X0053961Y0103000D01*
X0054461Y0102500D01*
X0073461Y0102500D01*
X0073961Y0103000D01*
X0075461Y0103000D01*
X0075521Y0102998D01*
X0075582Y0102993D01*
X0075641Y0102984D01*
X0075700Y0102971D01*
X0075759Y0102955D01*
X0075816Y0102935D01*
X0075871Y0102912D01*
X0075926Y0102885D01*
X0075978Y0102856D01*
X0076029Y0102823D01*
X0076078Y0102787D01*
X0076124Y0102749D01*
X0076168Y0102707D01*
X0076210Y0102663D01*
X0076248Y0102617D01*
X0076284Y0102568D01*
X0076317Y0102517D01*
X0076346Y0102465D01*
X0076373Y0102410D01*
X0076396Y0102355D01*
X0076416Y0102298D01*
X0076432Y0102239D01*
X0076445Y0102180D01*
X0076454Y0102121D01*
X0076459Y0102060D01*
X0076461Y0102000D01*
X0076461Y0095000D02*
X0076459Y0094940D01*
X0076454Y0094879D01*
X0076445Y0094820D01*
X0076432Y0094761D01*
X0076416Y0094702D01*
X0076396Y0094645D01*
X0076373Y0094590D01*
X0076346Y0094535D01*
X0076317Y0094483D01*
X0076284Y0094432D01*
X0076248Y0094383D01*
X0076210Y0094337D01*
X0076168Y0094293D01*
X0076124Y0094251D01*
X0076078Y0094213D01*
X0076029Y0094177D01*
X0075978Y0094144D01*
X0075926Y0094115D01*
X0075871Y0094088D01*
X0075816Y0094065D01*
X0075759Y0094045D01*
X0075700Y0094029D01*
X0075641Y0094016D01*
X0075582Y0094007D01*
X0075521Y0094002D01*
X0075461Y0094000D01*
X0096961Y0032500D02*
X0096961Y0031000D01*
X0097461Y0030500D01*
X0097461Y0011500D01*
X0096961Y0011000D01*
X0096961Y0009500D01*
X0096963Y0009440D01*
X0096968Y0009379D01*
X0096977Y0009320D01*
X0096990Y0009261D01*
X0097006Y0009202D01*
X0097026Y0009145D01*
X0097049Y0009090D01*
X0097076Y0009035D01*
X0097105Y0008983D01*
X0097138Y0008932D01*
X0097174Y0008883D01*
X0097212Y0008837D01*
X0097254Y0008793D01*
X0097298Y0008751D01*
X0097344Y0008713D01*
X0097393Y0008677D01*
X0097444Y0008644D01*
X0097496Y0008615D01*
X0097551Y0008588D01*
X0097606Y0008565D01*
X0097663Y0008545D01*
X0097722Y0008529D01*
X0097781Y0008516D01*
X0097840Y0008507D01*
X0097901Y0008502D01*
X0097961Y0008500D01*
X0104961Y0008500D02*
X0105021Y0008502D01*
X0105082Y0008507D01*
X0105141Y0008516D01*
X0105200Y0008529D01*
X0105259Y0008545D01*
X0105316Y0008565D01*
X0105371Y0008588D01*
X0105426Y0008615D01*
X0105478Y0008644D01*
X0105529Y0008677D01*
X0105578Y0008713D01*
X0105624Y0008751D01*
X0105668Y0008793D01*
X0105710Y0008837D01*
X0105748Y0008883D01*
X0105784Y0008932D01*
X0105817Y0008983D01*
X0105846Y0009035D01*
X0105873Y0009090D01*
X0105896Y0009145D01*
X0105916Y0009202D01*
X0105932Y0009261D01*
X0105945Y0009320D01*
X0105954Y0009379D01*
X0105959Y0009440D01*
X0105961Y0009500D01*
X0105961Y0011000D01*
X0105461Y0011500D01*
X0105461Y0030500D01*
X0105961Y0031000D01*
X0105961Y0032500D01*
X0105959Y0032560D01*
X0105954Y0032621D01*
X0105945Y0032680D01*
X0105932Y0032739D01*
X0105916Y0032798D01*
X0105896Y0032855D01*
X0105873Y0032910D01*
X0105846Y0032965D01*
X0105817Y0033017D01*
X0105784Y0033068D01*
X0105748Y0033117D01*
X0105710Y0033163D01*
X0105668Y0033207D01*
X0105624Y0033249D01*
X0105578Y0033287D01*
X0105529Y0033323D01*
X0105478Y0033356D01*
X0105426Y0033385D01*
X0105371Y0033412D01*
X0105316Y0033435D01*
X0105259Y0033455D01*
X0105200Y0033471D01*
X0105141Y0033484D01*
X0105082Y0033493D01*
X0105021Y0033498D01*
X0104961Y0033500D01*
X0097961Y0033500D02*
X0097901Y0033498D01*
X0097840Y0033493D01*
X0097781Y0033484D01*
X0097722Y0033471D01*
X0097663Y0033455D01*
X0097606Y0033435D01*
X0097551Y0033412D01*
X0097496Y0033385D01*
X0097444Y0033356D01*
X0097393Y0033323D01*
X0097344Y0033287D01*
X0097298Y0033249D01*
X0097254Y0033207D01*
X0097212Y0033163D01*
X0097174Y0033117D01*
X0097138Y0033068D01*
X0097105Y0033017D01*
X0097076Y0032965D01*
X0097049Y0032910D01*
X0097026Y0032855D01*
X0097006Y0032798D01*
X0096990Y0032739D01*
X0096977Y0032680D01*
X0096968Y0032621D01*
X0096963Y0032560D01*
X0096961Y0032500D01*
X0062461Y0026500D02*
X0061461Y0026500D01*
X0061461Y0025500D01*
X0061461Y0026500D02*
X0060461Y0026500D01*
X0061461Y0026500D02*
X0061461Y0027500D01*
X0046461Y0021000D02*
X0046464Y0021245D01*
X0046473Y0021491D01*
X0046488Y0021736D01*
X0046509Y0021980D01*
X0046536Y0022224D01*
X0046569Y0022467D01*
X0046608Y0022710D01*
X0046653Y0022951D01*
X0046704Y0023191D01*
X0046761Y0023430D01*
X0046823Y0023667D01*
X0046892Y0023903D01*
X0046966Y0024137D01*
X0047046Y0024369D01*
X0047131Y0024599D01*
X0047222Y0024827D01*
X0047319Y0025052D01*
X0047421Y0025276D01*
X0047529Y0025496D01*
X0047642Y0025714D01*
X0047760Y0025929D01*
X0047884Y0026141D01*
X0048012Y0026350D01*
X0048146Y0026556D01*
X0048285Y0026758D01*
X0048429Y0026957D01*
X0048578Y0027152D01*
X0048731Y0027344D01*
X0048889Y0027532D01*
X0049051Y0027716D01*
X0049219Y0027895D01*
X0049390Y0028071D01*
X0049566Y0028242D01*
X0049745Y0028410D01*
X0049929Y0028572D01*
X0050117Y0028730D01*
X0050309Y0028883D01*
X0050504Y0029032D01*
X0050703Y0029176D01*
X0050905Y0029315D01*
X0051111Y0029449D01*
X0051320Y0029577D01*
X0051532Y0029701D01*
X0051747Y0029819D01*
X0051965Y0029932D01*
X0052185Y0030040D01*
X0052409Y0030142D01*
X0052634Y0030239D01*
X0052862Y0030330D01*
X0053092Y0030415D01*
X0053324Y0030495D01*
X0053558Y0030569D01*
X0053794Y0030638D01*
X0054031Y0030700D01*
X0054270Y0030757D01*
X0054510Y0030808D01*
X0054751Y0030853D01*
X0054994Y0030892D01*
X0055237Y0030925D01*
X0055481Y0030952D01*
X0055725Y0030973D01*
X0055970Y0030988D01*
X0056216Y0030997D01*
X0056461Y0031000D01*
X0056706Y0030997D01*
X0056952Y0030988D01*
X0057197Y0030973D01*
X0057441Y0030952D01*
X0057685Y0030925D01*
X0057928Y0030892D01*
X0058171Y0030853D01*
X0058412Y0030808D01*
X0058652Y0030757D01*
X0058891Y0030700D01*
X0059128Y0030638D01*
X0059364Y0030569D01*
X0059598Y0030495D01*
X0059830Y0030415D01*
X0060060Y0030330D01*
X0060288Y0030239D01*
X0060513Y0030142D01*
X0060737Y0030040D01*
X0060957Y0029932D01*
X0061175Y0029819D01*
X0061390Y0029701D01*
X0061602Y0029577D01*
X0061811Y0029449D01*
X0062017Y0029315D01*
X0062219Y0029176D01*
X0062418Y0029032D01*
X0062613Y0028883D01*
X0062805Y0028730D01*
X0062993Y0028572D01*
X0063177Y0028410D01*
X0063356Y0028242D01*
X0063532Y0028071D01*
X0063703Y0027895D01*
X0063871Y0027716D01*
X0064033Y0027532D01*
X0064191Y0027344D01*
X0064344Y0027152D01*
X0064493Y0026957D01*
X0064637Y0026758D01*
X0064776Y0026556D01*
X0064910Y0026350D01*
X0065038Y0026141D01*
X0065162Y0025929D01*
X0065280Y0025714D01*
X0065393Y0025496D01*
X0065501Y0025276D01*
X0065603Y0025052D01*
X0065700Y0024827D01*
X0065791Y0024599D01*
X0065876Y0024369D01*
X0065956Y0024137D01*
X0066030Y0023903D01*
X0066099Y0023667D01*
X0066161Y0023430D01*
X0066218Y0023191D01*
X0066269Y0022951D01*
X0066314Y0022710D01*
X0066353Y0022467D01*
X0066386Y0022224D01*
X0066413Y0021980D01*
X0066434Y0021736D01*
X0066449Y0021491D01*
X0066458Y0021245D01*
X0066461Y0021000D01*
X0066458Y0020755D01*
X0066449Y0020509D01*
X0066434Y0020264D01*
X0066413Y0020020D01*
X0066386Y0019776D01*
X0066353Y0019533D01*
X0066314Y0019290D01*
X0066269Y0019049D01*
X0066218Y0018809D01*
X0066161Y0018570D01*
X0066099Y0018333D01*
X0066030Y0018097D01*
X0065956Y0017863D01*
X0065876Y0017631D01*
X0065791Y0017401D01*
X0065700Y0017173D01*
X0065603Y0016948D01*
X0065501Y0016724D01*
X0065393Y0016504D01*
X0065280Y0016286D01*
X0065162Y0016071D01*
X0065038Y0015859D01*
X0064910Y0015650D01*
X0064776Y0015444D01*
X0064637Y0015242D01*
X0064493Y0015043D01*
X0064344Y0014848D01*
X0064191Y0014656D01*
X0064033Y0014468D01*
X0063871Y0014284D01*
X0063703Y0014105D01*
X0063532Y0013929D01*
X0063356Y0013758D01*
X0063177Y0013590D01*
X0062993Y0013428D01*
X0062805Y0013270D01*
X0062613Y0013117D01*
X0062418Y0012968D01*
X0062219Y0012824D01*
X0062017Y0012685D01*
X0061811Y0012551D01*
X0061602Y0012423D01*
X0061390Y0012299D01*
X0061175Y0012181D01*
X0060957Y0012068D01*
X0060737Y0011960D01*
X0060513Y0011858D01*
X0060288Y0011761D01*
X0060060Y0011670D01*
X0059830Y0011585D01*
X0059598Y0011505D01*
X0059364Y0011431D01*
X0059128Y0011362D01*
X0058891Y0011300D01*
X0058652Y0011243D01*
X0058412Y0011192D01*
X0058171Y0011147D01*
X0057928Y0011108D01*
X0057685Y0011075D01*
X0057441Y0011048D01*
X0057197Y0011027D01*
X0056952Y0011012D01*
X0056706Y0011003D01*
X0056461Y0011000D01*
X0056216Y0011003D01*
X0055970Y0011012D01*
X0055725Y0011027D01*
X0055481Y0011048D01*
X0055237Y0011075D01*
X0054994Y0011108D01*
X0054751Y0011147D01*
X0054510Y0011192D01*
X0054270Y0011243D01*
X0054031Y0011300D01*
X0053794Y0011362D01*
X0053558Y0011431D01*
X0053324Y0011505D01*
X0053092Y0011585D01*
X0052862Y0011670D01*
X0052634Y0011761D01*
X0052409Y0011858D01*
X0052185Y0011960D01*
X0051965Y0012068D01*
X0051747Y0012181D01*
X0051532Y0012299D01*
X0051320Y0012423D01*
X0051111Y0012551D01*
X0050905Y0012685D01*
X0050703Y0012824D01*
X0050504Y0012968D01*
X0050309Y0013117D01*
X0050117Y0013270D01*
X0049929Y0013428D01*
X0049745Y0013590D01*
X0049566Y0013758D01*
X0049390Y0013929D01*
X0049219Y0014105D01*
X0049051Y0014284D01*
X0048889Y0014468D01*
X0048731Y0014656D01*
X0048578Y0014848D01*
X0048429Y0015043D01*
X0048285Y0015242D01*
X0048146Y0015444D01*
X0048012Y0015650D01*
X0047884Y0015859D01*
X0047760Y0016071D01*
X0047642Y0016286D01*
X0047529Y0016504D01*
X0047421Y0016724D01*
X0047319Y0016948D01*
X0047222Y0017173D01*
X0047131Y0017401D01*
X0047046Y0017631D01*
X0046966Y0017863D01*
X0046892Y0018097D01*
X0046823Y0018333D01*
X0046761Y0018570D01*
X0046704Y0018809D01*
X0046653Y0019049D01*
X0046608Y0019290D01*
X0046569Y0019533D01*
X0046536Y0019776D01*
X0046509Y0020020D01*
X0046488Y0020264D01*
X0046473Y0020509D01*
X0046464Y0020755D01*
X0046461Y0021000D01*
X0186461Y0122500D02*
X0186461Y0149500D01*
X0186463Y0149560D01*
X0186468Y0149621D01*
X0186477Y0149680D01*
X0186490Y0149739D01*
X0186506Y0149798D01*
X0186526Y0149855D01*
X0186549Y0149910D01*
X0186576Y0149965D01*
X0186605Y0150017D01*
X0186638Y0150068D01*
X0186674Y0150117D01*
X0186712Y0150163D01*
X0186754Y0150207D01*
X0186798Y0150249D01*
X0186844Y0150287D01*
X0186893Y0150323D01*
X0186944Y0150356D01*
X0186996Y0150385D01*
X0187051Y0150412D01*
X0187106Y0150435D01*
X0187163Y0150455D01*
X0187222Y0150471D01*
X0187281Y0150484D01*
X0187340Y0150493D01*
X0187401Y0150498D01*
X0187461Y0150500D01*
X0195461Y0150500D01*
X0195521Y0150498D01*
X0195582Y0150493D01*
X0195641Y0150484D01*
X0195700Y0150471D01*
X0195759Y0150455D01*
X0195816Y0150435D01*
X0195871Y0150412D01*
X0195926Y0150385D01*
X0195978Y0150356D01*
X0196029Y0150323D01*
X0196078Y0150287D01*
X0196124Y0150249D01*
X0196168Y0150207D01*
X0196210Y0150163D01*
X0196248Y0150117D01*
X0196284Y0150068D01*
X0196317Y0150017D01*
X0196346Y0149965D01*
X0196373Y0149910D01*
X0196396Y0149855D01*
X0196416Y0149798D01*
X0196432Y0149739D01*
X0196445Y0149680D01*
X0196454Y0149621D01*
X0196459Y0149560D01*
X0196461Y0149500D01*
X0196461Y0122500D01*
X0196459Y0122440D01*
X0196454Y0122379D01*
X0196445Y0122320D01*
X0196432Y0122261D01*
X0196416Y0122202D01*
X0196396Y0122145D01*
X0196373Y0122090D01*
X0196346Y0122035D01*
X0196317Y0121983D01*
X0196284Y0121932D01*
X0196248Y0121883D01*
X0196210Y0121837D01*
X0196168Y0121793D01*
X0196124Y0121751D01*
X0196078Y0121713D01*
X0196029Y0121677D01*
X0195978Y0121644D01*
X0195926Y0121615D01*
X0195871Y0121588D01*
X0195816Y0121565D01*
X0195759Y0121545D01*
X0195700Y0121529D01*
X0195641Y0121516D01*
X0195582Y0121507D01*
X0195521Y0121502D01*
X0195461Y0121500D01*
X0187461Y0121500D01*
X0187401Y0121502D01*
X0187340Y0121507D01*
X0187281Y0121516D01*
X0187222Y0121529D01*
X0187163Y0121545D01*
X0187106Y0121565D01*
X0187051Y0121588D01*
X0186996Y0121615D01*
X0186944Y0121644D01*
X0186893Y0121677D01*
X0186844Y0121713D01*
X0186798Y0121751D01*
X0186754Y0121793D01*
X0186712Y0121837D01*
X0186674Y0121883D01*
X0186638Y0121932D01*
X0186605Y0121983D01*
X0186576Y0122035D01*
X0186549Y0122090D01*
X0186526Y0122145D01*
X0186506Y0122202D01*
X0186490Y0122261D01*
X0186477Y0122320D01*
X0186468Y0122379D01*
X0186463Y0122440D01*
X0186461Y0122500D01*
X0191461Y0130000D02*
X0191461Y0134700D01*
X0191461Y0137200D02*
X0191461Y0142000D01*
D15*
X0132460Y0236350D02*
X0128256Y0236350D01*
X0130358Y0236350D02*
X0130358Y0242655D01*
X0128256Y0240554D01*
X0126014Y0242655D02*
X0126014Y0237401D01*
X0124963Y0236350D01*
X0122862Y0236350D01*
X0121811Y0237401D01*
X0121811Y0242655D01*
X0061405Y0228850D02*
X0057202Y0228850D01*
X0059303Y0228850D02*
X0059303Y0235155D01*
X0057202Y0233054D01*
X0054960Y0234104D02*
X0054960Y0232003D01*
X0053909Y0230952D01*
X0050756Y0230952D01*
X0050756Y0228850D02*
X0050756Y0235155D01*
X0053909Y0235155D01*
X0054960Y0234104D01*
X0048514Y0235155D02*
X0046412Y0235155D01*
X0047463Y0235155D02*
X0047463Y0229901D01*
X0046412Y0228850D01*
X0045362Y0228850D01*
X0044311Y0229901D01*
D16*
X0051461Y0221000D02*
X0026461Y0221000D01*
X0026461Y0194000D01*
X0025461Y0194000D01*
X0021461Y0194000D01*
X0021461Y0203500D01*
X0021961Y0203500D01*
X0021961Y0208500D01*
X0021461Y0208500D01*
X0021461Y0226000D01*
X0056461Y0226000D01*
X0056461Y0221000D01*
X0057461Y0221000D01*
X0057461Y0216000D01*
X0056461Y0216000D01*
X0056461Y0188500D01*
X0057461Y0188500D01*
X0057461Y0183500D01*
X0056461Y0183500D01*
X0056461Y0156000D01*
X0057461Y0156000D01*
X0057461Y0151000D01*
X0056461Y0151000D01*
X0056461Y0146000D01*
X0021461Y0146000D01*
X0021461Y0164500D01*
X0023461Y0166000D01*
X0023461Y0168000D01*
X0023461Y0174000D01*
X0023461Y0176000D01*
X0021461Y0177500D01*
X0021461Y0178000D01*
X0025461Y0178000D01*
X0026461Y0178000D01*
X0026461Y0174000D01*
X0026461Y0168000D01*
X0025461Y0168000D01*
X0023461Y0168000D01*
X0026461Y0168000D02*
X0026461Y0151000D01*
X0051461Y0151000D01*
X0051461Y0221000D01*
X0046211Y0214649D02*
X0046211Y0211646D01*
X0043208Y0214649D01*
X0042457Y0214649D01*
X0041707Y0213898D01*
X0041707Y0212397D01*
X0042457Y0211646D01*
X0036211Y0211646D02*
X0036211Y0214649D01*
X0036211Y0213147D02*
X0031707Y0213147D01*
X0033208Y0211646D01*
X0029461Y0194000D02*
X0026461Y0194000D01*
X0029461Y0194000D02*
X0029461Y0178000D01*
X0026461Y0178000D01*
X0027711Y0181042D02*
X0027711Y0184045D01*
X0027711Y0182543D02*
X0023207Y0182543D01*
X0024708Y0181042D01*
X0021461Y0178000D02*
X0021461Y0194000D01*
X0023957Y0188649D02*
X0026960Y0185646D01*
X0027711Y0186397D01*
X0027711Y0187898D01*
X0026960Y0188649D01*
X0023957Y0188649D01*
X0023207Y0187898D01*
X0023207Y0186397D01*
X0023957Y0185646D01*
X0026960Y0185646D01*
X0026461Y0174000D02*
X0025461Y0174000D01*
X0023461Y0174000D01*
X0061711Y0171254D02*
X0061711Y0166750D01*
X0061711Y0168251D02*
X0063963Y0168251D01*
X0064713Y0169002D01*
X0064713Y0170503D01*
X0063963Y0171254D01*
X0061711Y0171254D01*
X0063212Y0168251D02*
X0064713Y0166750D01*
X0066315Y0167501D02*
X0066315Y0169002D01*
X0068566Y0169002D01*
X0069317Y0168251D01*
X0069317Y0167501D01*
X0068566Y0166750D01*
X0067065Y0166750D01*
X0066315Y0167501D01*
X0066315Y0169002D02*
X0067816Y0170503D01*
X0069317Y0171254D01*
X0068566Y0176750D02*
X0067065Y0176750D01*
X0066315Y0177501D01*
X0064713Y0176750D02*
X0063212Y0178251D01*
X0063963Y0178251D02*
X0061711Y0178251D01*
X0061711Y0176750D02*
X0061711Y0181254D01*
X0063963Y0181254D01*
X0064713Y0180503D01*
X0064713Y0179002D01*
X0063963Y0178251D01*
X0066315Y0180503D02*
X0067065Y0181254D01*
X0068566Y0181254D01*
X0069317Y0180503D01*
X0069317Y0179753D01*
X0068566Y0179002D01*
X0069317Y0178251D01*
X0069317Y0177501D01*
X0068566Y0176750D01*
X0068566Y0179002D02*
X0067816Y0179002D01*
X0069317Y0161254D02*
X0066315Y0161254D01*
X0066315Y0159002D01*
X0067816Y0159753D01*
X0068566Y0159753D01*
X0069317Y0159002D01*
X0069317Y0157501D01*
X0068566Y0156750D01*
X0067065Y0156750D01*
X0066315Y0157501D01*
X0064713Y0156750D02*
X0063212Y0158251D01*
X0063963Y0158251D02*
X0061711Y0158251D01*
X0061711Y0156750D02*
X0061711Y0161254D01*
X0063963Y0161254D01*
X0064713Y0160503D01*
X0064713Y0159002D01*
X0063963Y0158251D01*
X0063963Y0151254D02*
X0061711Y0151254D01*
X0061711Y0146750D01*
X0061711Y0148251D02*
X0063963Y0148251D01*
X0064713Y0149002D01*
X0064713Y0150503D01*
X0063963Y0151254D01*
X0066315Y0149002D02*
X0069317Y0149002D01*
X0068566Y0146750D02*
X0068566Y0151254D01*
X0066315Y0149002D01*
X0064713Y0146750D02*
X0063212Y0148251D01*
X0073961Y0137254D02*
X0073211Y0136503D01*
X0073211Y0133501D01*
X0073961Y0132750D01*
X0075463Y0132750D01*
X0076213Y0133501D01*
X0077815Y0133501D02*
X0078565Y0132750D01*
X0080066Y0132750D01*
X0080817Y0133501D01*
X0080817Y0135002D01*
X0080066Y0135753D01*
X0079316Y0135753D01*
X0077815Y0135002D01*
X0077815Y0137254D01*
X0080817Y0137254D01*
X0076213Y0136503D02*
X0075463Y0137254D01*
X0073961Y0137254D01*
X0076957Y0126856D02*
X0076207Y0126106D01*
X0076207Y0124605D01*
X0076957Y0123854D01*
X0076957Y0122253D02*
X0076207Y0121502D01*
X0076207Y0120001D01*
X0076957Y0119250D01*
X0079960Y0119250D01*
X0080711Y0120001D01*
X0080711Y0121502D01*
X0079960Y0122253D01*
X0080711Y0123854D02*
X0077708Y0126856D01*
X0076957Y0126856D01*
X0080711Y0126856D02*
X0080711Y0123854D01*
X0096207Y0124605D02*
X0096207Y0126106D01*
X0096957Y0126856D01*
X0097708Y0126856D01*
X0098459Y0126106D01*
X0099209Y0126856D01*
X0099960Y0126856D01*
X0100711Y0126106D01*
X0100711Y0124605D01*
X0099960Y0123854D01*
X0099960Y0122253D02*
X0100711Y0121502D01*
X0100711Y0120001D01*
X0099960Y0119250D01*
X0096957Y0119250D01*
X0096207Y0120001D01*
X0096207Y0121502D01*
X0096957Y0122253D01*
X0096957Y0123854D02*
X0096207Y0124605D01*
X0098459Y0125355D02*
X0098459Y0126106D01*
X0064017Y0126453D02*
X0064017Y0127203D01*
X0063266Y0127954D01*
X0061765Y0127954D01*
X0061015Y0127203D01*
X0059413Y0127203D02*
X0059413Y0124201D01*
X0058663Y0123450D01*
X0056411Y0123450D01*
X0056411Y0127954D01*
X0058663Y0127954D01*
X0059413Y0127203D01*
X0061015Y0123450D02*
X0064017Y0126453D01*
X0064017Y0123450D02*
X0061015Y0123450D01*
X0060316Y0108754D02*
X0060316Y0104250D01*
X0058815Y0104250D02*
X0061817Y0104250D01*
X0058815Y0107253D02*
X0060316Y0108754D01*
X0057213Y0108003D02*
X0057213Y0106502D01*
X0056463Y0105751D01*
X0054211Y0105751D01*
X0055712Y0105751D02*
X0057213Y0104250D01*
X0054211Y0104250D02*
X0054211Y0108754D01*
X0056463Y0108754D01*
X0057213Y0108003D01*
X0081711Y0086254D02*
X0083963Y0086254D01*
X0084713Y0085503D01*
X0084713Y0084002D01*
X0083963Y0083251D01*
X0081711Y0083251D01*
X0083212Y0083251D02*
X0084713Y0081750D01*
X0086315Y0082501D02*
X0086315Y0083251D01*
X0087065Y0084002D01*
X0088566Y0084002D01*
X0089317Y0083251D01*
X0089317Y0082501D01*
X0088566Y0081750D01*
X0087065Y0081750D01*
X0086315Y0082501D01*
X0087065Y0084002D02*
X0086315Y0084753D01*
X0086315Y0085503D01*
X0087065Y0086254D01*
X0088566Y0086254D01*
X0089317Y0085503D01*
X0089317Y0084753D01*
X0088566Y0084002D01*
X0081711Y0081750D02*
X0081711Y0086254D01*
X0101711Y0067254D02*
X0104713Y0062750D01*
X0106315Y0062750D02*
X0109317Y0062750D01*
X0107816Y0062750D02*
X0107816Y0067254D01*
X0106315Y0065753D01*
X0104713Y0067254D02*
X0101711Y0062750D01*
X0099317Y0041254D02*
X0096315Y0041254D01*
X0094713Y0040503D02*
X0094713Y0039002D01*
X0093963Y0038251D01*
X0091711Y0038251D01*
X0093212Y0038251D02*
X0094713Y0036750D01*
X0096315Y0036750D02*
X0096315Y0037501D01*
X0099317Y0040503D01*
X0099317Y0041254D01*
X0094713Y0040503D02*
X0093963Y0041254D01*
X0091711Y0041254D01*
X0091711Y0036750D01*
X0090016Y0025454D02*
X0090016Y0020950D01*
X0088515Y0020950D02*
X0091517Y0020950D01*
X0088515Y0023953D02*
X0090016Y0025454D01*
X0086913Y0024703D02*
X0086163Y0025454D01*
X0083911Y0025454D01*
X0083911Y0020950D01*
X0086163Y0020950D01*
X0086913Y0021701D01*
X0086913Y0024703D01*
X0106711Y0021254D02*
X0106711Y0016750D01*
X0106711Y0018251D02*
X0108963Y0018251D01*
X0109713Y0019002D01*
X0109713Y0020503D01*
X0108963Y0021254D01*
X0106711Y0021254D01*
X0108212Y0018251D02*
X0109713Y0016750D01*
X0111315Y0016750D02*
X0114317Y0019753D01*
X0114317Y0020503D01*
X0113566Y0021254D01*
X0112065Y0021254D01*
X0111315Y0020503D01*
X0111315Y0016750D02*
X0114317Y0016750D01*
X0068817Y0006250D02*
X0065815Y0006250D01*
X0067316Y0006250D02*
X0067316Y0010754D01*
X0065815Y0009253D01*
X0064213Y0010003D02*
X0063463Y0010754D01*
X0061961Y0010754D01*
X0061211Y0010003D01*
X0061211Y0007001D01*
X0061961Y0006250D01*
X0063463Y0006250D01*
X0064213Y0007001D01*
X0188211Y0113501D02*
X0188961Y0112750D01*
X0190463Y0112750D01*
X0191213Y0113501D01*
X0192815Y0115002D02*
X0195817Y0115002D01*
X0195066Y0112750D02*
X0195066Y0117254D01*
X0192815Y0115002D01*
X0191213Y0116503D02*
X0190463Y0117254D01*
X0188961Y0117254D01*
X0188211Y0116503D01*
X0188211Y0113501D01*
X0248957Y0034649D02*
X0251960Y0031646D01*
X0252711Y0032397D01*
X0252711Y0033898D01*
X0251960Y0034649D01*
X0248957Y0034649D01*
X0248207Y0033898D01*
X0248207Y0032397D01*
X0248957Y0031646D01*
X0251960Y0031646D01*
X0250459Y0030045D02*
X0250459Y0027042D01*
X0248207Y0029294D01*
X0252711Y0029294D01*
X0243921Y0021503D02*
X0243170Y0022254D01*
X0241669Y0022254D01*
X0240918Y0021503D01*
X0239317Y0021503D02*
X0239317Y0020002D01*
X0238566Y0019251D01*
X0236315Y0019251D01*
X0236315Y0017750D02*
X0236315Y0022254D01*
X0238566Y0022254D01*
X0239317Y0021503D01*
X0240918Y0017750D02*
X0243921Y0020753D01*
X0243921Y0021503D01*
X0243921Y0017750D02*
X0240918Y0017750D01*
X0233963Y0018501D02*
X0233963Y0022254D01*
X0234713Y0022254D02*
X0233212Y0022254D01*
X0233963Y0018501D02*
X0233212Y0017750D01*
X0232461Y0017750D01*
X0231711Y0018501D01*
X0088566Y0201750D02*
X0087065Y0201750D01*
X0086315Y0202501D01*
X0087065Y0204002D02*
X0089317Y0204002D01*
X0089317Y0202501D02*
X0089317Y0205503D01*
X0088566Y0206254D01*
X0087065Y0206254D01*
X0086315Y0205503D01*
X0086315Y0204753D01*
X0087065Y0204002D01*
X0084713Y0204002D02*
X0084713Y0205503D01*
X0083963Y0206254D01*
X0081711Y0206254D01*
X0081711Y0201750D01*
X0081711Y0203251D02*
X0083963Y0203251D01*
X0084713Y0204002D01*
X0083212Y0203251D02*
X0084713Y0201750D01*
X0088566Y0201750D02*
X0089317Y0202501D01*
X0220207Y0220147D02*
X0224711Y0220147D01*
X0224711Y0218646D02*
X0224711Y0221649D01*
X0221708Y0218646D02*
X0220207Y0220147D01*
D17*
X0052461Y0222000D02*
X0052461Y0150000D01*
X0025461Y0150000D01*
X0025461Y0168000D01*
X0025461Y0174000D02*
X0025461Y0178000D01*
X0025461Y0194000D02*
X0025461Y0222000D01*
X0052461Y0222000D01*
X0044335Y0076098D02*
X0036461Y0076098D01*
X0036461Y0073638D01*
X0036461Y0070685D01*
X0038429Y0070685D02*
X0036461Y0073638D01*
X0040398Y0073638D01*
X0038429Y0070685D01*
X0036460Y0070685D02*
X0036462Y0070598D01*
X0036468Y0070511D01*
X0036477Y0070424D01*
X0036491Y0070338D01*
X0036508Y0070253D01*
X0036529Y0070168D01*
X0036554Y0070085D01*
X0036582Y0070002D01*
X0036614Y0069921D01*
X0036650Y0069842D01*
X0036689Y0069764D01*
X0036731Y0069688D01*
X0036777Y0069614D01*
X0036826Y0069542D01*
X0036878Y0069472D01*
X0036933Y0069405D01*
X0036991Y0069340D01*
X0037052Y0069277D01*
X0037116Y0069218D01*
X0037182Y0069161D01*
X0037251Y0069108D01*
X0037322Y0069057D01*
X0037395Y0069010D01*
X0037470Y0068965D01*
X0037547Y0068925D01*
X0037625Y0068887D01*
X0037706Y0068854D01*
X0037787Y0068823D01*
X0037870Y0068797D01*
X0037955Y0068774D01*
X0038040Y0068755D01*
X0038125Y0068740D01*
X0038212Y0068728D01*
X0038298Y0068720D01*
X0038385Y0068716D01*
X0038473Y0068716D01*
X0038560Y0068720D01*
X0038646Y0068728D01*
X0038733Y0068740D01*
X0038818Y0068755D01*
X0038903Y0068774D01*
X0038988Y0068797D01*
X0039071Y0068823D01*
X0039152Y0068854D01*
X0039233Y0068887D01*
X0039311Y0068925D01*
X0039388Y0068965D01*
X0039463Y0069010D01*
X0039536Y0069057D01*
X0039607Y0069108D01*
X0039676Y0069161D01*
X0039742Y0069218D01*
X0039806Y0069277D01*
X0039867Y0069340D01*
X0039925Y0069405D01*
X0039980Y0069472D01*
X0040032Y0069542D01*
X0040081Y0069614D01*
X0040127Y0069688D01*
X0040169Y0069764D01*
X0040208Y0069842D01*
X0040244Y0069921D01*
X0040276Y0070002D01*
X0040304Y0070085D01*
X0040329Y0070168D01*
X0040350Y0070253D01*
X0040367Y0070338D01*
X0040381Y0070424D01*
X0040390Y0070511D01*
X0040396Y0070598D01*
X0040398Y0070685D01*
X0042366Y0070685D02*
X0040398Y0073638D01*
X0044335Y0073638D01*
X0044335Y0070685D01*
X0042366Y0070685D02*
X0044335Y0073638D01*
X0044335Y0076098D01*
X0044335Y0070685D02*
X0044333Y0070598D01*
X0044327Y0070511D01*
X0044318Y0070424D01*
X0044304Y0070338D01*
X0044287Y0070253D01*
X0044266Y0070168D01*
X0044241Y0070085D01*
X0044213Y0070002D01*
X0044181Y0069921D01*
X0044145Y0069842D01*
X0044106Y0069764D01*
X0044064Y0069688D01*
X0044018Y0069614D01*
X0043969Y0069542D01*
X0043917Y0069472D01*
X0043862Y0069405D01*
X0043804Y0069340D01*
X0043743Y0069277D01*
X0043679Y0069218D01*
X0043613Y0069161D01*
X0043544Y0069108D01*
X0043473Y0069057D01*
X0043400Y0069010D01*
X0043325Y0068965D01*
X0043248Y0068925D01*
X0043170Y0068887D01*
X0043089Y0068854D01*
X0043008Y0068823D01*
X0042925Y0068797D01*
X0042840Y0068774D01*
X0042755Y0068755D01*
X0042670Y0068740D01*
X0042583Y0068728D01*
X0042497Y0068720D01*
X0042410Y0068716D01*
X0042322Y0068716D01*
X0042235Y0068720D01*
X0042149Y0068728D01*
X0042062Y0068740D01*
X0041977Y0068755D01*
X0041892Y0068774D01*
X0041807Y0068797D01*
X0041724Y0068823D01*
X0041643Y0068854D01*
X0041562Y0068887D01*
X0041484Y0068925D01*
X0041407Y0068965D01*
X0041332Y0069010D01*
X0041259Y0069057D01*
X0041188Y0069108D01*
X0041119Y0069161D01*
X0041053Y0069218D01*
X0040989Y0069277D01*
X0040928Y0069340D01*
X0040870Y0069405D01*
X0040815Y0069472D01*
X0040763Y0069542D01*
X0040714Y0069614D01*
X0040668Y0069688D01*
X0040626Y0069764D01*
X0040587Y0069842D01*
X0040551Y0069921D01*
X0040519Y0070002D01*
X0040491Y0070085D01*
X0040466Y0070168D01*
X0040445Y0070253D01*
X0040428Y0070338D01*
X0040414Y0070424D01*
X0040405Y0070511D01*
X0040399Y0070598D01*
X0040397Y0070685D01*
X0036461Y0067732D02*
X0036461Y0060843D01*
X0038429Y0060843D01*
X0038429Y0065272D01*
X0039413Y0065272D01*
X0039413Y0060843D01*
X0041382Y0060843D01*
X0041382Y0065272D01*
X0042366Y0065272D01*
X0042366Y0060843D01*
X0044335Y0060843D01*
X0044335Y0067732D01*
X0036461Y0067732D01*
X0036461Y0059858D02*
X0036461Y0057398D01*
X0039413Y0057398D01*
X0036461Y0055429D01*
X0036461Y0052476D01*
X0039413Y0054445D01*
X0040890Y0055921D02*
X0040890Y0057398D01*
X0042366Y0057398D01*
X0042366Y0055921D01*
X0042364Y0055868D01*
X0042358Y0055816D01*
X0042349Y0055764D01*
X0042336Y0055713D01*
X0042319Y0055663D01*
X0042299Y0055614D01*
X0042276Y0055567D01*
X0042249Y0055522D01*
X0042219Y0055479D01*
X0042186Y0055438D01*
X0042150Y0055399D01*
X0042111Y0055363D01*
X0042070Y0055330D01*
X0042027Y0055300D01*
X0041982Y0055273D01*
X0041935Y0055250D01*
X0041886Y0055230D01*
X0041836Y0055213D01*
X0041785Y0055200D01*
X0041733Y0055191D01*
X0041681Y0055185D01*
X0041628Y0055183D01*
X0041575Y0055185D01*
X0041523Y0055191D01*
X0041471Y0055200D01*
X0041420Y0055213D01*
X0041370Y0055230D01*
X0041321Y0055250D01*
X0041274Y0055273D01*
X0041229Y0055300D01*
X0041186Y0055330D01*
X0041145Y0055363D01*
X0041106Y0055399D01*
X0041070Y0055438D01*
X0041037Y0055479D01*
X0041007Y0055522D01*
X0040980Y0055567D01*
X0040957Y0055614D01*
X0040937Y0055663D01*
X0040920Y0055713D01*
X0040907Y0055764D01*
X0040898Y0055816D01*
X0040892Y0055868D01*
X0040890Y0055921D01*
X0039413Y0054445D02*
X0039415Y0054347D01*
X0039421Y0054249D01*
X0039430Y0054152D01*
X0039444Y0054055D01*
X0039461Y0053959D01*
X0039483Y0053863D01*
X0039508Y0053769D01*
X0039536Y0053675D01*
X0039569Y0053583D01*
X0039605Y0053492D01*
X0039645Y0053402D01*
X0039688Y0053315D01*
X0039735Y0053229D01*
X0039785Y0053145D01*
X0039838Y0053063D01*
X0039895Y0052983D01*
X0039954Y0052905D01*
X0040017Y0052830D01*
X0040083Y0052757D01*
X0040151Y0052688D01*
X0040222Y0052620D01*
X0040296Y0052556D01*
X0040373Y0052495D01*
X0040451Y0052437D01*
X0040532Y0052382D01*
X0040615Y0052330D01*
X0040700Y0052282D01*
X0040787Y0052237D01*
X0040876Y0052195D01*
X0040966Y0052158D01*
X0041058Y0052123D01*
X0041151Y0052093D01*
X0041245Y0052066D01*
X0041340Y0052043D01*
X0041436Y0052023D01*
X0041533Y0052008D01*
X0041630Y0051996D01*
X0041727Y0051988D01*
X0041825Y0051984D01*
X0041923Y0051984D01*
X0042021Y0051988D01*
X0042118Y0051996D01*
X0042215Y0052008D01*
X0042312Y0052023D01*
X0042408Y0052043D01*
X0042503Y0052066D01*
X0042597Y0052093D01*
X0042690Y0052123D01*
X0042782Y0052158D01*
X0042872Y0052195D01*
X0042961Y0052237D01*
X0043048Y0052282D01*
X0043133Y0052330D01*
X0043216Y0052382D01*
X0043297Y0052437D01*
X0043375Y0052495D01*
X0043452Y0052556D01*
X0043526Y0052620D01*
X0043597Y0052688D01*
X0043665Y0052757D01*
X0043731Y0052830D01*
X0043794Y0052905D01*
X0043853Y0052983D01*
X0043910Y0053063D01*
X0043963Y0053145D01*
X0044013Y0053229D01*
X0044060Y0053315D01*
X0044103Y0053402D01*
X0044143Y0053492D01*
X0044179Y0053583D01*
X0044212Y0053675D01*
X0044240Y0053769D01*
X0044265Y0053863D01*
X0044287Y0053959D01*
X0044304Y0054055D01*
X0044318Y0054152D01*
X0044327Y0054249D01*
X0044333Y0054347D01*
X0044335Y0054445D01*
X0044335Y0059858D01*
X0036461Y0059858D01*
X0036461Y0047555D02*
X0036463Y0047679D01*
X0036469Y0047802D01*
X0036478Y0047926D01*
X0036492Y0048048D01*
X0036509Y0048171D01*
X0036531Y0048293D01*
X0036556Y0048414D01*
X0036585Y0048534D01*
X0036617Y0048653D01*
X0036654Y0048772D01*
X0036694Y0048889D01*
X0036737Y0049004D01*
X0036785Y0049119D01*
X0036836Y0049231D01*
X0036890Y0049342D01*
X0036948Y0049452D01*
X0037009Y0049559D01*
X0037074Y0049665D01*
X0037142Y0049768D01*
X0037213Y0049869D01*
X0037287Y0049968D01*
X0037364Y0050065D01*
X0037445Y0050159D01*
X0037528Y0050250D01*
X0037614Y0050339D01*
X0037703Y0050425D01*
X0037794Y0050508D01*
X0037888Y0050589D01*
X0037985Y0050666D01*
X0038084Y0050740D01*
X0038185Y0050811D01*
X0038288Y0050879D01*
X0038394Y0050944D01*
X0038501Y0051005D01*
X0038611Y0051063D01*
X0038722Y0051117D01*
X0038834Y0051168D01*
X0038949Y0051216D01*
X0039064Y0051259D01*
X0039181Y0051299D01*
X0039300Y0051336D01*
X0039419Y0051368D01*
X0039539Y0051397D01*
X0039660Y0051422D01*
X0039782Y0051444D01*
X0039905Y0051461D01*
X0040027Y0051475D01*
X0040151Y0051484D01*
X0040274Y0051490D01*
X0040398Y0051492D01*
X0040522Y0051490D01*
X0040645Y0051484D01*
X0040769Y0051475D01*
X0040891Y0051461D01*
X0041014Y0051444D01*
X0041136Y0051422D01*
X0041257Y0051397D01*
X0041377Y0051368D01*
X0041496Y0051336D01*
X0041615Y0051299D01*
X0041732Y0051259D01*
X0041847Y0051216D01*
X0041962Y0051168D01*
X0042074Y0051117D01*
X0042185Y0051063D01*
X0042295Y0051005D01*
X0042402Y0050944D01*
X0042508Y0050879D01*
X0042611Y0050811D01*
X0042712Y0050740D01*
X0042811Y0050666D01*
X0042908Y0050589D01*
X0043002Y0050508D01*
X0043093Y0050425D01*
X0043182Y0050339D01*
X0043268Y0050250D01*
X0043351Y0050159D01*
X0043432Y0050065D01*
X0043509Y0049968D01*
X0043583Y0049869D01*
X0043654Y0049768D01*
X0043722Y0049665D01*
X0043787Y0049559D01*
X0043848Y0049452D01*
X0043906Y0049342D01*
X0043960Y0049231D01*
X0044011Y0049119D01*
X0044059Y0049004D01*
X0044102Y0048889D01*
X0044142Y0048772D01*
X0044179Y0048653D01*
X0044211Y0048534D01*
X0044240Y0048414D01*
X0044265Y0048293D01*
X0044287Y0048171D01*
X0044304Y0048048D01*
X0044318Y0047926D01*
X0044327Y0047802D01*
X0044333Y0047679D01*
X0044335Y0047555D01*
X0036461Y0047555D02*
X0036464Y0047340D01*
X0036473Y0047126D01*
X0036486Y0046911D01*
X0036504Y0046697D01*
X0036527Y0046484D01*
X0036555Y0046271D01*
X0036588Y0046059D01*
X0036626Y0045847D01*
X0036669Y0045637D01*
X0036716Y0045428D01*
X0036768Y0045219D01*
X0036825Y0045012D01*
X0036887Y0044807D01*
X0036953Y0044602D01*
X0040398Y0044602D01*
X0040398Y0046571D01*
X0042367Y0046571D02*
X0042365Y0046658D01*
X0042359Y0046745D01*
X0042350Y0046832D01*
X0042336Y0046918D01*
X0042319Y0047003D01*
X0042298Y0047088D01*
X0042273Y0047171D01*
X0042245Y0047254D01*
X0042213Y0047335D01*
X0042177Y0047414D01*
X0042138Y0047492D01*
X0042096Y0047568D01*
X0042050Y0047642D01*
X0042001Y0047714D01*
X0041949Y0047784D01*
X0041894Y0047851D01*
X0041836Y0047916D01*
X0041775Y0047979D01*
X0041711Y0048038D01*
X0041645Y0048095D01*
X0041576Y0048148D01*
X0041505Y0048199D01*
X0041432Y0048246D01*
X0041357Y0048291D01*
X0041280Y0048331D01*
X0041202Y0048369D01*
X0041121Y0048402D01*
X0041040Y0048433D01*
X0040957Y0048459D01*
X0040872Y0048482D01*
X0040787Y0048501D01*
X0040702Y0048516D01*
X0040615Y0048528D01*
X0040529Y0048536D01*
X0040442Y0048540D01*
X0040354Y0048540D01*
X0040267Y0048536D01*
X0040181Y0048528D01*
X0040094Y0048516D01*
X0040009Y0048501D01*
X0039924Y0048482D01*
X0039839Y0048459D01*
X0039756Y0048433D01*
X0039675Y0048402D01*
X0039594Y0048369D01*
X0039516Y0048331D01*
X0039439Y0048291D01*
X0039364Y0048246D01*
X0039291Y0048199D01*
X0039220Y0048148D01*
X0039151Y0048095D01*
X0039085Y0048038D01*
X0039021Y0047979D01*
X0038960Y0047916D01*
X0038902Y0047851D01*
X0038847Y0047784D01*
X0038795Y0047714D01*
X0038746Y0047642D01*
X0038700Y0047568D01*
X0038658Y0047492D01*
X0038619Y0047414D01*
X0038583Y0047335D01*
X0038551Y0047254D01*
X0038523Y0047171D01*
X0038498Y0047088D01*
X0038477Y0047003D01*
X0038460Y0046918D01*
X0038446Y0046832D01*
X0038437Y0046745D01*
X0038431Y0046658D01*
X0038429Y0046571D01*
X0040398Y0046571D01*
X0042366Y0044622D02*
X0044118Y0044622D01*
X0042366Y0044603D02*
X0042387Y0044781D01*
X0042405Y0044960D01*
X0042417Y0045139D01*
X0042426Y0045318D01*
X0042430Y0045497D01*
X0042430Y0045677D01*
X0042426Y0045856D01*
X0042417Y0046035D01*
X0042405Y0046214D01*
X0042387Y0046393D01*
X0042366Y0046571D01*
X0044334Y0047555D02*
X0044341Y0047221D01*
X0044341Y0046887D01*
X0044332Y0046553D01*
X0044316Y0046220D01*
X0044292Y0045887D01*
X0044260Y0045554D01*
X0044220Y0045223D01*
X0044173Y0044892D01*
X0044118Y0044563D01*
D18*
X0034979Y0045603D02*
X0034979Y0046603D01*
X0034228Y0046103D02*
X0034228Y0045603D01*
X0033478Y0045603D02*
X0034979Y0045603D01*
X0033478Y0045603D02*
X0033478Y0046603D01*
X0033478Y0048549D02*
X0034979Y0048549D01*
X0034979Y0049550D01*
X0034979Y0051496D02*
X0034979Y0052497D01*
X0034228Y0051996D02*
X0034228Y0051496D01*
X0033478Y0051496D02*
X0034979Y0051496D01*
X0033478Y0051496D02*
X0033478Y0052497D01*
X0033728Y0054442D02*
X0034729Y0054442D01*
X0034979Y0054692D01*
X0034979Y0055193D01*
X0034729Y0055443D01*
X0033728Y0055443D02*
X0033478Y0055193D01*
X0033478Y0054692D01*
X0033728Y0054442D01*
X0033478Y0057389D02*
X0033478Y0058390D01*
X0033478Y0057889D02*
X0034979Y0057889D01*
X0034979Y0060335D02*
X0033478Y0060335D01*
X0033478Y0061086D01*
X0033728Y0061336D01*
X0034228Y0061336D01*
X0034479Y0061086D01*
X0034479Y0060335D01*
X0034479Y0060836D02*
X0034979Y0061336D01*
X0034729Y0063282D02*
X0034979Y0063532D01*
X0034979Y0064032D01*
X0034729Y0064283D01*
X0033728Y0064283D01*
X0033478Y0064032D01*
X0033478Y0063532D01*
X0033728Y0063282D01*
X0034729Y0063282D01*
X0034979Y0066228D02*
X0033478Y0066228D01*
X0034979Y0067229D01*
X0033478Y0067229D01*
X0033478Y0069175D02*
X0033478Y0069675D01*
X0033478Y0069425D02*
X0034979Y0069425D01*
X0034979Y0069175D02*
X0034979Y0069675D01*
X0034729Y0071630D02*
X0034979Y0071880D01*
X0034979Y0072381D01*
X0034729Y0072631D01*
X0034729Y0071630D02*
X0033728Y0071630D01*
X0033478Y0071880D01*
X0033478Y0072381D01*
X0033728Y0072631D01*
X0033728Y0074577D02*
X0033978Y0074577D01*
X0034228Y0074827D01*
X0034228Y0075327D01*
X0034479Y0075577D01*
X0034729Y0075577D01*
X0034979Y0075327D01*
X0034979Y0074827D01*
X0034729Y0074577D01*
X0033728Y0074577D02*
X0033478Y0074827D01*
X0033478Y0075327D01*
X0033728Y0075577D01*
D19*
X0087461Y0079500D02*
X0087461Y0102500D01*
X0087464Y0102719D01*
X0087472Y0102938D01*
X0087485Y0103157D01*
X0087504Y0103375D01*
X0087528Y0103593D01*
X0087557Y0103810D01*
X0087591Y0104027D01*
X0087631Y0104242D01*
X0087676Y0104457D01*
X0087727Y0104670D01*
X0087782Y0104882D01*
X0087843Y0105093D01*
X0087908Y0105302D01*
X0087979Y0105509D01*
X0088055Y0105715D01*
X0088136Y0105919D01*
X0088221Y0106121D01*
X0088312Y0106320D01*
X0088407Y0106517D01*
X0088508Y0106712D01*
X0088613Y0106905D01*
X0088722Y0107095D01*
X0088836Y0107282D01*
X0088955Y0107466D01*
X0089078Y0107647D01*
X0089206Y0107825D01*
X0089338Y0108001D01*
X0089474Y0108172D01*
X0089614Y0108341D01*
X0089758Y0108506D01*
X0089906Y0108667D01*
X0090058Y0108825D01*
X0090214Y0108979D01*
X0090374Y0109129D01*
X0090537Y0109276D01*
X0090704Y0109418D01*
X0090874Y0109556D01*
X0091048Y0109690D01*
X0091224Y0109820D01*
X0091404Y0109945D01*
X0091587Y0110066D01*
X0091773Y0110182D01*
X0091961Y0110294D01*
X0092152Y0110401D01*
X0092346Y0110504D01*
X0092542Y0110602D01*
X0092740Y0110695D01*
X0092941Y0110783D01*
X0093144Y0110866D01*
X0093349Y0110945D01*
X0093555Y0111018D01*
X0093763Y0111086D01*
X0093973Y0111149D01*
X0094185Y0111207D01*
X0094397Y0111260D01*
X0094611Y0111308D01*
X0094826Y0111350D01*
X0095042Y0111387D01*
X0095259Y0111419D01*
X0095477Y0111446D01*
X0095695Y0111467D01*
X0095913Y0111483D01*
X0096132Y0111494D01*
X0096351Y0111499D01*
X0096571Y0111499D01*
X0096790Y0111494D01*
X0097009Y0111483D01*
X0097227Y0111467D01*
X0097445Y0111446D01*
X0097663Y0111419D01*
X0097880Y0111387D01*
X0098096Y0111350D01*
X0098311Y0111308D01*
X0098525Y0111260D01*
X0098737Y0111207D01*
X0098949Y0111149D01*
X0099159Y0111086D01*
X0099367Y0111018D01*
X0099573Y0110945D01*
X0099778Y0110866D01*
X0099981Y0110783D01*
X0100182Y0110695D01*
X0100380Y0110602D01*
X0100576Y0110504D01*
X0100770Y0110401D01*
X0100961Y0110294D01*
X0101149Y0110182D01*
X0101335Y0110066D01*
X0101518Y0109945D01*
X0101698Y0109820D01*
X0101874Y0109690D01*
X0102048Y0109556D01*
X0102218Y0109418D01*
X0102385Y0109276D01*
X0102548Y0109129D01*
X0102708Y0108979D01*
X0102864Y0108825D01*
X0103016Y0108667D01*
X0103164Y0108506D01*
X0103308Y0108341D01*
X0103448Y0108172D01*
X0103584Y0108001D01*
X0103716Y0107825D01*
X0103844Y0107647D01*
X0103967Y0107466D01*
X0104086Y0107282D01*
X0104200Y0107095D01*
X0104309Y0106905D01*
X0104414Y0106712D01*
X0104515Y0106517D01*
X0104610Y0106320D01*
X0104701Y0106121D01*
X0104786Y0105919D01*
X0104867Y0105715D01*
X0104943Y0105509D01*
X0105014Y0105302D01*
X0105079Y0105093D01*
X0105140Y0104882D01*
X0105195Y0104670D01*
X0105246Y0104457D01*
X0105291Y0104242D01*
X0105331Y0104027D01*
X0105365Y0103810D01*
X0105394Y0103593D01*
X0105418Y0103375D01*
X0105437Y0103157D01*
X0105450Y0102938D01*
X0105458Y0102719D01*
X0105461Y0102500D01*
X0105461Y0079500D01*
X0105458Y0079281D01*
X0105450Y0079062D01*
X0105437Y0078843D01*
X0105418Y0078625D01*
X0105394Y0078407D01*
X0105365Y0078190D01*
X0105331Y0077973D01*
X0105291Y0077758D01*
X0105246Y0077543D01*
X0105195Y0077330D01*
X0105140Y0077118D01*
X0105079Y0076907D01*
X0105014Y0076698D01*
X0104943Y0076491D01*
X0104867Y0076285D01*
X0104786Y0076081D01*
X0104701Y0075879D01*
X0104610Y0075680D01*
X0104515Y0075483D01*
X0104414Y0075288D01*
X0104309Y0075095D01*
X0104200Y0074905D01*
X0104086Y0074718D01*
X0103967Y0074534D01*
X0103844Y0074353D01*
X0103716Y0074175D01*
X0103584Y0073999D01*
X0103448Y0073828D01*
X0103308Y0073659D01*
X0103164Y0073494D01*
X0103016Y0073333D01*
X0102864Y0073175D01*
X0102708Y0073021D01*
X0102548Y0072871D01*
X0102385Y0072724D01*
X0102218Y0072582D01*
X0102048Y0072444D01*
X0101874Y0072310D01*
X0101698Y0072180D01*
X0101518Y0072055D01*
X0101335Y0071934D01*
X0101149Y0071818D01*
X0100961Y0071706D01*
X0100770Y0071599D01*
X0100576Y0071496D01*
X0100380Y0071398D01*
X0100182Y0071305D01*
X0099981Y0071217D01*
X0099778Y0071134D01*
X0099573Y0071055D01*
X0099367Y0070982D01*
X0099159Y0070914D01*
X0098949Y0070851D01*
X0098737Y0070793D01*
X0098525Y0070740D01*
X0098311Y0070692D01*
X0098096Y0070650D01*
X0097880Y0070613D01*
X0097663Y0070581D01*
X0097445Y0070554D01*
X0097227Y0070533D01*
X0097009Y0070517D01*
X0096790Y0070506D01*
X0096571Y0070501D01*
X0096351Y0070501D01*
X0096132Y0070506D01*
X0095913Y0070517D01*
X0095695Y0070533D01*
X0095477Y0070554D01*
X0095259Y0070581D01*
X0095042Y0070613D01*
X0094826Y0070650D01*
X0094611Y0070692D01*
X0094397Y0070740D01*
X0094185Y0070793D01*
X0093973Y0070851D01*
X0093763Y0070914D01*
X0093555Y0070982D01*
X0093349Y0071055D01*
X0093144Y0071134D01*
X0092941Y0071217D01*
X0092740Y0071305D01*
X0092542Y0071398D01*
X0092346Y0071496D01*
X0092152Y0071599D01*
X0091961Y0071706D01*
X0091773Y0071818D01*
X0091587Y0071934D01*
X0091404Y0072055D01*
X0091224Y0072180D01*
X0091048Y0072310D01*
X0090874Y0072444D01*
X0090704Y0072582D01*
X0090537Y0072724D01*
X0090374Y0072871D01*
X0090214Y0073021D01*
X0090058Y0073175D01*
X0089906Y0073333D01*
X0089758Y0073494D01*
X0089614Y0073659D01*
X0089474Y0073828D01*
X0089338Y0073999D01*
X0089206Y0074175D01*
X0089078Y0074353D01*
X0088955Y0074534D01*
X0088836Y0074718D01*
X0088722Y0074905D01*
X0088613Y0075095D01*
X0088508Y0075288D01*
X0088407Y0075483D01*
X0088312Y0075680D01*
X0088221Y0075879D01*
X0088136Y0076081D01*
X0088055Y0076285D01*
X0087979Y0076491D01*
X0087908Y0076698D01*
X0087843Y0076907D01*
X0087782Y0077118D01*
X0087727Y0077330D01*
X0087676Y0077543D01*
X0087631Y0077758D01*
X0087591Y0077973D01*
X0087557Y0078190D01*
X0087528Y0078407D01*
X0087504Y0078625D01*
X0087485Y0078843D01*
X0087472Y0079062D01*
X0087464Y0079281D01*
X0087461Y0079500D01*
D20*
X0089461Y0119800D02*
X0083461Y0119800D01*
X0083461Y0122300D02*
X0089461Y0122300D01*
X0095261Y0133500D02*
X0095261Y0136000D01*
X0095261Y0138500D01*
X0097761Y0138500D02*
X0097761Y0136000D01*
X0097761Y0133500D01*
X0103461Y0122300D02*
X0109461Y0122300D01*
X0109461Y0119800D02*
X0103461Y0119800D01*
X0188961Y0134700D02*
X0191461Y0134700D01*
X0193961Y0134700D01*
X0193961Y0137200D02*
X0191461Y0137200D01*
X0188961Y0137200D01*
M02*
