G75*
%MOIN*%
%OFA0B0*%
%FSLAX25Y25*%
%IPPOS*%
%LPD*%
%AMOC8*
5,1,8,0,0,1.08239X$1,22.5*
%
%ADD10C,0.00000*%
D10*
X0021461Y0001000D02*
X0021461Y0250961D01*
X0272661Y0250961D01*
X0272661Y0001000D01*
X0021461Y0001000D01*
X0027461Y0013500D02*
X0027463Y0013661D01*
X0027469Y0013821D01*
X0027479Y0013982D01*
X0027493Y0014142D01*
X0027511Y0014302D01*
X0027532Y0014461D01*
X0027558Y0014620D01*
X0027588Y0014778D01*
X0027621Y0014935D01*
X0027659Y0015092D01*
X0027700Y0015247D01*
X0027745Y0015401D01*
X0027794Y0015554D01*
X0027847Y0015706D01*
X0027903Y0015857D01*
X0027964Y0016006D01*
X0028027Y0016154D01*
X0028095Y0016300D01*
X0028166Y0016444D01*
X0028240Y0016586D01*
X0028318Y0016727D01*
X0028400Y0016865D01*
X0028485Y0017002D01*
X0028573Y0017136D01*
X0028665Y0017268D01*
X0028760Y0017398D01*
X0028858Y0017526D01*
X0028959Y0017651D01*
X0029063Y0017773D01*
X0029170Y0017893D01*
X0029280Y0018010D01*
X0029393Y0018125D01*
X0029509Y0018236D01*
X0029628Y0018345D01*
X0029749Y0018450D01*
X0029873Y0018553D01*
X0029999Y0018653D01*
X0030127Y0018749D01*
X0030258Y0018842D01*
X0030392Y0018932D01*
X0030527Y0019019D01*
X0030665Y0019102D01*
X0030804Y0019182D01*
X0030946Y0019258D01*
X0031089Y0019331D01*
X0031234Y0019400D01*
X0031381Y0019466D01*
X0031529Y0019528D01*
X0031679Y0019586D01*
X0031830Y0019641D01*
X0031983Y0019692D01*
X0032137Y0019739D01*
X0032292Y0019782D01*
X0032448Y0019821D01*
X0032604Y0019857D01*
X0032762Y0019888D01*
X0032920Y0019916D01*
X0033079Y0019940D01*
X0033239Y0019960D01*
X0033399Y0019976D01*
X0033559Y0019988D01*
X0033720Y0019996D01*
X0033881Y0020000D01*
X0034041Y0020000D01*
X0034202Y0019996D01*
X0034363Y0019988D01*
X0034523Y0019976D01*
X0034683Y0019960D01*
X0034843Y0019940D01*
X0035002Y0019916D01*
X0035160Y0019888D01*
X0035318Y0019857D01*
X0035474Y0019821D01*
X0035630Y0019782D01*
X0035785Y0019739D01*
X0035939Y0019692D01*
X0036092Y0019641D01*
X0036243Y0019586D01*
X0036393Y0019528D01*
X0036541Y0019466D01*
X0036688Y0019400D01*
X0036833Y0019331D01*
X0036976Y0019258D01*
X0037118Y0019182D01*
X0037257Y0019102D01*
X0037395Y0019019D01*
X0037530Y0018932D01*
X0037664Y0018842D01*
X0037795Y0018749D01*
X0037923Y0018653D01*
X0038049Y0018553D01*
X0038173Y0018450D01*
X0038294Y0018345D01*
X0038413Y0018236D01*
X0038529Y0018125D01*
X0038642Y0018010D01*
X0038752Y0017893D01*
X0038859Y0017773D01*
X0038963Y0017651D01*
X0039064Y0017526D01*
X0039162Y0017398D01*
X0039257Y0017268D01*
X0039349Y0017136D01*
X0039437Y0017002D01*
X0039522Y0016865D01*
X0039604Y0016727D01*
X0039682Y0016586D01*
X0039756Y0016444D01*
X0039827Y0016300D01*
X0039895Y0016154D01*
X0039958Y0016006D01*
X0040019Y0015857D01*
X0040075Y0015706D01*
X0040128Y0015554D01*
X0040177Y0015401D01*
X0040222Y0015247D01*
X0040263Y0015092D01*
X0040301Y0014935D01*
X0040334Y0014778D01*
X0040364Y0014620D01*
X0040390Y0014461D01*
X0040411Y0014302D01*
X0040429Y0014142D01*
X0040443Y0013982D01*
X0040453Y0013821D01*
X0040459Y0013661D01*
X0040461Y0013500D01*
X0040459Y0013339D01*
X0040453Y0013179D01*
X0040443Y0013018D01*
X0040429Y0012858D01*
X0040411Y0012698D01*
X0040390Y0012539D01*
X0040364Y0012380D01*
X0040334Y0012222D01*
X0040301Y0012065D01*
X0040263Y0011908D01*
X0040222Y0011753D01*
X0040177Y0011599D01*
X0040128Y0011446D01*
X0040075Y0011294D01*
X0040019Y0011143D01*
X0039958Y0010994D01*
X0039895Y0010846D01*
X0039827Y0010700D01*
X0039756Y0010556D01*
X0039682Y0010414D01*
X0039604Y0010273D01*
X0039522Y0010135D01*
X0039437Y0009998D01*
X0039349Y0009864D01*
X0039257Y0009732D01*
X0039162Y0009602D01*
X0039064Y0009474D01*
X0038963Y0009349D01*
X0038859Y0009227D01*
X0038752Y0009107D01*
X0038642Y0008990D01*
X0038529Y0008875D01*
X0038413Y0008764D01*
X0038294Y0008655D01*
X0038173Y0008550D01*
X0038049Y0008447D01*
X0037923Y0008347D01*
X0037795Y0008251D01*
X0037664Y0008158D01*
X0037530Y0008068D01*
X0037395Y0007981D01*
X0037257Y0007898D01*
X0037118Y0007818D01*
X0036976Y0007742D01*
X0036833Y0007669D01*
X0036688Y0007600D01*
X0036541Y0007534D01*
X0036393Y0007472D01*
X0036243Y0007414D01*
X0036092Y0007359D01*
X0035939Y0007308D01*
X0035785Y0007261D01*
X0035630Y0007218D01*
X0035474Y0007179D01*
X0035318Y0007143D01*
X0035160Y0007112D01*
X0035002Y0007084D01*
X0034843Y0007060D01*
X0034683Y0007040D01*
X0034523Y0007024D01*
X0034363Y0007012D01*
X0034202Y0007004D01*
X0034041Y0007000D01*
X0033881Y0007000D01*
X0033720Y0007004D01*
X0033559Y0007012D01*
X0033399Y0007024D01*
X0033239Y0007040D01*
X0033079Y0007060D01*
X0032920Y0007084D01*
X0032762Y0007112D01*
X0032604Y0007143D01*
X0032448Y0007179D01*
X0032292Y0007218D01*
X0032137Y0007261D01*
X0031983Y0007308D01*
X0031830Y0007359D01*
X0031679Y0007414D01*
X0031529Y0007472D01*
X0031381Y0007534D01*
X0031234Y0007600D01*
X0031089Y0007669D01*
X0030946Y0007742D01*
X0030804Y0007818D01*
X0030665Y0007898D01*
X0030527Y0007981D01*
X0030392Y0008068D01*
X0030258Y0008158D01*
X0030127Y0008251D01*
X0029999Y0008347D01*
X0029873Y0008447D01*
X0029749Y0008550D01*
X0029628Y0008655D01*
X0029509Y0008764D01*
X0029393Y0008875D01*
X0029280Y0008990D01*
X0029170Y0009107D01*
X0029063Y0009227D01*
X0028959Y0009349D01*
X0028858Y0009474D01*
X0028760Y0009602D01*
X0028665Y0009732D01*
X0028573Y0009864D01*
X0028485Y0009998D01*
X0028400Y0010135D01*
X0028318Y0010273D01*
X0028240Y0010414D01*
X0028166Y0010556D01*
X0028095Y0010700D01*
X0028027Y0010846D01*
X0027964Y0010994D01*
X0027903Y0011143D01*
X0027847Y0011294D01*
X0027794Y0011446D01*
X0027745Y0011599D01*
X0027700Y0011753D01*
X0027659Y0011908D01*
X0027621Y0012065D01*
X0027588Y0012222D01*
X0027558Y0012380D01*
X0027532Y0012539D01*
X0027511Y0012698D01*
X0027493Y0012858D01*
X0027479Y0013018D01*
X0027469Y0013179D01*
X0027463Y0013339D01*
X0027461Y0013500D01*
X0252461Y0013500D02*
X0252463Y0013661D01*
X0252469Y0013821D01*
X0252479Y0013982D01*
X0252493Y0014142D01*
X0252511Y0014302D01*
X0252532Y0014461D01*
X0252558Y0014620D01*
X0252588Y0014778D01*
X0252621Y0014935D01*
X0252659Y0015092D01*
X0252700Y0015247D01*
X0252745Y0015401D01*
X0252794Y0015554D01*
X0252847Y0015706D01*
X0252903Y0015857D01*
X0252964Y0016006D01*
X0253027Y0016154D01*
X0253095Y0016300D01*
X0253166Y0016444D01*
X0253240Y0016586D01*
X0253318Y0016727D01*
X0253400Y0016865D01*
X0253485Y0017002D01*
X0253573Y0017136D01*
X0253665Y0017268D01*
X0253760Y0017398D01*
X0253858Y0017526D01*
X0253959Y0017651D01*
X0254063Y0017773D01*
X0254170Y0017893D01*
X0254280Y0018010D01*
X0254393Y0018125D01*
X0254509Y0018236D01*
X0254628Y0018345D01*
X0254749Y0018450D01*
X0254873Y0018553D01*
X0254999Y0018653D01*
X0255127Y0018749D01*
X0255258Y0018842D01*
X0255392Y0018932D01*
X0255527Y0019019D01*
X0255665Y0019102D01*
X0255804Y0019182D01*
X0255946Y0019258D01*
X0256089Y0019331D01*
X0256234Y0019400D01*
X0256381Y0019466D01*
X0256529Y0019528D01*
X0256679Y0019586D01*
X0256830Y0019641D01*
X0256983Y0019692D01*
X0257137Y0019739D01*
X0257292Y0019782D01*
X0257448Y0019821D01*
X0257604Y0019857D01*
X0257762Y0019888D01*
X0257920Y0019916D01*
X0258079Y0019940D01*
X0258239Y0019960D01*
X0258399Y0019976D01*
X0258559Y0019988D01*
X0258720Y0019996D01*
X0258881Y0020000D01*
X0259041Y0020000D01*
X0259202Y0019996D01*
X0259363Y0019988D01*
X0259523Y0019976D01*
X0259683Y0019960D01*
X0259843Y0019940D01*
X0260002Y0019916D01*
X0260160Y0019888D01*
X0260318Y0019857D01*
X0260474Y0019821D01*
X0260630Y0019782D01*
X0260785Y0019739D01*
X0260939Y0019692D01*
X0261092Y0019641D01*
X0261243Y0019586D01*
X0261393Y0019528D01*
X0261541Y0019466D01*
X0261688Y0019400D01*
X0261833Y0019331D01*
X0261976Y0019258D01*
X0262118Y0019182D01*
X0262257Y0019102D01*
X0262395Y0019019D01*
X0262530Y0018932D01*
X0262664Y0018842D01*
X0262795Y0018749D01*
X0262923Y0018653D01*
X0263049Y0018553D01*
X0263173Y0018450D01*
X0263294Y0018345D01*
X0263413Y0018236D01*
X0263529Y0018125D01*
X0263642Y0018010D01*
X0263752Y0017893D01*
X0263859Y0017773D01*
X0263963Y0017651D01*
X0264064Y0017526D01*
X0264162Y0017398D01*
X0264257Y0017268D01*
X0264349Y0017136D01*
X0264437Y0017002D01*
X0264522Y0016865D01*
X0264604Y0016727D01*
X0264682Y0016586D01*
X0264756Y0016444D01*
X0264827Y0016300D01*
X0264895Y0016154D01*
X0264958Y0016006D01*
X0265019Y0015857D01*
X0265075Y0015706D01*
X0265128Y0015554D01*
X0265177Y0015401D01*
X0265222Y0015247D01*
X0265263Y0015092D01*
X0265301Y0014935D01*
X0265334Y0014778D01*
X0265364Y0014620D01*
X0265390Y0014461D01*
X0265411Y0014302D01*
X0265429Y0014142D01*
X0265443Y0013982D01*
X0265453Y0013821D01*
X0265459Y0013661D01*
X0265461Y0013500D01*
X0265459Y0013339D01*
X0265453Y0013179D01*
X0265443Y0013018D01*
X0265429Y0012858D01*
X0265411Y0012698D01*
X0265390Y0012539D01*
X0265364Y0012380D01*
X0265334Y0012222D01*
X0265301Y0012065D01*
X0265263Y0011908D01*
X0265222Y0011753D01*
X0265177Y0011599D01*
X0265128Y0011446D01*
X0265075Y0011294D01*
X0265019Y0011143D01*
X0264958Y0010994D01*
X0264895Y0010846D01*
X0264827Y0010700D01*
X0264756Y0010556D01*
X0264682Y0010414D01*
X0264604Y0010273D01*
X0264522Y0010135D01*
X0264437Y0009998D01*
X0264349Y0009864D01*
X0264257Y0009732D01*
X0264162Y0009602D01*
X0264064Y0009474D01*
X0263963Y0009349D01*
X0263859Y0009227D01*
X0263752Y0009107D01*
X0263642Y0008990D01*
X0263529Y0008875D01*
X0263413Y0008764D01*
X0263294Y0008655D01*
X0263173Y0008550D01*
X0263049Y0008447D01*
X0262923Y0008347D01*
X0262795Y0008251D01*
X0262664Y0008158D01*
X0262530Y0008068D01*
X0262395Y0007981D01*
X0262257Y0007898D01*
X0262118Y0007818D01*
X0261976Y0007742D01*
X0261833Y0007669D01*
X0261688Y0007600D01*
X0261541Y0007534D01*
X0261393Y0007472D01*
X0261243Y0007414D01*
X0261092Y0007359D01*
X0260939Y0007308D01*
X0260785Y0007261D01*
X0260630Y0007218D01*
X0260474Y0007179D01*
X0260318Y0007143D01*
X0260160Y0007112D01*
X0260002Y0007084D01*
X0259843Y0007060D01*
X0259683Y0007040D01*
X0259523Y0007024D01*
X0259363Y0007012D01*
X0259202Y0007004D01*
X0259041Y0007000D01*
X0258881Y0007000D01*
X0258720Y0007004D01*
X0258559Y0007012D01*
X0258399Y0007024D01*
X0258239Y0007040D01*
X0258079Y0007060D01*
X0257920Y0007084D01*
X0257762Y0007112D01*
X0257604Y0007143D01*
X0257448Y0007179D01*
X0257292Y0007218D01*
X0257137Y0007261D01*
X0256983Y0007308D01*
X0256830Y0007359D01*
X0256679Y0007414D01*
X0256529Y0007472D01*
X0256381Y0007534D01*
X0256234Y0007600D01*
X0256089Y0007669D01*
X0255946Y0007742D01*
X0255804Y0007818D01*
X0255665Y0007898D01*
X0255527Y0007981D01*
X0255392Y0008068D01*
X0255258Y0008158D01*
X0255127Y0008251D01*
X0254999Y0008347D01*
X0254873Y0008447D01*
X0254749Y0008550D01*
X0254628Y0008655D01*
X0254509Y0008764D01*
X0254393Y0008875D01*
X0254280Y0008990D01*
X0254170Y0009107D01*
X0254063Y0009227D01*
X0253959Y0009349D01*
X0253858Y0009474D01*
X0253760Y0009602D01*
X0253665Y0009732D01*
X0253573Y0009864D01*
X0253485Y0009998D01*
X0253400Y0010135D01*
X0253318Y0010273D01*
X0253240Y0010414D01*
X0253166Y0010556D01*
X0253095Y0010700D01*
X0253027Y0010846D01*
X0252964Y0010994D01*
X0252903Y0011143D01*
X0252847Y0011294D01*
X0252794Y0011446D01*
X0252745Y0011599D01*
X0252700Y0011753D01*
X0252659Y0011908D01*
X0252621Y0012065D01*
X0252588Y0012222D01*
X0252558Y0012380D01*
X0252532Y0012539D01*
X0252511Y0012698D01*
X0252493Y0012858D01*
X0252479Y0013018D01*
X0252469Y0013179D01*
X0252463Y0013339D01*
X0252461Y0013500D01*
X0252461Y0238500D02*
X0252463Y0238661D01*
X0252469Y0238821D01*
X0252479Y0238982D01*
X0252493Y0239142D01*
X0252511Y0239302D01*
X0252532Y0239461D01*
X0252558Y0239620D01*
X0252588Y0239778D01*
X0252621Y0239935D01*
X0252659Y0240092D01*
X0252700Y0240247D01*
X0252745Y0240401D01*
X0252794Y0240554D01*
X0252847Y0240706D01*
X0252903Y0240857D01*
X0252964Y0241006D01*
X0253027Y0241154D01*
X0253095Y0241300D01*
X0253166Y0241444D01*
X0253240Y0241586D01*
X0253318Y0241727D01*
X0253400Y0241865D01*
X0253485Y0242002D01*
X0253573Y0242136D01*
X0253665Y0242268D01*
X0253760Y0242398D01*
X0253858Y0242526D01*
X0253959Y0242651D01*
X0254063Y0242773D01*
X0254170Y0242893D01*
X0254280Y0243010D01*
X0254393Y0243125D01*
X0254509Y0243236D01*
X0254628Y0243345D01*
X0254749Y0243450D01*
X0254873Y0243553D01*
X0254999Y0243653D01*
X0255127Y0243749D01*
X0255258Y0243842D01*
X0255392Y0243932D01*
X0255527Y0244019D01*
X0255665Y0244102D01*
X0255804Y0244182D01*
X0255946Y0244258D01*
X0256089Y0244331D01*
X0256234Y0244400D01*
X0256381Y0244466D01*
X0256529Y0244528D01*
X0256679Y0244586D01*
X0256830Y0244641D01*
X0256983Y0244692D01*
X0257137Y0244739D01*
X0257292Y0244782D01*
X0257448Y0244821D01*
X0257604Y0244857D01*
X0257762Y0244888D01*
X0257920Y0244916D01*
X0258079Y0244940D01*
X0258239Y0244960D01*
X0258399Y0244976D01*
X0258559Y0244988D01*
X0258720Y0244996D01*
X0258881Y0245000D01*
X0259041Y0245000D01*
X0259202Y0244996D01*
X0259363Y0244988D01*
X0259523Y0244976D01*
X0259683Y0244960D01*
X0259843Y0244940D01*
X0260002Y0244916D01*
X0260160Y0244888D01*
X0260318Y0244857D01*
X0260474Y0244821D01*
X0260630Y0244782D01*
X0260785Y0244739D01*
X0260939Y0244692D01*
X0261092Y0244641D01*
X0261243Y0244586D01*
X0261393Y0244528D01*
X0261541Y0244466D01*
X0261688Y0244400D01*
X0261833Y0244331D01*
X0261976Y0244258D01*
X0262118Y0244182D01*
X0262257Y0244102D01*
X0262395Y0244019D01*
X0262530Y0243932D01*
X0262664Y0243842D01*
X0262795Y0243749D01*
X0262923Y0243653D01*
X0263049Y0243553D01*
X0263173Y0243450D01*
X0263294Y0243345D01*
X0263413Y0243236D01*
X0263529Y0243125D01*
X0263642Y0243010D01*
X0263752Y0242893D01*
X0263859Y0242773D01*
X0263963Y0242651D01*
X0264064Y0242526D01*
X0264162Y0242398D01*
X0264257Y0242268D01*
X0264349Y0242136D01*
X0264437Y0242002D01*
X0264522Y0241865D01*
X0264604Y0241727D01*
X0264682Y0241586D01*
X0264756Y0241444D01*
X0264827Y0241300D01*
X0264895Y0241154D01*
X0264958Y0241006D01*
X0265019Y0240857D01*
X0265075Y0240706D01*
X0265128Y0240554D01*
X0265177Y0240401D01*
X0265222Y0240247D01*
X0265263Y0240092D01*
X0265301Y0239935D01*
X0265334Y0239778D01*
X0265364Y0239620D01*
X0265390Y0239461D01*
X0265411Y0239302D01*
X0265429Y0239142D01*
X0265443Y0238982D01*
X0265453Y0238821D01*
X0265459Y0238661D01*
X0265461Y0238500D01*
X0265459Y0238339D01*
X0265453Y0238179D01*
X0265443Y0238018D01*
X0265429Y0237858D01*
X0265411Y0237698D01*
X0265390Y0237539D01*
X0265364Y0237380D01*
X0265334Y0237222D01*
X0265301Y0237065D01*
X0265263Y0236908D01*
X0265222Y0236753D01*
X0265177Y0236599D01*
X0265128Y0236446D01*
X0265075Y0236294D01*
X0265019Y0236143D01*
X0264958Y0235994D01*
X0264895Y0235846D01*
X0264827Y0235700D01*
X0264756Y0235556D01*
X0264682Y0235414D01*
X0264604Y0235273D01*
X0264522Y0235135D01*
X0264437Y0234998D01*
X0264349Y0234864D01*
X0264257Y0234732D01*
X0264162Y0234602D01*
X0264064Y0234474D01*
X0263963Y0234349D01*
X0263859Y0234227D01*
X0263752Y0234107D01*
X0263642Y0233990D01*
X0263529Y0233875D01*
X0263413Y0233764D01*
X0263294Y0233655D01*
X0263173Y0233550D01*
X0263049Y0233447D01*
X0262923Y0233347D01*
X0262795Y0233251D01*
X0262664Y0233158D01*
X0262530Y0233068D01*
X0262395Y0232981D01*
X0262257Y0232898D01*
X0262118Y0232818D01*
X0261976Y0232742D01*
X0261833Y0232669D01*
X0261688Y0232600D01*
X0261541Y0232534D01*
X0261393Y0232472D01*
X0261243Y0232414D01*
X0261092Y0232359D01*
X0260939Y0232308D01*
X0260785Y0232261D01*
X0260630Y0232218D01*
X0260474Y0232179D01*
X0260318Y0232143D01*
X0260160Y0232112D01*
X0260002Y0232084D01*
X0259843Y0232060D01*
X0259683Y0232040D01*
X0259523Y0232024D01*
X0259363Y0232012D01*
X0259202Y0232004D01*
X0259041Y0232000D01*
X0258881Y0232000D01*
X0258720Y0232004D01*
X0258559Y0232012D01*
X0258399Y0232024D01*
X0258239Y0232040D01*
X0258079Y0232060D01*
X0257920Y0232084D01*
X0257762Y0232112D01*
X0257604Y0232143D01*
X0257448Y0232179D01*
X0257292Y0232218D01*
X0257137Y0232261D01*
X0256983Y0232308D01*
X0256830Y0232359D01*
X0256679Y0232414D01*
X0256529Y0232472D01*
X0256381Y0232534D01*
X0256234Y0232600D01*
X0256089Y0232669D01*
X0255946Y0232742D01*
X0255804Y0232818D01*
X0255665Y0232898D01*
X0255527Y0232981D01*
X0255392Y0233068D01*
X0255258Y0233158D01*
X0255127Y0233251D01*
X0254999Y0233347D01*
X0254873Y0233447D01*
X0254749Y0233550D01*
X0254628Y0233655D01*
X0254509Y0233764D01*
X0254393Y0233875D01*
X0254280Y0233990D01*
X0254170Y0234107D01*
X0254063Y0234227D01*
X0253959Y0234349D01*
X0253858Y0234474D01*
X0253760Y0234602D01*
X0253665Y0234732D01*
X0253573Y0234864D01*
X0253485Y0234998D01*
X0253400Y0235135D01*
X0253318Y0235273D01*
X0253240Y0235414D01*
X0253166Y0235556D01*
X0253095Y0235700D01*
X0253027Y0235846D01*
X0252964Y0235994D01*
X0252903Y0236143D01*
X0252847Y0236294D01*
X0252794Y0236446D01*
X0252745Y0236599D01*
X0252700Y0236753D01*
X0252659Y0236908D01*
X0252621Y0237065D01*
X0252588Y0237222D01*
X0252558Y0237380D01*
X0252532Y0237539D01*
X0252511Y0237698D01*
X0252493Y0237858D01*
X0252479Y0238018D01*
X0252469Y0238179D01*
X0252463Y0238339D01*
X0252461Y0238500D01*
X0027461Y0238500D02*
X0027463Y0238661D01*
X0027469Y0238821D01*
X0027479Y0238982D01*
X0027493Y0239142D01*
X0027511Y0239302D01*
X0027532Y0239461D01*
X0027558Y0239620D01*
X0027588Y0239778D01*
X0027621Y0239935D01*
X0027659Y0240092D01*
X0027700Y0240247D01*
X0027745Y0240401D01*
X0027794Y0240554D01*
X0027847Y0240706D01*
X0027903Y0240857D01*
X0027964Y0241006D01*
X0028027Y0241154D01*
X0028095Y0241300D01*
X0028166Y0241444D01*
X0028240Y0241586D01*
X0028318Y0241727D01*
X0028400Y0241865D01*
X0028485Y0242002D01*
X0028573Y0242136D01*
X0028665Y0242268D01*
X0028760Y0242398D01*
X0028858Y0242526D01*
X0028959Y0242651D01*
X0029063Y0242773D01*
X0029170Y0242893D01*
X0029280Y0243010D01*
X0029393Y0243125D01*
X0029509Y0243236D01*
X0029628Y0243345D01*
X0029749Y0243450D01*
X0029873Y0243553D01*
X0029999Y0243653D01*
X0030127Y0243749D01*
X0030258Y0243842D01*
X0030392Y0243932D01*
X0030527Y0244019D01*
X0030665Y0244102D01*
X0030804Y0244182D01*
X0030946Y0244258D01*
X0031089Y0244331D01*
X0031234Y0244400D01*
X0031381Y0244466D01*
X0031529Y0244528D01*
X0031679Y0244586D01*
X0031830Y0244641D01*
X0031983Y0244692D01*
X0032137Y0244739D01*
X0032292Y0244782D01*
X0032448Y0244821D01*
X0032604Y0244857D01*
X0032762Y0244888D01*
X0032920Y0244916D01*
X0033079Y0244940D01*
X0033239Y0244960D01*
X0033399Y0244976D01*
X0033559Y0244988D01*
X0033720Y0244996D01*
X0033881Y0245000D01*
X0034041Y0245000D01*
X0034202Y0244996D01*
X0034363Y0244988D01*
X0034523Y0244976D01*
X0034683Y0244960D01*
X0034843Y0244940D01*
X0035002Y0244916D01*
X0035160Y0244888D01*
X0035318Y0244857D01*
X0035474Y0244821D01*
X0035630Y0244782D01*
X0035785Y0244739D01*
X0035939Y0244692D01*
X0036092Y0244641D01*
X0036243Y0244586D01*
X0036393Y0244528D01*
X0036541Y0244466D01*
X0036688Y0244400D01*
X0036833Y0244331D01*
X0036976Y0244258D01*
X0037118Y0244182D01*
X0037257Y0244102D01*
X0037395Y0244019D01*
X0037530Y0243932D01*
X0037664Y0243842D01*
X0037795Y0243749D01*
X0037923Y0243653D01*
X0038049Y0243553D01*
X0038173Y0243450D01*
X0038294Y0243345D01*
X0038413Y0243236D01*
X0038529Y0243125D01*
X0038642Y0243010D01*
X0038752Y0242893D01*
X0038859Y0242773D01*
X0038963Y0242651D01*
X0039064Y0242526D01*
X0039162Y0242398D01*
X0039257Y0242268D01*
X0039349Y0242136D01*
X0039437Y0242002D01*
X0039522Y0241865D01*
X0039604Y0241727D01*
X0039682Y0241586D01*
X0039756Y0241444D01*
X0039827Y0241300D01*
X0039895Y0241154D01*
X0039958Y0241006D01*
X0040019Y0240857D01*
X0040075Y0240706D01*
X0040128Y0240554D01*
X0040177Y0240401D01*
X0040222Y0240247D01*
X0040263Y0240092D01*
X0040301Y0239935D01*
X0040334Y0239778D01*
X0040364Y0239620D01*
X0040390Y0239461D01*
X0040411Y0239302D01*
X0040429Y0239142D01*
X0040443Y0238982D01*
X0040453Y0238821D01*
X0040459Y0238661D01*
X0040461Y0238500D01*
X0040459Y0238339D01*
X0040453Y0238179D01*
X0040443Y0238018D01*
X0040429Y0237858D01*
X0040411Y0237698D01*
X0040390Y0237539D01*
X0040364Y0237380D01*
X0040334Y0237222D01*
X0040301Y0237065D01*
X0040263Y0236908D01*
X0040222Y0236753D01*
X0040177Y0236599D01*
X0040128Y0236446D01*
X0040075Y0236294D01*
X0040019Y0236143D01*
X0039958Y0235994D01*
X0039895Y0235846D01*
X0039827Y0235700D01*
X0039756Y0235556D01*
X0039682Y0235414D01*
X0039604Y0235273D01*
X0039522Y0235135D01*
X0039437Y0234998D01*
X0039349Y0234864D01*
X0039257Y0234732D01*
X0039162Y0234602D01*
X0039064Y0234474D01*
X0038963Y0234349D01*
X0038859Y0234227D01*
X0038752Y0234107D01*
X0038642Y0233990D01*
X0038529Y0233875D01*
X0038413Y0233764D01*
X0038294Y0233655D01*
X0038173Y0233550D01*
X0038049Y0233447D01*
X0037923Y0233347D01*
X0037795Y0233251D01*
X0037664Y0233158D01*
X0037530Y0233068D01*
X0037395Y0232981D01*
X0037257Y0232898D01*
X0037118Y0232818D01*
X0036976Y0232742D01*
X0036833Y0232669D01*
X0036688Y0232600D01*
X0036541Y0232534D01*
X0036393Y0232472D01*
X0036243Y0232414D01*
X0036092Y0232359D01*
X0035939Y0232308D01*
X0035785Y0232261D01*
X0035630Y0232218D01*
X0035474Y0232179D01*
X0035318Y0232143D01*
X0035160Y0232112D01*
X0035002Y0232084D01*
X0034843Y0232060D01*
X0034683Y0232040D01*
X0034523Y0232024D01*
X0034363Y0232012D01*
X0034202Y0232004D01*
X0034041Y0232000D01*
X0033881Y0232000D01*
X0033720Y0232004D01*
X0033559Y0232012D01*
X0033399Y0232024D01*
X0033239Y0232040D01*
X0033079Y0232060D01*
X0032920Y0232084D01*
X0032762Y0232112D01*
X0032604Y0232143D01*
X0032448Y0232179D01*
X0032292Y0232218D01*
X0032137Y0232261D01*
X0031983Y0232308D01*
X0031830Y0232359D01*
X0031679Y0232414D01*
X0031529Y0232472D01*
X0031381Y0232534D01*
X0031234Y0232600D01*
X0031089Y0232669D01*
X0030946Y0232742D01*
X0030804Y0232818D01*
X0030665Y0232898D01*
X0030527Y0232981D01*
X0030392Y0233068D01*
X0030258Y0233158D01*
X0030127Y0233251D01*
X0029999Y0233347D01*
X0029873Y0233447D01*
X0029749Y0233550D01*
X0029628Y0233655D01*
X0029509Y0233764D01*
X0029393Y0233875D01*
X0029280Y0233990D01*
X0029170Y0234107D01*
X0029063Y0234227D01*
X0028959Y0234349D01*
X0028858Y0234474D01*
X0028760Y0234602D01*
X0028665Y0234732D01*
X0028573Y0234864D01*
X0028485Y0234998D01*
X0028400Y0235135D01*
X0028318Y0235273D01*
X0028240Y0235414D01*
X0028166Y0235556D01*
X0028095Y0235700D01*
X0028027Y0235846D01*
X0027964Y0235994D01*
X0027903Y0236143D01*
X0027847Y0236294D01*
X0027794Y0236446D01*
X0027745Y0236599D01*
X0027700Y0236753D01*
X0027659Y0236908D01*
X0027621Y0237065D01*
X0027588Y0237222D01*
X0027558Y0237380D01*
X0027532Y0237539D01*
X0027511Y0237698D01*
X0027493Y0237858D01*
X0027479Y0238018D01*
X0027469Y0238179D01*
X0027463Y0238339D01*
X0027461Y0238500D01*
M02*
