G75*
G70*
%OFA0B0*%
%FSLAX24Y24*%
%IPPOS*%
%LPD*%
%AMOC8*
5,1,8,0,0,1.08239X$1,22.5*
%
%ADD10C,0.0000*%
%ADD11C,0.0040*%
%ADD12C,0.0100*%
%ADD13C,0.0030*%
%ADD14C,0.0060*%
%ADD15C,0.0070*%
%ADD16C,0.0050*%
%ADD17C,0.0020*%
%ADD18C,0.0010*%
%ADD19C,0.0160*%
%ADD20C,0.0120*%
D10*
X002146Y000100D02*
X002146Y025096D01*
X027266Y025096D01*
X027266Y000100D01*
X002146Y000100D01*
X002746Y001350D02*
X002748Y001400D01*
X002754Y001450D01*
X002764Y001500D01*
X002777Y001548D01*
X002794Y001596D01*
X002815Y001642D01*
X002839Y001686D01*
X002867Y001728D01*
X002898Y001768D01*
X002932Y001805D01*
X002969Y001840D01*
X003008Y001871D01*
X003049Y001900D01*
X003093Y001925D01*
X003139Y001947D01*
X003186Y001965D01*
X003234Y001979D01*
X003283Y001990D01*
X003333Y001997D01*
X003383Y002000D01*
X003434Y001999D01*
X003484Y001994D01*
X003534Y001985D01*
X003582Y001973D01*
X003630Y001956D01*
X003676Y001936D01*
X003721Y001913D01*
X003764Y001886D01*
X003804Y001856D01*
X003842Y001823D01*
X003877Y001787D01*
X003910Y001748D01*
X003939Y001707D01*
X003965Y001664D01*
X003988Y001619D01*
X004007Y001572D01*
X004022Y001524D01*
X004034Y001475D01*
X004042Y001425D01*
X004046Y001375D01*
X004046Y001325D01*
X004042Y001275D01*
X004034Y001225D01*
X004022Y001176D01*
X004007Y001128D01*
X003988Y001081D01*
X003965Y001036D01*
X003939Y000993D01*
X003910Y000952D01*
X003877Y000913D01*
X003842Y000877D01*
X003804Y000844D01*
X003764Y000814D01*
X003721Y000787D01*
X003676Y000764D01*
X003630Y000744D01*
X003582Y000727D01*
X003534Y000715D01*
X003484Y000706D01*
X003434Y000701D01*
X003383Y000700D01*
X003333Y000703D01*
X003283Y000710D01*
X003234Y000721D01*
X003186Y000735D01*
X003139Y000753D01*
X003093Y000775D01*
X003049Y000800D01*
X003008Y000829D01*
X002969Y000860D01*
X002932Y000895D01*
X002898Y000932D01*
X002867Y000972D01*
X002839Y001014D01*
X002815Y001058D01*
X002794Y001104D01*
X002777Y001152D01*
X002764Y001200D01*
X002754Y001250D01*
X002748Y001300D01*
X002746Y001350D01*
X025246Y001350D02*
X025248Y001400D01*
X025254Y001450D01*
X025264Y001500D01*
X025277Y001548D01*
X025294Y001596D01*
X025315Y001642D01*
X025339Y001686D01*
X025367Y001728D01*
X025398Y001768D01*
X025432Y001805D01*
X025469Y001840D01*
X025508Y001871D01*
X025549Y001900D01*
X025593Y001925D01*
X025639Y001947D01*
X025686Y001965D01*
X025734Y001979D01*
X025783Y001990D01*
X025833Y001997D01*
X025883Y002000D01*
X025934Y001999D01*
X025984Y001994D01*
X026034Y001985D01*
X026082Y001973D01*
X026130Y001956D01*
X026176Y001936D01*
X026221Y001913D01*
X026264Y001886D01*
X026304Y001856D01*
X026342Y001823D01*
X026377Y001787D01*
X026410Y001748D01*
X026439Y001707D01*
X026465Y001664D01*
X026488Y001619D01*
X026507Y001572D01*
X026522Y001524D01*
X026534Y001475D01*
X026542Y001425D01*
X026546Y001375D01*
X026546Y001325D01*
X026542Y001275D01*
X026534Y001225D01*
X026522Y001176D01*
X026507Y001128D01*
X026488Y001081D01*
X026465Y001036D01*
X026439Y000993D01*
X026410Y000952D01*
X026377Y000913D01*
X026342Y000877D01*
X026304Y000844D01*
X026264Y000814D01*
X026221Y000787D01*
X026176Y000764D01*
X026130Y000744D01*
X026082Y000727D01*
X026034Y000715D01*
X025984Y000706D01*
X025934Y000701D01*
X025883Y000700D01*
X025833Y000703D01*
X025783Y000710D01*
X025734Y000721D01*
X025686Y000735D01*
X025639Y000753D01*
X025593Y000775D01*
X025549Y000800D01*
X025508Y000829D01*
X025469Y000860D01*
X025432Y000895D01*
X025398Y000932D01*
X025367Y000972D01*
X025339Y001014D01*
X025315Y001058D01*
X025294Y001104D01*
X025277Y001152D01*
X025264Y001200D01*
X025254Y001250D01*
X025248Y001300D01*
X025246Y001350D01*
X025246Y023850D02*
X025248Y023900D01*
X025254Y023950D01*
X025264Y024000D01*
X025277Y024048D01*
X025294Y024096D01*
X025315Y024142D01*
X025339Y024186D01*
X025367Y024228D01*
X025398Y024268D01*
X025432Y024305D01*
X025469Y024340D01*
X025508Y024371D01*
X025549Y024400D01*
X025593Y024425D01*
X025639Y024447D01*
X025686Y024465D01*
X025734Y024479D01*
X025783Y024490D01*
X025833Y024497D01*
X025883Y024500D01*
X025934Y024499D01*
X025984Y024494D01*
X026034Y024485D01*
X026082Y024473D01*
X026130Y024456D01*
X026176Y024436D01*
X026221Y024413D01*
X026264Y024386D01*
X026304Y024356D01*
X026342Y024323D01*
X026377Y024287D01*
X026410Y024248D01*
X026439Y024207D01*
X026465Y024164D01*
X026488Y024119D01*
X026507Y024072D01*
X026522Y024024D01*
X026534Y023975D01*
X026542Y023925D01*
X026546Y023875D01*
X026546Y023825D01*
X026542Y023775D01*
X026534Y023725D01*
X026522Y023676D01*
X026507Y023628D01*
X026488Y023581D01*
X026465Y023536D01*
X026439Y023493D01*
X026410Y023452D01*
X026377Y023413D01*
X026342Y023377D01*
X026304Y023344D01*
X026264Y023314D01*
X026221Y023287D01*
X026176Y023264D01*
X026130Y023244D01*
X026082Y023227D01*
X026034Y023215D01*
X025984Y023206D01*
X025934Y023201D01*
X025883Y023200D01*
X025833Y023203D01*
X025783Y023210D01*
X025734Y023221D01*
X025686Y023235D01*
X025639Y023253D01*
X025593Y023275D01*
X025549Y023300D01*
X025508Y023329D01*
X025469Y023360D01*
X025432Y023395D01*
X025398Y023432D01*
X025367Y023472D01*
X025339Y023514D01*
X025315Y023558D01*
X025294Y023604D01*
X025277Y023652D01*
X025264Y023700D01*
X025254Y023750D01*
X025248Y023800D01*
X025246Y023850D01*
X002746Y023850D02*
X002748Y023900D01*
X002754Y023950D01*
X002764Y024000D01*
X002777Y024048D01*
X002794Y024096D01*
X002815Y024142D01*
X002839Y024186D01*
X002867Y024228D01*
X002898Y024268D01*
X002932Y024305D01*
X002969Y024340D01*
X003008Y024371D01*
X003049Y024400D01*
X003093Y024425D01*
X003139Y024447D01*
X003186Y024465D01*
X003234Y024479D01*
X003283Y024490D01*
X003333Y024497D01*
X003383Y024500D01*
X003434Y024499D01*
X003484Y024494D01*
X003534Y024485D01*
X003582Y024473D01*
X003630Y024456D01*
X003676Y024436D01*
X003721Y024413D01*
X003764Y024386D01*
X003804Y024356D01*
X003842Y024323D01*
X003877Y024287D01*
X003910Y024248D01*
X003939Y024207D01*
X003965Y024164D01*
X003988Y024119D01*
X004007Y024072D01*
X004022Y024024D01*
X004034Y023975D01*
X004042Y023925D01*
X004046Y023875D01*
X004046Y023825D01*
X004042Y023775D01*
X004034Y023725D01*
X004022Y023676D01*
X004007Y023628D01*
X003988Y023581D01*
X003965Y023536D01*
X003939Y023493D01*
X003910Y023452D01*
X003877Y023413D01*
X003842Y023377D01*
X003804Y023344D01*
X003764Y023314D01*
X003721Y023287D01*
X003676Y023264D01*
X003630Y023244D01*
X003582Y023227D01*
X003534Y023215D01*
X003484Y023206D01*
X003434Y023201D01*
X003383Y023200D01*
X003333Y023203D01*
X003283Y023210D01*
X003234Y023221D01*
X003186Y023235D01*
X003139Y023253D01*
X003093Y023275D01*
X003049Y023300D01*
X003008Y023329D01*
X002969Y023360D01*
X002932Y023395D01*
X002898Y023432D01*
X002867Y023472D01*
X002839Y023514D01*
X002815Y023558D01*
X002794Y023604D01*
X002777Y023652D01*
X002764Y023700D01*
X002754Y023750D01*
X002748Y023800D01*
X002746Y023850D01*
D11*
X002820Y009080D02*
X002973Y009080D01*
X002896Y009080D02*
X002896Y008697D01*
X002820Y008620D01*
X002743Y008620D01*
X002666Y008697D01*
X003126Y008620D02*
X003433Y008620D01*
X003280Y008620D02*
X003280Y009080D01*
X003126Y008927D01*
X010666Y001080D02*
X010666Y000620D01*
X010666Y000850D02*
X010743Y000927D01*
X010896Y000927D01*
X010973Y000850D01*
X010973Y000620D01*
X011203Y000697D02*
X011280Y000620D01*
X011203Y000697D02*
X011203Y001004D01*
X011126Y000927D02*
X011280Y000927D01*
X011433Y000927D02*
X011587Y000927D01*
X011510Y001004D02*
X011510Y000697D01*
X011587Y000620D01*
X011740Y000620D02*
X011971Y000620D01*
X012047Y000697D01*
X012047Y000850D01*
X011971Y000927D01*
X011740Y000927D01*
X011740Y000467D01*
X012201Y000620D02*
X012201Y000697D01*
X012277Y000697D01*
X012277Y000620D01*
X012201Y000620D01*
X012431Y000620D02*
X012738Y001080D01*
X012993Y001370D02*
X013223Y001370D01*
X013223Y001677D01*
X013376Y001600D02*
X013453Y001677D01*
X013683Y001677D01*
X013837Y001677D02*
X014067Y001677D01*
X014144Y001600D01*
X014144Y001447D01*
X014067Y001370D01*
X013837Y001370D01*
X013837Y001830D01*
X013607Y001523D02*
X013453Y001523D01*
X013376Y001600D01*
X013376Y001370D02*
X013607Y001370D01*
X013683Y001447D01*
X013607Y001523D01*
X013198Y001080D02*
X012891Y000620D01*
X013352Y000697D02*
X013352Y000927D01*
X013352Y000697D02*
X013428Y000620D01*
X013505Y000697D01*
X013582Y000620D01*
X013659Y000697D01*
X013659Y000927D01*
X013812Y000850D02*
X013812Y000697D01*
X013889Y000620D01*
X014042Y000620D01*
X014119Y000697D01*
X014119Y000850D01*
X014042Y000927D01*
X013889Y000927D01*
X013812Y000850D01*
X014272Y000773D02*
X014426Y000927D01*
X014503Y000927D01*
X014656Y001080D02*
X014656Y000620D01*
X014656Y000773D02*
X014886Y000927D01*
X015040Y000927D02*
X015270Y000927D01*
X015347Y000850D01*
X015347Y000697D01*
X015270Y000620D01*
X015040Y000620D01*
X015040Y001080D01*
X015065Y001370D02*
X015065Y001677D01*
X015141Y001677D01*
X015218Y001600D01*
X015295Y001677D01*
X015371Y001600D01*
X015371Y001370D01*
X015218Y001370D02*
X015218Y001600D01*
X014911Y001370D02*
X014758Y001370D01*
X014834Y001370D02*
X014834Y001677D01*
X014758Y001677D01*
X014834Y001830D02*
X014834Y001907D01*
X014604Y001754D02*
X014527Y001830D01*
X014374Y001830D01*
X014297Y001754D01*
X014297Y001677D01*
X014374Y001600D01*
X014527Y001600D01*
X014604Y001523D01*
X014604Y001447D01*
X014527Y001370D01*
X014374Y001370D01*
X014297Y001447D01*
X014272Y000927D02*
X014272Y000620D01*
X014656Y000773D02*
X014886Y000620D01*
X015500Y000697D02*
X015500Y000850D01*
X015577Y000927D01*
X015730Y000927D01*
X015807Y000850D01*
X015807Y000773D01*
X015500Y000773D01*
X015500Y000697D02*
X015577Y000620D01*
X015730Y000620D01*
X015961Y000620D02*
X015961Y000927D01*
X016191Y000927D01*
X016268Y000850D01*
X016268Y000620D01*
X016421Y000697D02*
X016421Y000850D01*
X016498Y000927D01*
X016728Y000927D01*
X016881Y000850D02*
X016958Y000927D01*
X017112Y000927D01*
X017188Y000850D01*
X017188Y000620D01*
X017342Y000620D02*
X017418Y000620D01*
X017418Y000697D01*
X017342Y000697D01*
X017342Y000620D01*
X017649Y000620D02*
X017649Y001004D01*
X017725Y001080D01*
X017879Y000927D02*
X017879Y000620D01*
X017879Y000773D02*
X018032Y000927D01*
X018109Y000927D01*
X018263Y000850D02*
X018339Y000927D01*
X018493Y000927D01*
X018569Y000850D01*
X018569Y000773D01*
X018263Y000773D01*
X018263Y000697D02*
X018263Y000850D01*
X018263Y000697D02*
X018339Y000620D01*
X018493Y000620D01*
X018723Y000697D02*
X018723Y000850D01*
X018800Y000927D01*
X018953Y000927D01*
X019030Y000850D01*
X019030Y000773D01*
X018723Y000773D01*
X018723Y000697D02*
X018800Y000620D01*
X018953Y000620D01*
X019260Y000697D02*
X019260Y001004D01*
X019183Y000927D02*
X019337Y000927D01*
X019490Y000850D02*
X019490Y000697D01*
X019567Y000620D01*
X019797Y000620D01*
X019951Y000620D02*
X020181Y000620D01*
X020258Y000697D01*
X020258Y000850D01*
X020181Y000927D01*
X019951Y000927D01*
X019951Y000467D01*
X020411Y000620D02*
X020488Y000620D01*
X020488Y000697D01*
X020411Y000697D01*
X020411Y000620D01*
X020641Y000697D02*
X020641Y000850D01*
X020718Y000927D01*
X020948Y000927D01*
X021102Y000850D02*
X021102Y000697D01*
X021178Y000620D01*
X021332Y000620D01*
X021409Y000697D01*
X021409Y000850D01*
X021332Y000927D01*
X021178Y000927D01*
X021102Y000850D01*
X020948Y000620D02*
X020718Y000620D01*
X020641Y000697D01*
X019797Y000927D02*
X019567Y000927D01*
X019490Y000850D01*
X019260Y000697D02*
X019337Y000620D01*
X019362Y001370D02*
X019208Y001370D01*
X019131Y001447D01*
X019438Y001754D01*
X019438Y001447D01*
X019362Y001370D01*
X019131Y001447D02*
X019131Y001754D01*
X019208Y001830D01*
X019362Y001830D01*
X019438Y001754D01*
X018978Y001447D02*
X018978Y001370D01*
X018901Y001370D01*
X018901Y001447D01*
X018978Y001447D01*
X018748Y001370D02*
X018441Y001370D01*
X018594Y001370D02*
X018594Y001830D01*
X018441Y001677D01*
X018287Y001677D02*
X018134Y001370D01*
X017980Y001677D01*
X017367Y001677D02*
X017213Y001677D01*
X017290Y001754D02*
X017290Y001447D01*
X017367Y001370D01*
X017060Y001370D02*
X017060Y001677D01*
X017060Y001370D02*
X016829Y001370D01*
X016753Y001447D01*
X016753Y001677D01*
X016599Y001600D02*
X016599Y001447D01*
X016522Y001370D01*
X016292Y001370D01*
X016139Y001370D02*
X016139Y001600D01*
X016062Y001677D01*
X015832Y001677D01*
X015832Y001370D01*
X015678Y001370D02*
X015525Y001370D01*
X015602Y001370D02*
X015602Y001830D01*
X015678Y001830D02*
X015525Y001830D01*
X016292Y001677D02*
X016292Y001217D01*
X016292Y001677D02*
X016522Y001677D01*
X016599Y001600D01*
X016881Y001080D02*
X016881Y000620D01*
X016728Y000620D02*
X016498Y000620D01*
X016421Y000697D01*
X017572Y000850D02*
X017725Y000850D01*
X021562Y000927D02*
X021562Y000620D01*
X021715Y000620D02*
X021715Y000850D01*
X021792Y000927D01*
X021869Y000850D01*
X021869Y000620D01*
X021715Y000850D02*
X021639Y000927D01*
X021562Y000927D01*
X012993Y001370D02*
X012916Y001447D01*
X012916Y001677D01*
X012277Y000927D02*
X012277Y000850D01*
X012201Y000850D01*
X012201Y000927D01*
X012277Y000927D01*
D12*
X008646Y001600D02*
X008146Y001600D01*
X007646Y001600D01*
X008146Y002600D01*
X007646Y002600D01*
X007646Y003100D01*
X008146Y002750D02*
X008146Y002600D01*
X008646Y002600D01*
X008646Y002100D01*
X008646Y001600D02*
X008146Y002600D01*
X008146Y001600D02*
X008146Y001450D01*
X006351Y003777D02*
X004900Y003777D01*
X003351Y003777D02*
X000150Y003777D01*
X000150Y008423D01*
X003351Y008423D01*
X004900Y008423D02*
X006351Y008423D01*
X006351Y003777D01*
X005646Y011600D02*
X005646Y012100D01*
X005146Y012100D01*
X005146Y011950D01*
X005146Y012100D02*
X004646Y012100D01*
X004646Y012600D01*
X004646Y013100D02*
X005146Y013100D01*
X005646Y013100D01*
X005146Y012100D01*
X004646Y013100D01*
X005146Y013100D02*
X005146Y013250D01*
X020646Y006600D02*
X020646Y005600D01*
X020646Y006600D02*
X022646Y006600D01*
X020646Y003600D02*
X020646Y002600D01*
X022646Y002600D01*
X024646Y014600D02*
X026646Y014600D01*
X026646Y015600D01*
X026646Y017600D02*
X026646Y018600D01*
X026646Y019600D01*
X026646Y018600D02*
X024646Y018600D01*
X026646Y021600D02*
X026646Y022600D01*
X024646Y022600D01*
D13*
X024761Y022238D02*
X025131Y022238D01*
X025131Y022115D02*
X025131Y022362D01*
X024884Y022115D02*
X024761Y022238D01*
X025511Y022177D02*
X025572Y022115D01*
X025511Y022177D02*
X025511Y022300D01*
X025572Y022362D01*
X025634Y022362D01*
X025881Y022115D01*
X025881Y022362D01*
X025696Y021362D02*
X025696Y021115D01*
X025511Y021300D01*
X025881Y021300D01*
X026384Y021094D02*
X026384Y020909D01*
X026446Y020847D01*
X026508Y020909D01*
X026508Y021032D01*
X026569Y021094D01*
X026631Y021032D01*
X026631Y020847D01*
X026631Y020725D02*
X026631Y020602D01*
X026631Y020663D02*
X026261Y020663D01*
X026261Y020602D01*
X026384Y020418D02*
X026384Y020295D01*
X026446Y020233D01*
X026569Y020233D01*
X026631Y020295D01*
X026631Y020418D01*
X026569Y020480D01*
X026446Y020480D01*
X026384Y020418D01*
X026322Y020112D02*
X026261Y020050D01*
X026261Y019927D01*
X026322Y019865D01*
X026569Y019865D01*
X026631Y019927D01*
X026631Y020050D01*
X026569Y020112D01*
X025881Y020050D02*
X025819Y020112D01*
X025758Y020112D01*
X025696Y020050D01*
X025696Y019865D01*
X025819Y019865D01*
X025881Y019927D01*
X025881Y020050D01*
X025696Y019865D02*
X025572Y019988D01*
X025511Y020112D01*
X025131Y020050D02*
X025131Y019927D01*
X025069Y019865D01*
X024946Y019865D02*
X024884Y019988D01*
X024884Y020050D01*
X024946Y020112D01*
X025069Y020112D01*
X025131Y020050D01*
X024946Y019865D02*
X024761Y019865D01*
X024761Y020112D01*
X024761Y019112D02*
X024822Y019112D01*
X025069Y018865D01*
X025131Y018865D01*
X024761Y018865D02*
X024761Y019112D01*
X025511Y019050D02*
X025572Y019112D01*
X025634Y019112D01*
X025696Y019050D01*
X025696Y018927D01*
X025634Y018865D01*
X025572Y018865D01*
X025511Y018927D01*
X025511Y019050D01*
X025696Y019050D02*
X025758Y019112D01*
X025819Y019112D01*
X025881Y019050D01*
X025881Y018927D01*
X025819Y018865D01*
X025758Y018865D01*
X025696Y018927D01*
X025634Y018362D02*
X025572Y018362D01*
X025511Y018300D01*
X025511Y018177D01*
X025572Y018115D01*
X025634Y018362D02*
X025881Y018115D01*
X025881Y018362D01*
X025131Y018362D02*
X025131Y018115D01*
X025131Y018238D02*
X024761Y018238D01*
X024884Y018115D01*
X024884Y017362D02*
X024946Y017300D01*
X025008Y017362D01*
X025069Y017362D01*
X025131Y017300D01*
X025131Y017177D01*
X025069Y017115D01*
X024946Y017238D02*
X024946Y017300D01*
X024884Y017362D02*
X024822Y017362D01*
X024761Y017300D01*
X024761Y017177D01*
X024822Y017115D01*
X025511Y017300D02*
X025696Y017115D01*
X025696Y017362D01*
X025881Y017300D02*
X025511Y017300D01*
X026384Y017217D02*
X026384Y017032D01*
X026446Y016970D01*
X026508Y017032D01*
X026508Y017155D01*
X026569Y017217D01*
X026631Y017155D01*
X026631Y016970D01*
X026569Y016849D02*
X026384Y016849D01*
X026569Y016849D02*
X026631Y016787D01*
X026569Y016725D01*
X026631Y016663D01*
X026569Y016602D01*
X026384Y016602D01*
X026446Y016480D02*
X026384Y016418D01*
X026384Y016295D01*
X026446Y016233D01*
X026569Y016233D01*
X026631Y016295D01*
X026631Y016418D01*
X026569Y016480D01*
X026446Y016480D01*
X026446Y016112D02*
X026508Y016050D01*
X026508Y015865D01*
X026631Y015865D02*
X026261Y015865D01*
X026261Y016050D01*
X026322Y016112D01*
X026446Y016112D01*
X026508Y015988D02*
X026631Y016112D01*
X025881Y016050D02*
X025819Y016112D01*
X025758Y016112D01*
X025696Y016050D01*
X025696Y015865D01*
X025819Y015865D01*
X025881Y015927D01*
X025881Y016050D01*
X025696Y015865D02*
X025572Y015988D01*
X025511Y016112D01*
X025131Y016050D02*
X025131Y015927D01*
X025069Y015865D01*
X024946Y015865D02*
X024884Y015988D01*
X024884Y016050D01*
X024946Y016112D01*
X025069Y016112D01*
X025131Y016050D01*
X024946Y015865D02*
X024761Y015865D01*
X024761Y016112D01*
X024761Y015112D02*
X024822Y015112D01*
X025069Y014865D01*
X025131Y014865D01*
X024761Y014865D02*
X024761Y015112D01*
X025511Y015050D02*
X025572Y015112D01*
X025634Y015112D01*
X025696Y015050D01*
X025696Y014927D01*
X025634Y014865D01*
X025572Y014865D01*
X025511Y014927D01*
X025511Y015050D01*
X025696Y015050D02*
X025758Y015112D01*
X025819Y015112D01*
X025881Y015050D01*
X025881Y014927D01*
X025819Y014865D01*
X025758Y014865D01*
X025696Y014927D01*
X025648Y013235D02*
X025833Y013235D01*
X025895Y013174D01*
X025895Y012927D01*
X025833Y012865D01*
X025648Y012865D01*
X025648Y013235D01*
X025526Y013235D02*
X025526Y012865D01*
X025279Y013235D01*
X025279Y012865D01*
X025158Y012927D02*
X025158Y013050D01*
X025035Y013050D01*
X025158Y012927D02*
X025096Y012865D01*
X024973Y012865D01*
X024911Y012927D01*
X024911Y013174D01*
X024973Y013235D01*
X025096Y013235D01*
X025158Y013174D01*
X025279Y011235D02*
X025279Y011050D01*
X025403Y011112D01*
X025465Y011112D01*
X025526Y011050D01*
X025526Y010927D01*
X025465Y010865D01*
X025341Y010865D01*
X025279Y010927D01*
X025158Y011050D02*
X024911Y011050D01*
X025035Y010927D02*
X025035Y011174D01*
X025279Y011235D02*
X025526Y011235D01*
X025648Y011235D02*
X025648Y010988D01*
X025771Y010865D01*
X025895Y010988D01*
X025895Y011235D01*
X022395Y011235D02*
X022395Y010988D01*
X022271Y010865D01*
X022148Y010988D01*
X022148Y011235D01*
X022026Y011235D02*
X021779Y011235D01*
X021779Y011050D01*
X021903Y011112D01*
X021965Y011112D01*
X022026Y011050D01*
X022026Y010927D01*
X021965Y010865D01*
X021841Y010865D01*
X021779Y010927D01*
X021658Y011050D02*
X021411Y011050D01*
X021535Y010927D02*
X021535Y011174D01*
X021596Y012865D02*
X021658Y012927D01*
X021658Y013050D01*
X021535Y013050D01*
X021658Y013174D02*
X021596Y013235D01*
X021473Y013235D01*
X021411Y013174D01*
X021411Y012927D01*
X021473Y012865D01*
X021596Y012865D01*
X021779Y012865D02*
X021779Y013235D01*
X022026Y012865D01*
X022026Y013235D01*
X022148Y013235D02*
X022333Y013235D01*
X022395Y013174D01*
X022395Y012927D01*
X022333Y012865D01*
X022148Y012865D01*
X022148Y013235D01*
X022072Y006480D02*
X022319Y006233D01*
X022381Y006295D01*
X022381Y006418D01*
X022319Y006480D01*
X022072Y006480D01*
X022011Y006418D01*
X022011Y006295D01*
X022072Y006233D01*
X022319Y006233D01*
X022381Y006112D02*
X022381Y005865D01*
X022381Y005988D02*
X022011Y005988D01*
X022134Y005865D01*
X021631Y006177D02*
X021631Y006300D01*
X021569Y006362D01*
X021322Y006362D01*
X021261Y006300D01*
X021261Y006177D01*
X021322Y006115D01*
X021384Y006115D01*
X021446Y006177D01*
X021446Y006362D01*
X021631Y006177D02*
X021569Y006115D01*
X021631Y005480D02*
X021631Y005233D01*
X021631Y005112D02*
X021631Y004865D01*
X021631Y004988D02*
X021261Y004988D01*
X021384Y004865D01*
X021384Y005233D02*
X021261Y005357D01*
X021631Y005357D01*
X022011Y005418D02*
X022011Y005295D01*
X022072Y005233D01*
X022011Y005418D02*
X022072Y005480D01*
X022134Y005480D01*
X022381Y005233D01*
X022381Y005480D01*
X022381Y005112D02*
X022381Y004865D01*
X022381Y004988D02*
X022011Y004988D01*
X022134Y004865D01*
X022196Y004480D02*
X022196Y004233D01*
X022011Y004418D01*
X022381Y004418D01*
X022381Y004112D02*
X022381Y003865D01*
X022381Y003988D02*
X022011Y003988D01*
X022134Y003865D01*
X021631Y003865D02*
X021631Y004112D01*
X021631Y003988D02*
X021261Y003988D01*
X021384Y003865D01*
X021322Y004233D02*
X021261Y004295D01*
X021261Y004418D01*
X021322Y004480D01*
X021384Y004480D01*
X021446Y004418D01*
X021508Y004480D01*
X021569Y004480D01*
X021631Y004418D01*
X021631Y004295D01*
X021569Y004233D01*
X021446Y004357D02*
X021446Y004418D01*
X020881Y004418D02*
X020819Y004480D01*
X020696Y004480D01*
X020634Y004418D01*
X020634Y004295D01*
X020696Y004233D01*
X020819Y004233D01*
X020881Y004295D01*
X020881Y004418D01*
X020881Y004602D02*
X020881Y004725D01*
X020881Y004663D02*
X020511Y004663D01*
X020511Y004602D01*
X020696Y004847D02*
X020634Y004909D01*
X020634Y005094D01*
X020758Y005032D02*
X020758Y004909D01*
X020696Y004847D01*
X020881Y004847D02*
X020881Y005032D01*
X020819Y005094D01*
X020758Y005032D01*
X020819Y004112D02*
X020881Y004050D01*
X020881Y003927D01*
X020819Y003865D01*
X020572Y003865D01*
X020511Y003927D01*
X020511Y004050D01*
X020572Y004112D01*
X021261Y003480D02*
X021261Y003233D01*
X021446Y003233D01*
X021384Y003357D01*
X021384Y003418D01*
X021446Y003480D01*
X021569Y003480D01*
X021631Y003418D01*
X021631Y003295D01*
X021569Y003233D01*
X021631Y003112D02*
X021631Y002865D01*
X021631Y002988D02*
X021261Y002988D01*
X021384Y002865D01*
X022011Y002988D02*
X022381Y002988D01*
X022381Y002865D02*
X022381Y003112D01*
X022319Y003233D02*
X022381Y003295D01*
X022381Y003418D01*
X022319Y003480D01*
X022258Y003480D01*
X022196Y003418D01*
X022196Y003233D01*
X022319Y003233D01*
X022196Y003233D02*
X022072Y003357D01*
X022011Y003480D01*
X022011Y002988D02*
X022134Y002865D01*
X024822Y021115D02*
X024761Y021177D01*
X024761Y021300D01*
X024822Y021362D01*
X024884Y021362D01*
X024946Y021300D01*
X025008Y021362D01*
X025069Y021362D01*
X025131Y021300D01*
X025131Y021177D01*
X025069Y021115D01*
X024946Y021238D02*
X024946Y021300D01*
D14*
X024646Y021350D02*
X024646Y020850D01*
X024396Y020600D01*
X024646Y020350D01*
X024646Y019850D01*
X024396Y019600D01*
X024646Y019350D01*
X024646Y018850D01*
X024396Y018600D01*
X024646Y018350D01*
X024646Y017850D01*
X024396Y017600D01*
X024646Y017350D01*
X024646Y016850D01*
X024396Y016600D01*
X024646Y016350D01*
X024646Y015850D01*
X024396Y015600D01*
X024646Y015350D01*
X024646Y014850D01*
X024396Y014600D01*
X024646Y014350D01*
X024646Y013850D01*
X024396Y013600D01*
X024646Y013350D01*
X024646Y012850D01*
X024396Y012600D01*
X024646Y012350D01*
X024646Y011850D01*
X024396Y011600D01*
X024646Y011350D01*
X024646Y010850D01*
X024396Y010600D01*
X024646Y010350D01*
X024646Y009850D01*
X024396Y009600D01*
X024646Y009350D01*
X024646Y008850D01*
X024396Y008600D01*
X024646Y008350D01*
X024646Y007850D01*
X024396Y007600D01*
X024646Y007350D01*
X024646Y006850D01*
X024396Y006600D01*
X024646Y006350D01*
X024646Y005850D01*
X024396Y005600D01*
X024646Y005350D01*
X024646Y004850D01*
X024396Y004600D01*
X024646Y004350D01*
X024646Y003850D01*
X024396Y003600D01*
X024646Y003350D01*
X024646Y002850D01*
X024396Y002600D01*
X022896Y002600D01*
X022646Y002850D01*
X022646Y003350D01*
X022896Y003600D01*
X022646Y003850D01*
X022646Y004350D01*
X022896Y004600D01*
X022646Y004850D01*
X022646Y005350D01*
X022896Y005600D01*
X022646Y005850D01*
X022646Y006350D01*
X022896Y006600D01*
X022646Y006850D01*
X022646Y007350D01*
X022896Y007600D01*
X022646Y007850D01*
X022646Y008350D01*
X022896Y008600D01*
X022646Y008850D01*
X022646Y009350D01*
X022896Y009600D01*
X022646Y009850D01*
X022646Y010350D01*
X022896Y010600D01*
X022646Y010850D01*
X022646Y011350D01*
X022896Y011600D01*
X022646Y011850D01*
X022646Y012350D01*
X022896Y012600D01*
X022646Y012850D01*
X022646Y013350D01*
X022896Y013600D01*
X022646Y013850D01*
X022646Y014350D01*
X022896Y014600D01*
X022646Y014850D01*
X022646Y015350D01*
X022896Y015600D01*
X022646Y015850D01*
X022646Y016350D01*
X022896Y016600D01*
X022646Y016850D01*
X022646Y017350D01*
X022896Y017600D01*
X022646Y017850D01*
X022646Y018350D01*
X022896Y018600D01*
X022646Y018850D01*
X022646Y019350D01*
X022896Y019600D01*
X022646Y019850D01*
X022646Y020350D01*
X022896Y020600D01*
X022646Y020850D01*
X022646Y021350D01*
X022896Y021600D01*
X022646Y021850D01*
X022646Y022350D01*
X022896Y022600D01*
X024396Y022600D01*
X024646Y022350D01*
X024646Y021850D01*
X024396Y021600D01*
X024646Y021350D01*
X019546Y015050D02*
X018746Y015050D01*
X018729Y015048D01*
X018712Y015044D01*
X018696Y015037D01*
X018682Y015027D01*
X018669Y015014D01*
X018659Y015000D01*
X018652Y014984D01*
X018648Y014967D01*
X018646Y014950D01*
X018646Y012250D01*
X018648Y012233D01*
X018652Y012216D01*
X018659Y012200D01*
X018669Y012186D01*
X018682Y012173D01*
X018696Y012163D01*
X018712Y012156D01*
X018729Y012152D01*
X018746Y012150D01*
X019546Y012150D01*
X019563Y012152D01*
X019580Y012156D01*
X019596Y012163D01*
X019610Y012173D01*
X019623Y012186D01*
X019633Y012200D01*
X019640Y012216D01*
X019644Y012233D01*
X019646Y012250D01*
X019646Y014950D01*
X019644Y014967D01*
X019640Y014984D01*
X019633Y015000D01*
X019623Y015014D01*
X019610Y015027D01*
X019596Y015037D01*
X019580Y015044D01*
X019563Y015048D01*
X019546Y015050D01*
X019146Y014200D02*
X019146Y013720D01*
X019146Y013470D02*
X019146Y013000D01*
X011096Y013200D02*
X011096Y014000D01*
X011094Y014017D01*
X011090Y014034D01*
X011083Y014050D01*
X011073Y014064D01*
X011060Y014077D01*
X011046Y014087D01*
X011030Y014094D01*
X011013Y014098D01*
X010996Y014100D01*
X008296Y014100D01*
X008279Y014098D01*
X008262Y014094D01*
X008246Y014087D01*
X008232Y014077D01*
X008219Y014064D01*
X008209Y014050D01*
X008202Y014034D01*
X008198Y014017D01*
X008196Y014000D01*
X008196Y013200D01*
X008198Y013183D01*
X008202Y013166D01*
X008209Y013150D01*
X008219Y013136D01*
X008232Y013123D01*
X008246Y013113D01*
X008262Y013106D01*
X008279Y013102D01*
X008296Y013100D01*
X010996Y013100D01*
X011013Y013102D01*
X011030Y013106D01*
X011046Y013113D01*
X011060Y013123D01*
X011073Y013136D01*
X011083Y013150D01*
X011090Y013166D01*
X011094Y013183D01*
X011096Y013200D01*
X010896Y012950D02*
X010396Y012950D01*
X010370Y012948D01*
X010344Y012943D01*
X010319Y012935D01*
X010296Y012923D01*
X010274Y012909D01*
X010255Y012891D01*
X010237Y012872D01*
X010223Y012850D01*
X010211Y012827D01*
X010203Y012802D01*
X010198Y012776D01*
X010196Y012750D01*
X010196Y011450D01*
X010198Y011424D01*
X010203Y011398D01*
X010211Y011373D01*
X010223Y011350D01*
X010237Y011328D01*
X010255Y011309D01*
X010274Y011291D01*
X010296Y011277D01*
X010319Y011265D01*
X010344Y011257D01*
X010370Y011252D01*
X010396Y011250D01*
X010896Y011250D01*
X010922Y011252D01*
X010948Y011257D01*
X010973Y011265D01*
X010996Y011277D01*
X011018Y011291D01*
X011037Y011309D01*
X011055Y011328D01*
X011069Y011350D01*
X011081Y011373D01*
X011089Y011398D01*
X011094Y011424D01*
X011096Y011450D01*
X011096Y012750D01*
X011094Y012776D01*
X011089Y012802D01*
X011081Y012827D01*
X011069Y012850D01*
X011055Y012872D01*
X011037Y012891D01*
X011018Y012909D01*
X010996Y012923D01*
X010973Y012935D01*
X010948Y012943D01*
X010922Y012948D01*
X010896Y012950D01*
X010246Y013600D02*
X009776Y013600D01*
X009526Y013600D02*
X009046Y013600D01*
X008896Y012950D02*
X008396Y012950D01*
X008370Y012948D01*
X008344Y012943D01*
X008319Y012935D01*
X008296Y012923D01*
X008274Y012909D01*
X008255Y012891D01*
X008237Y012872D01*
X008223Y012850D01*
X008211Y012827D01*
X008203Y012802D01*
X008198Y012776D01*
X008196Y012750D01*
X008196Y011450D01*
X008198Y011424D01*
X008203Y011398D01*
X008211Y011373D01*
X008223Y011350D01*
X008237Y011328D01*
X008255Y011309D01*
X008274Y011291D01*
X008296Y011277D01*
X008319Y011265D01*
X008344Y011257D01*
X008370Y011252D01*
X008396Y011250D01*
X008896Y011250D01*
X008922Y011252D01*
X008948Y011257D01*
X008973Y011265D01*
X008996Y011277D01*
X009018Y011291D01*
X009037Y011309D01*
X009055Y011328D01*
X009069Y011350D01*
X009081Y011373D01*
X009089Y011398D01*
X009094Y011424D01*
X009096Y011450D01*
X009096Y012750D01*
X009094Y012776D01*
X009089Y012802D01*
X009081Y012827D01*
X009069Y012850D01*
X009055Y012872D01*
X009037Y012891D01*
X009018Y012909D01*
X008996Y012923D01*
X008973Y012935D01*
X008948Y012943D01*
X008922Y012948D01*
X008896Y012950D01*
X008146Y014150D02*
X008196Y014200D01*
X010096Y014200D01*
X010146Y014150D01*
X010296Y014150D01*
X010313Y014152D01*
X010330Y014156D01*
X010346Y014163D01*
X010360Y014173D01*
X010373Y014186D01*
X010383Y014200D01*
X010390Y014216D01*
X010394Y014233D01*
X010396Y014250D01*
X010396Y014950D02*
X010394Y014967D01*
X010390Y014984D01*
X010383Y015000D01*
X010373Y015014D01*
X010360Y015027D01*
X010346Y015037D01*
X010330Y015044D01*
X010313Y015048D01*
X010296Y015050D01*
X010146Y015050D01*
X010096Y015000D01*
X008196Y015000D01*
X008146Y015050D01*
X007996Y015050D01*
X007979Y015048D01*
X007962Y015044D01*
X007946Y015037D01*
X007932Y015027D01*
X007919Y015014D01*
X007909Y015000D01*
X007902Y014984D01*
X007898Y014967D01*
X007896Y014950D01*
X007996Y015150D02*
X008146Y015150D01*
X008196Y015200D01*
X010096Y015200D01*
X010146Y015150D01*
X010296Y015150D01*
X010313Y015152D01*
X010330Y015156D01*
X010346Y015163D01*
X010360Y015173D01*
X010373Y015186D01*
X010383Y015200D01*
X010390Y015216D01*
X010394Y015233D01*
X010396Y015250D01*
X010396Y015950D02*
X010394Y015967D01*
X010390Y015984D01*
X010383Y016000D01*
X010373Y016014D01*
X010360Y016027D01*
X010346Y016037D01*
X010330Y016044D01*
X010313Y016048D01*
X010296Y016050D01*
X010146Y016050D01*
X010096Y016000D01*
X008196Y016000D01*
X008146Y016050D01*
X007996Y016050D01*
X007979Y016048D01*
X007962Y016044D01*
X007946Y016037D01*
X007932Y016027D01*
X007919Y016014D01*
X007909Y016000D01*
X007902Y015984D01*
X007898Y015967D01*
X007896Y015950D01*
X007996Y016150D02*
X008146Y016150D01*
X008196Y016200D01*
X010096Y016200D01*
X010146Y016150D01*
X010296Y016150D01*
X010313Y016152D01*
X010330Y016156D01*
X010346Y016163D01*
X010360Y016173D01*
X010373Y016186D01*
X010383Y016200D01*
X010390Y016216D01*
X010394Y016233D01*
X010396Y016250D01*
X010396Y016950D02*
X010394Y016967D01*
X010390Y016984D01*
X010383Y017000D01*
X010373Y017014D01*
X010360Y017027D01*
X010346Y017037D01*
X010330Y017044D01*
X010313Y017048D01*
X010296Y017050D01*
X010146Y017050D01*
X010096Y017000D01*
X008196Y017000D01*
X008146Y017050D01*
X007996Y017050D01*
X007979Y017048D01*
X007962Y017044D01*
X007946Y017037D01*
X007932Y017027D01*
X007919Y017014D01*
X007909Y017000D01*
X007902Y016984D01*
X007898Y016967D01*
X007896Y016950D01*
X007996Y017150D02*
X008146Y017150D01*
X008196Y017200D01*
X010096Y017200D01*
X010146Y017150D01*
X010296Y017150D01*
X010313Y017152D01*
X010330Y017156D01*
X010346Y017163D01*
X010360Y017173D01*
X010373Y017186D01*
X010383Y017200D01*
X010390Y017216D01*
X010394Y017233D01*
X010396Y017250D01*
X010396Y017950D02*
X010394Y017967D01*
X010390Y017984D01*
X010383Y018000D01*
X010373Y018014D01*
X010360Y018027D01*
X010346Y018037D01*
X010330Y018044D01*
X010313Y018048D01*
X010296Y018050D01*
X010146Y018050D01*
X010096Y018000D01*
X008196Y018000D01*
X008146Y018050D01*
X007996Y018050D01*
X007979Y018048D01*
X007962Y018044D01*
X007946Y018037D01*
X007932Y018027D01*
X007919Y018014D01*
X007909Y018000D01*
X007902Y017984D01*
X007898Y017967D01*
X007896Y017950D01*
X007896Y017250D02*
X007898Y017233D01*
X007902Y017216D01*
X007909Y017200D01*
X007919Y017186D01*
X007932Y017173D01*
X007946Y017163D01*
X007962Y017156D01*
X007979Y017152D01*
X007996Y017150D01*
X007896Y016250D02*
X007898Y016233D01*
X007902Y016216D01*
X007909Y016200D01*
X007919Y016186D01*
X007932Y016173D01*
X007946Y016163D01*
X007962Y016156D01*
X007979Y016152D01*
X007996Y016150D01*
X007896Y015250D02*
X007898Y015233D01*
X007902Y015216D01*
X007909Y015200D01*
X007919Y015186D01*
X007932Y015173D01*
X007946Y015163D01*
X007962Y015156D01*
X007979Y015152D01*
X007996Y015150D01*
X007896Y014250D02*
X007898Y014233D01*
X007902Y014216D01*
X007909Y014200D01*
X007919Y014186D01*
X007932Y014173D01*
X007946Y014163D01*
X007962Y014156D01*
X007979Y014152D01*
X007996Y014150D01*
X008146Y014150D01*
X008946Y010250D02*
X008946Y007950D01*
X008948Y007899D01*
X008953Y007848D01*
X008963Y007798D01*
X008976Y007748D01*
X008992Y007700D01*
X009012Y007653D01*
X009036Y007607D01*
X009062Y007564D01*
X009092Y007522D01*
X009125Y007483D01*
X009160Y007446D01*
X009198Y007412D01*
X009239Y007381D01*
X009281Y007352D01*
X009326Y007327D01*
X009372Y007306D01*
X009420Y007287D01*
X009469Y007273D01*
X009519Y007262D01*
X009569Y007254D01*
X009620Y007250D01*
X009672Y007250D01*
X009723Y007254D01*
X009773Y007262D01*
X009823Y007273D01*
X009872Y007287D01*
X009920Y007306D01*
X009966Y007327D01*
X010011Y007352D01*
X010053Y007381D01*
X010094Y007412D01*
X010132Y007446D01*
X010167Y007483D01*
X010200Y007522D01*
X010230Y007564D01*
X010256Y007607D01*
X010280Y007653D01*
X010300Y007700D01*
X010316Y007748D01*
X010329Y007798D01*
X010339Y007848D01*
X010344Y007899D01*
X010346Y007950D01*
X010346Y010250D01*
X010344Y010301D01*
X010339Y010352D01*
X010329Y010402D01*
X010316Y010452D01*
X010300Y010500D01*
X010280Y010547D01*
X010256Y010593D01*
X010230Y010636D01*
X010200Y010678D01*
X010167Y010717D01*
X010132Y010754D01*
X010094Y010788D01*
X010053Y010819D01*
X010011Y010848D01*
X009966Y010873D01*
X009920Y010894D01*
X009872Y010913D01*
X009823Y010927D01*
X009773Y010938D01*
X009723Y010946D01*
X009672Y010950D01*
X009620Y010950D01*
X009569Y010946D01*
X009519Y010938D01*
X009469Y010927D01*
X009420Y010913D01*
X009372Y010894D01*
X009326Y010873D01*
X009281Y010848D01*
X009239Y010819D01*
X009198Y010788D01*
X009160Y010754D01*
X009125Y010717D01*
X009092Y010678D01*
X009062Y010636D01*
X009036Y010593D01*
X009012Y010547D01*
X008992Y010500D01*
X008976Y010452D01*
X008963Y010402D01*
X008953Y010352D01*
X008948Y010301D01*
X008946Y010250D01*
X009646Y009600D02*
X009646Y009350D01*
X009296Y009350D01*
X009296Y009200D02*
X009996Y009200D01*
X009996Y009000D01*
X009296Y009000D01*
X009296Y009200D01*
X009296Y008850D02*
X009646Y008850D01*
X009646Y008600D01*
X009646Y008850D02*
X009996Y008850D01*
X009996Y009350D02*
X009646Y009350D01*
X007596Y008250D02*
X007596Y008100D01*
X007546Y008050D01*
X007546Y006150D01*
X007596Y006100D01*
X007596Y005950D01*
X007594Y005933D01*
X007590Y005916D01*
X007583Y005900D01*
X007573Y005886D01*
X007560Y005873D01*
X007546Y005863D01*
X007530Y005856D01*
X007513Y005852D01*
X007496Y005850D01*
X007746Y006550D02*
X007746Y004650D01*
X007696Y004600D01*
X007696Y004450D01*
X007698Y004433D01*
X007702Y004416D01*
X007709Y004400D01*
X007719Y004386D01*
X007732Y004373D01*
X007746Y004363D01*
X007762Y004356D01*
X007779Y004352D01*
X007796Y004350D01*
X008496Y004350D02*
X008513Y004352D01*
X008530Y004356D01*
X008546Y004363D01*
X008560Y004373D01*
X008573Y004386D01*
X008583Y004400D01*
X008590Y004416D01*
X008594Y004433D01*
X008596Y004450D01*
X008596Y004600D01*
X008546Y004650D01*
X008546Y006550D01*
X008596Y006600D01*
X008596Y006750D01*
X008594Y006767D01*
X008590Y006784D01*
X008583Y006800D01*
X008573Y006814D01*
X008560Y006827D01*
X008546Y006837D01*
X008530Y006844D01*
X008513Y006848D01*
X008496Y006850D01*
X007796Y006850D02*
X007779Y006848D01*
X007762Y006844D01*
X007746Y006837D01*
X007732Y006827D01*
X007719Y006814D01*
X007709Y006800D01*
X007702Y006784D01*
X007698Y006767D01*
X007696Y006750D01*
X007696Y006600D01*
X007746Y006550D01*
X006746Y006150D02*
X006746Y008050D01*
X006696Y008100D01*
X006696Y008250D01*
X006698Y008267D01*
X006702Y008284D01*
X006709Y008300D01*
X006719Y008314D01*
X006732Y008327D01*
X006746Y008337D01*
X006762Y008344D01*
X006779Y008348D01*
X006796Y008350D01*
X007496Y008350D02*
X007513Y008348D01*
X007530Y008344D01*
X007546Y008337D01*
X007560Y008327D01*
X007573Y008314D01*
X007583Y008300D01*
X007590Y008284D01*
X007594Y008267D01*
X007596Y008250D01*
X007046Y009400D02*
X006896Y009400D01*
X006846Y009450D01*
X004946Y009450D01*
X004896Y009400D01*
X004746Y009400D01*
X004729Y009402D01*
X004712Y009406D01*
X004696Y009413D01*
X004682Y009423D01*
X004669Y009436D01*
X004659Y009450D01*
X004652Y009466D01*
X004648Y009483D01*
X004646Y009500D01*
X004646Y010200D02*
X004648Y010217D01*
X004652Y010234D01*
X004659Y010250D01*
X004669Y010264D01*
X004682Y010277D01*
X004696Y010287D01*
X004712Y010294D01*
X004729Y010298D01*
X004746Y010300D01*
X004896Y010300D01*
X004946Y010250D01*
X006846Y010250D01*
X006896Y010300D01*
X007046Y010300D01*
X007063Y010298D01*
X007080Y010294D01*
X007096Y010287D01*
X007110Y010277D01*
X007123Y010264D01*
X007133Y010250D01*
X007140Y010234D01*
X007144Y010217D01*
X007146Y010200D01*
X007146Y009500D02*
X007144Y009483D01*
X007140Y009466D01*
X007133Y009450D01*
X007123Y009436D01*
X007110Y009423D01*
X007096Y009413D01*
X007080Y009406D01*
X007063Y009402D01*
X007046Y009400D01*
X003596Y010450D02*
X003596Y010600D01*
X003546Y010650D01*
X003546Y012550D01*
X003596Y012600D01*
X003596Y012750D01*
X003594Y012767D01*
X003590Y012784D01*
X003583Y012800D01*
X003573Y012814D01*
X003560Y012827D01*
X003546Y012837D01*
X003530Y012844D01*
X003513Y012848D01*
X003496Y012850D01*
X002796Y012850D02*
X002779Y012848D01*
X002762Y012844D01*
X002746Y012837D01*
X002732Y012827D01*
X002719Y012814D01*
X002709Y012800D01*
X002702Y012784D01*
X002698Y012767D01*
X002696Y012750D01*
X002696Y012600D01*
X002746Y012550D01*
X002746Y010650D01*
X002696Y010600D01*
X002696Y010450D01*
X002698Y010433D01*
X002702Y010416D01*
X002709Y010400D01*
X002719Y010386D01*
X002732Y010373D01*
X002746Y010363D01*
X002762Y010356D01*
X002779Y010352D01*
X002796Y010350D01*
X003496Y010350D02*
X003513Y010352D01*
X003530Y010356D01*
X003546Y010363D01*
X003560Y010373D01*
X003573Y010386D01*
X003583Y010400D01*
X003590Y010416D01*
X003594Y010433D01*
X003596Y010450D01*
X006746Y006150D02*
X006696Y006100D01*
X006696Y005950D01*
X006698Y005933D01*
X006702Y005916D01*
X006709Y005900D01*
X006719Y005886D01*
X006732Y005873D01*
X006746Y005863D01*
X006762Y005856D01*
X006779Y005852D01*
X006796Y005850D01*
X006146Y002750D02*
X006146Y002650D01*
X006246Y002650D01*
X006146Y002650D02*
X006146Y002550D01*
X006146Y002650D02*
X006046Y002650D01*
X004646Y002100D02*
X004648Y002163D01*
X004654Y002225D01*
X004664Y002287D01*
X004677Y002349D01*
X004695Y002409D01*
X004716Y002468D01*
X004741Y002526D01*
X004770Y002582D01*
X004802Y002636D01*
X004837Y002688D01*
X004875Y002737D01*
X004917Y002785D01*
X004961Y002829D01*
X005009Y002871D01*
X005058Y002909D01*
X005110Y002944D01*
X005164Y002976D01*
X005220Y003005D01*
X005278Y003030D01*
X005337Y003051D01*
X005397Y003069D01*
X005459Y003082D01*
X005521Y003092D01*
X005583Y003098D01*
X005646Y003100D01*
X005709Y003098D01*
X005771Y003092D01*
X005833Y003082D01*
X005895Y003069D01*
X005955Y003051D01*
X006014Y003030D01*
X006072Y003005D01*
X006128Y002976D01*
X006182Y002944D01*
X006234Y002909D01*
X006283Y002871D01*
X006331Y002829D01*
X006375Y002785D01*
X006417Y002737D01*
X006455Y002688D01*
X006490Y002636D01*
X006522Y002582D01*
X006551Y002526D01*
X006576Y002468D01*
X006597Y002409D01*
X006615Y002349D01*
X006628Y002287D01*
X006638Y002225D01*
X006644Y002163D01*
X006646Y002100D01*
X006644Y002037D01*
X006638Y001975D01*
X006628Y001913D01*
X006615Y001851D01*
X006597Y001791D01*
X006576Y001732D01*
X006551Y001674D01*
X006522Y001618D01*
X006490Y001564D01*
X006455Y001512D01*
X006417Y001463D01*
X006375Y001415D01*
X006331Y001371D01*
X006283Y001329D01*
X006234Y001291D01*
X006182Y001256D01*
X006128Y001224D01*
X006072Y001195D01*
X006014Y001170D01*
X005955Y001149D01*
X005895Y001131D01*
X005833Y001118D01*
X005771Y001108D01*
X005709Y001102D01*
X005646Y001100D01*
X005583Y001102D01*
X005521Y001108D01*
X005459Y001118D01*
X005397Y001131D01*
X005337Y001149D01*
X005278Y001170D01*
X005220Y001195D01*
X005164Y001224D01*
X005110Y001256D01*
X005058Y001291D01*
X005009Y001329D01*
X004961Y001371D01*
X004917Y001415D01*
X004875Y001463D01*
X004837Y001512D01*
X004802Y001564D01*
X004770Y001618D01*
X004741Y001674D01*
X004716Y001732D01*
X004695Y001791D01*
X004677Y001851D01*
X004664Y001913D01*
X004654Y001975D01*
X004648Y002037D01*
X004646Y002100D01*
X012046Y002700D02*
X012046Y023500D01*
X014146Y023500D01*
X014148Y023456D01*
X014154Y023413D01*
X014163Y023371D01*
X014176Y023329D01*
X014193Y023289D01*
X014213Y023250D01*
X014236Y023213D01*
X014263Y023179D01*
X014292Y023146D01*
X014325Y023117D01*
X014359Y023090D01*
X014396Y023067D01*
X014435Y023047D01*
X014475Y023030D01*
X014517Y023017D01*
X014559Y023008D01*
X014602Y023002D01*
X014646Y023000D01*
X014690Y023002D01*
X014733Y023008D01*
X014775Y023017D01*
X014817Y023030D01*
X014857Y023047D01*
X014896Y023067D01*
X014933Y023090D01*
X014967Y023117D01*
X015000Y023146D01*
X015029Y023179D01*
X015056Y023213D01*
X015079Y023250D01*
X015099Y023289D01*
X015116Y023329D01*
X015129Y023371D01*
X015138Y023413D01*
X015144Y023456D01*
X015146Y023500D01*
X017246Y023500D01*
X017246Y002700D01*
X012046Y002700D01*
D15*
X006141Y022885D02*
X005720Y022885D01*
X005930Y022885D02*
X005930Y023516D01*
X005720Y023305D01*
X005496Y023200D02*
X005391Y023095D01*
X005076Y023095D01*
X005076Y022885D02*
X005076Y023516D01*
X005391Y023516D01*
X005496Y023410D01*
X005496Y023200D01*
X004851Y023516D02*
X004641Y023516D01*
X004746Y023516D02*
X004746Y022990D01*
X004641Y022885D01*
X004536Y022885D01*
X004431Y022990D01*
X012181Y023740D02*
X012286Y023635D01*
X012496Y023635D01*
X012601Y023740D01*
X012601Y024266D01*
X012826Y024055D02*
X013036Y024266D01*
X013036Y023635D01*
X012826Y023635D02*
X013246Y023635D01*
X012181Y023740D02*
X012181Y024266D01*
D16*
X005646Y022600D02*
X005646Y022100D01*
X005746Y022100D01*
X005746Y021600D01*
X005646Y021600D01*
X005646Y018850D01*
X005746Y018850D01*
X005746Y018350D01*
X005646Y018350D01*
X005646Y015600D01*
X005746Y015600D01*
X005746Y015100D01*
X005646Y015100D01*
X005646Y014600D01*
X002146Y014600D01*
X002146Y016450D01*
X002346Y016600D01*
X002346Y016800D01*
X002346Y017400D01*
X002346Y017600D01*
X002146Y017750D01*
X002146Y017800D01*
X002546Y017800D01*
X002646Y017800D01*
X002646Y017400D01*
X002646Y016800D01*
X002546Y016800D01*
X002346Y016800D01*
X002646Y016800D02*
X002646Y015100D01*
X005146Y015100D01*
X005146Y022100D01*
X002646Y022100D01*
X002646Y019400D01*
X002546Y019400D01*
X002146Y019400D01*
X002146Y020350D01*
X002196Y020350D01*
X002196Y020850D01*
X002146Y020850D01*
X002146Y022600D01*
X005646Y022600D01*
X004621Y021465D02*
X004621Y021165D01*
X004321Y021465D01*
X004246Y021465D01*
X004171Y021390D01*
X004171Y021240D01*
X004246Y021165D01*
X003621Y021165D02*
X003621Y021465D01*
X003621Y021315D02*
X003171Y021315D01*
X003321Y021165D01*
X002946Y019400D02*
X002646Y019400D01*
X002946Y019400D02*
X002946Y017800D01*
X002646Y017800D01*
X002771Y018104D02*
X002771Y018404D01*
X002771Y018254D02*
X002321Y018254D01*
X002471Y018104D01*
X002146Y017800D02*
X002146Y019400D01*
X002396Y018865D02*
X002696Y018565D01*
X002771Y018640D01*
X002771Y018790D01*
X002696Y018865D01*
X002396Y018865D01*
X002321Y018790D01*
X002321Y018640D01*
X002396Y018565D01*
X002696Y018565D01*
X002646Y017400D02*
X002546Y017400D01*
X002346Y017400D01*
X002921Y014125D02*
X003146Y014125D01*
X003221Y014050D01*
X003221Y013900D01*
X003146Y013825D01*
X002921Y013825D01*
X002921Y013675D02*
X002921Y014125D01*
X003071Y013825D02*
X003221Y013675D01*
X003381Y013675D02*
X003682Y013975D01*
X003682Y014050D01*
X003607Y014125D01*
X003457Y014125D01*
X003381Y014050D01*
X003381Y013675D02*
X003682Y013675D01*
X005641Y012795D02*
X005641Y012345D01*
X005866Y012345D01*
X005941Y012420D01*
X005941Y012720D01*
X005866Y012795D01*
X005641Y012795D01*
X006101Y012720D02*
X006177Y012795D01*
X006327Y012795D01*
X006402Y012720D01*
X006402Y012645D01*
X006101Y012345D01*
X006402Y012345D01*
X007621Y012460D02*
X007696Y012385D01*
X007621Y012460D02*
X007621Y012611D01*
X007696Y012686D01*
X007771Y012686D01*
X008071Y012385D01*
X008071Y012686D01*
X007996Y012225D02*
X008071Y012150D01*
X008071Y012000D01*
X007996Y011925D01*
X007696Y011925D01*
X007621Y012000D01*
X007621Y012150D01*
X007696Y012225D01*
X007546Y013275D02*
X007621Y013350D01*
X007546Y013275D02*
X007396Y013275D01*
X007321Y013350D01*
X007321Y013650D01*
X007396Y013725D01*
X007546Y013725D01*
X007621Y013650D01*
X007781Y013725D02*
X007781Y013500D01*
X007932Y013575D01*
X008007Y013575D01*
X008082Y013500D01*
X008082Y013350D01*
X008007Y013275D01*
X007857Y013275D01*
X007781Y013350D01*
X007781Y013725D02*
X008082Y013725D01*
X006857Y014675D02*
X006857Y015125D01*
X006631Y014900D01*
X006932Y014900D01*
X006471Y014900D02*
X006396Y014825D01*
X006171Y014825D01*
X006171Y014675D02*
X006171Y015125D01*
X006396Y015125D01*
X006471Y015050D01*
X006471Y014900D01*
X006321Y014825D02*
X006471Y014675D01*
X006471Y015675D02*
X006321Y015825D01*
X006396Y015825D02*
X006171Y015825D01*
X006171Y015675D02*
X006171Y016125D01*
X006396Y016125D01*
X006471Y016050D01*
X006471Y015900D01*
X006396Y015825D01*
X006631Y015750D02*
X006707Y015675D01*
X006857Y015675D01*
X006932Y015750D01*
X006932Y015900D01*
X006857Y015975D01*
X006782Y015975D01*
X006631Y015900D01*
X006631Y016125D01*
X006932Y016125D01*
X006857Y016675D02*
X006707Y016675D01*
X006631Y016750D01*
X006631Y016900D01*
X006857Y016900D01*
X006932Y016825D01*
X006932Y016750D01*
X006857Y016675D01*
X006631Y016900D02*
X006782Y017050D01*
X006932Y017125D01*
X006471Y017050D02*
X006471Y016900D01*
X006396Y016825D01*
X006171Y016825D01*
X006171Y016675D02*
X006171Y017125D01*
X006396Y017125D01*
X006471Y017050D01*
X006321Y016825D02*
X006471Y016675D01*
X006471Y017675D02*
X006321Y017825D01*
X006396Y017825D02*
X006171Y017825D01*
X006171Y017675D02*
X006171Y018125D01*
X006396Y018125D01*
X006471Y018050D01*
X006471Y017900D01*
X006396Y017825D01*
X006631Y017750D02*
X006707Y017675D01*
X006857Y017675D01*
X006932Y017750D01*
X006932Y017825D01*
X006857Y017900D01*
X006782Y017900D01*
X006857Y017900D02*
X006932Y017975D01*
X006932Y018050D01*
X006857Y018125D01*
X006707Y018125D01*
X006631Y018050D01*
X009696Y012686D02*
X009771Y012686D01*
X009846Y012611D01*
X009921Y012686D01*
X009996Y012686D01*
X010071Y012611D01*
X010071Y012460D01*
X009996Y012385D01*
X009996Y012225D02*
X010071Y012150D01*
X010071Y012000D01*
X009996Y011925D01*
X009696Y011925D01*
X009621Y012000D01*
X009621Y012150D01*
X009696Y012225D01*
X009696Y012385D02*
X009621Y012460D01*
X009621Y012611D01*
X009696Y012686D01*
X009846Y012611D02*
X009846Y012536D01*
X008357Y008625D02*
X008207Y008625D01*
X008131Y008550D01*
X008131Y008475D01*
X008207Y008400D01*
X008357Y008400D01*
X008432Y008325D01*
X008432Y008250D01*
X008357Y008175D01*
X008207Y008175D01*
X008131Y008250D01*
X008131Y008325D01*
X008207Y008400D01*
X008357Y008400D02*
X008432Y008475D01*
X008432Y008550D01*
X008357Y008625D01*
X007971Y008550D02*
X007971Y008400D01*
X007896Y008325D01*
X007671Y008325D01*
X007671Y008175D02*
X007671Y008625D01*
X007896Y008625D01*
X007971Y008550D01*
X007821Y008325D02*
X007971Y008175D01*
X010171Y006725D02*
X010471Y006275D01*
X010631Y006275D02*
X010932Y006275D01*
X010782Y006275D02*
X010782Y006725D01*
X010631Y006575D01*
X010471Y006725D02*
X010171Y006275D01*
X009432Y005125D02*
X009131Y005125D01*
X008971Y005050D02*
X008971Y004900D01*
X008896Y004825D01*
X008671Y004825D01*
X008671Y004675D02*
X008671Y005125D01*
X008896Y005125D01*
X008971Y005050D01*
X008821Y004825D02*
X008971Y004675D01*
X009131Y004675D02*
X009131Y004750D01*
X009432Y005050D01*
X009432Y005125D01*
X009502Y002545D02*
X009502Y002095D01*
X009652Y002095D02*
X009351Y002095D01*
X009191Y002170D02*
X009191Y002470D01*
X009116Y002545D01*
X008891Y002545D01*
X008891Y002095D01*
X009116Y002095D01*
X009191Y002170D01*
X009351Y002395D02*
X009502Y002545D01*
X006882Y000625D02*
X006581Y000625D01*
X006732Y000625D02*
X006732Y001075D01*
X006581Y000925D01*
X006421Y001000D02*
X006346Y001075D01*
X006196Y001075D01*
X006121Y001000D01*
X006121Y000700D01*
X006196Y000625D01*
X006346Y000625D01*
X006421Y000700D01*
X005682Y010425D02*
X005381Y010425D01*
X005532Y010425D02*
X005532Y010875D01*
X005381Y010725D01*
X005221Y010650D02*
X005146Y010575D01*
X004921Y010575D01*
X004921Y010425D02*
X004921Y010875D01*
X005146Y010875D01*
X005221Y010800D01*
X005221Y010650D01*
X005071Y010575D02*
X005221Y010425D01*
X018821Y011350D02*
X018896Y011275D01*
X019046Y011275D01*
X019121Y011350D01*
X019281Y011500D02*
X019582Y011500D01*
X019507Y011275D02*
X019507Y011725D01*
X019281Y011500D01*
X019121Y011650D02*
X019046Y011725D01*
X018896Y011725D01*
X018821Y011650D01*
X018821Y011350D01*
X024896Y003465D02*
X025196Y003165D01*
X025271Y003240D01*
X025271Y003390D01*
X025196Y003465D01*
X024896Y003465D01*
X024821Y003390D01*
X024821Y003240D01*
X024896Y003165D01*
X025196Y003165D01*
X025046Y003004D02*
X025046Y002704D01*
X024821Y002929D01*
X025271Y002929D01*
X024392Y002150D02*
X024317Y002225D01*
X024167Y002225D01*
X024092Y002150D01*
X023932Y002150D02*
X023932Y002000D01*
X023857Y001925D01*
X023631Y001925D01*
X023631Y001775D02*
X023631Y002225D01*
X023857Y002225D01*
X023932Y002150D01*
X024092Y001775D02*
X024392Y002075D01*
X024392Y002150D01*
X024392Y001775D02*
X024092Y001775D01*
X023396Y001850D02*
X023396Y002225D01*
X023321Y002225D02*
X023471Y002225D01*
X023396Y001850D02*
X023321Y001775D01*
X023246Y001775D01*
X023171Y001850D01*
X022471Y021865D02*
X022471Y022165D01*
X022471Y022015D02*
X022021Y022015D01*
X022171Y021865D01*
D17*
X005246Y022200D02*
X005246Y015000D01*
X002546Y015000D01*
X002546Y016800D01*
X002546Y017400D02*
X002546Y017800D01*
X002546Y019400D02*
X002546Y022200D01*
X005246Y022200D01*
X004433Y007610D02*
X003646Y007610D01*
X003646Y007364D01*
X003646Y007069D01*
X003843Y007069D02*
X003646Y007364D01*
X004040Y007364D01*
X003843Y007069D01*
X003646Y007069D02*
X003648Y007042D01*
X003653Y007016D01*
X003662Y006991D01*
X003675Y006967D01*
X003690Y006945D01*
X003709Y006925D01*
X003729Y006908D01*
X003752Y006894D01*
X003777Y006883D01*
X003803Y006876D01*
X003830Y006872D01*
X003856Y006872D01*
X003883Y006876D01*
X003909Y006883D01*
X003934Y006894D01*
X003957Y006908D01*
X003977Y006925D01*
X003996Y006945D01*
X004011Y006967D01*
X004024Y006991D01*
X004033Y007016D01*
X004038Y007042D01*
X004040Y007069D01*
X004237Y007069D02*
X004040Y007364D01*
X004433Y007364D01*
X004433Y007069D01*
X004237Y007069D02*
X004433Y007364D01*
X004433Y007610D01*
X004434Y007069D02*
X004432Y007042D01*
X004427Y007016D01*
X004418Y006991D01*
X004405Y006967D01*
X004390Y006945D01*
X004371Y006925D01*
X004351Y006908D01*
X004328Y006894D01*
X004303Y006883D01*
X004277Y006876D01*
X004250Y006872D01*
X004224Y006872D01*
X004197Y006876D01*
X004171Y006883D01*
X004146Y006894D01*
X004123Y006908D01*
X004103Y006925D01*
X004084Y006945D01*
X004069Y006967D01*
X004056Y006991D01*
X004047Y007016D01*
X004042Y007042D01*
X004040Y007069D01*
X004433Y006773D02*
X003646Y006773D01*
X003646Y006084D01*
X003843Y006084D01*
X003843Y006527D01*
X003941Y006527D01*
X003941Y006084D01*
X004138Y006084D01*
X004138Y006527D01*
X004237Y006527D01*
X004237Y006084D01*
X004433Y006084D01*
X004433Y006773D01*
X004433Y005986D02*
X003646Y005986D01*
X003646Y005740D01*
X003941Y005740D01*
X003646Y005543D01*
X003646Y005248D01*
X003941Y005444D01*
X004089Y005592D02*
X004089Y005740D01*
X004237Y005740D01*
X004237Y005592D01*
X004235Y005577D01*
X004231Y005562D01*
X004223Y005549D01*
X004213Y005537D01*
X004200Y005528D01*
X004186Y005522D01*
X004171Y005518D01*
X004155Y005518D01*
X004140Y005522D01*
X004126Y005528D01*
X004113Y005537D01*
X004103Y005549D01*
X004095Y005562D01*
X004091Y005577D01*
X004089Y005592D01*
X003941Y005444D02*
X003943Y005414D01*
X003948Y005385D01*
X003957Y005357D01*
X003969Y005330D01*
X003985Y005304D01*
X004003Y005281D01*
X004024Y005260D01*
X004047Y005242D01*
X004073Y005226D01*
X004100Y005214D01*
X004128Y005205D01*
X004157Y005200D01*
X004187Y005198D01*
X004217Y005200D01*
X004246Y005205D01*
X004274Y005214D01*
X004301Y005226D01*
X004327Y005242D01*
X004350Y005260D01*
X004371Y005281D01*
X004389Y005304D01*
X004405Y005330D01*
X004417Y005357D01*
X004426Y005385D01*
X004431Y005414D01*
X004433Y005444D01*
X004433Y005986D01*
X003646Y004756D02*
X003648Y004696D01*
X003654Y004636D01*
X003664Y004577D01*
X003678Y004518D01*
X003695Y004461D01*
X003695Y004460D02*
X004040Y004460D01*
X004040Y004657D01*
X004237Y004657D02*
X004235Y004684D01*
X004230Y004710D01*
X004221Y004735D01*
X004208Y004759D01*
X004193Y004781D01*
X004174Y004801D01*
X004154Y004818D01*
X004131Y004832D01*
X004106Y004843D01*
X004080Y004850D01*
X004053Y004854D01*
X004027Y004854D01*
X004000Y004850D01*
X003974Y004843D01*
X003949Y004832D01*
X003926Y004818D01*
X003906Y004801D01*
X003887Y004781D01*
X003872Y004759D01*
X003859Y004735D01*
X003850Y004710D01*
X003845Y004684D01*
X003843Y004657D01*
X004040Y004657D01*
X004434Y004756D02*
X004432Y004795D01*
X004426Y004833D01*
X004417Y004870D01*
X004404Y004907D01*
X004387Y004942D01*
X004368Y004975D01*
X004345Y005006D01*
X004319Y005035D01*
X004290Y005061D01*
X004259Y005084D01*
X004226Y005103D01*
X004191Y005120D01*
X004154Y005133D01*
X004117Y005142D01*
X004079Y005148D01*
X004040Y005150D01*
X004001Y005148D01*
X003963Y005142D01*
X003926Y005133D01*
X003889Y005120D01*
X003854Y005103D01*
X003821Y005084D01*
X003790Y005061D01*
X003761Y005035D01*
X003735Y005006D01*
X003712Y004975D01*
X003693Y004942D01*
X003676Y004907D01*
X003663Y004870D01*
X003654Y004833D01*
X003648Y004795D01*
X003646Y004756D01*
X004236Y004657D02*
X004241Y004608D01*
X004243Y004559D01*
X004241Y004510D01*
X004236Y004461D01*
X004237Y004462D02*
X004412Y004462D01*
X004412Y004456D02*
X004423Y004530D01*
X004430Y004605D01*
X004434Y004680D01*
X004433Y004755D01*
D18*
X003498Y004660D02*
X003498Y004560D01*
X003348Y004560D01*
X003348Y004660D01*
X003423Y004610D02*
X003423Y004560D01*
X003498Y004855D02*
X003498Y004955D01*
X003498Y004855D02*
X003348Y004855D01*
X003348Y005150D02*
X003498Y005150D01*
X003498Y005250D01*
X003423Y005200D02*
X003423Y005150D01*
X003348Y005150D02*
X003348Y005250D01*
X003373Y005444D02*
X003473Y005444D01*
X003498Y005469D01*
X003498Y005519D01*
X003473Y005544D01*
X003373Y005544D02*
X003348Y005519D01*
X003348Y005469D01*
X003373Y005444D01*
X003348Y005739D02*
X003348Y005839D01*
X003348Y005789D02*
X003498Y005789D01*
X003498Y006034D02*
X003348Y006034D01*
X003348Y006109D01*
X003373Y006134D01*
X003423Y006134D01*
X003448Y006109D01*
X003448Y006034D01*
X003448Y006084D02*
X003498Y006134D01*
X003473Y006328D02*
X003498Y006353D01*
X003498Y006403D01*
X003473Y006428D01*
X003373Y006428D01*
X003348Y006403D01*
X003348Y006353D01*
X003373Y006328D01*
X003473Y006328D01*
X003498Y006623D02*
X003348Y006623D01*
X003498Y006723D01*
X003348Y006723D01*
X003348Y006917D02*
X003348Y006968D01*
X003348Y006942D02*
X003498Y006942D01*
X003498Y006917D02*
X003498Y006968D01*
X003473Y007163D02*
X003498Y007188D01*
X003498Y007238D01*
X003473Y007263D01*
X003473Y007163D02*
X003373Y007163D01*
X003348Y007188D01*
X003348Y007238D01*
X003373Y007263D01*
X003373Y007458D02*
X003398Y007458D01*
X003423Y007483D01*
X003423Y007533D01*
X003448Y007558D01*
X003473Y007558D01*
X003498Y007533D01*
X003498Y007483D01*
X003473Y007458D01*
X003373Y007458D02*
X003348Y007483D01*
X003348Y007533D01*
X003373Y007558D01*
D19*
X008746Y007950D02*
X008746Y010250D01*
X008748Y010309D01*
X008754Y010367D01*
X008763Y010426D01*
X008777Y010483D01*
X008794Y010539D01*
X008815Y010594D01*
X008839Y010648D01*
X008867Y010700D01*
X008898Y010750D01*
X008932Y010798D01*
X008969Y010843D01*
X009010Y010886D01*
X009053Y010927D01*
X009098Y010964D01*
X009146Y010998D01*
X009196Y011029D01*
X009248Y011057D01*
X009302Y011081D01*
X009357Y011102D01*
X009413Y011119D01*
X009470Y011133D01*
X009529Y011142D01*
X009587Y011148D01*
X009646Y011150D01*
X009705Y011148D01*
X009763Y011142D01*
X009822Y011133D01*
X009879Y011119D01*
X009935Y011102D01*
X009990Y011081D01*
X010044Y011057D01*
X010096Y011029D01*
X010146Y010998D01*
X010194Y010964D01*
X010239Y010927D01*
X010282Y010886D01*
X010323Y010843D01*
X010360Y010798D01*
X010394Y010750D01*
X010425Y010700D01*
X010453Y010648D01*
X010477Y010594D01*
X010498Y010539D01*
X010515Y010483D01*
X010529Y010426D01*
X010538Y010367D01*
X010544Y010309D01*
X010546Y010250D01*
X010546Y007950D01*
X010544Y007891D01*
X010538Y007833D01*
X010529Y007774D01*
X010515Y007717D01*
X010498Y007661D01*
X010477Y007606D01*
X010453Y007552D01*
X010425Y007500D01*
X010394Y007450D01*
X010360Y007402D01*
X010323Y007357D01*
X010282Y007314D01*
X010239Y007273D01*
X010194Y007236D01*
X010146Y007202D01*
X010096Y007171D01*
X010044Y007143D01*
X009990Y007119D01*
X009935Y007098D01*
X009879Y007081D01*
X009822Y007067D01*
X009763Y007058D01*
X009705Y007052D01*
X009646Y007050D01*
X009587Y007052D01*
X009529Y007058D01*
X009470Y007067D01*
X009413Y007081D01*
X009357Y007098D01*
X009302Y007119D01*
X009248Y007143D01*
X009196Y007171D01*
X009146Y007202D01*
X009098Y007236D01*
X009053Y007273D01*
X009010Y007314D01*
X008969Y007357D01*
X008932Y007402D01*
X008898Y007450D01*
X008867Y007500D01*
X008839Y007552D01*
X008815Y007606D01*
X008794Y007661D01*
X008777Y007717D01*
X008763Y007774D01*
X008754Y007833D01*
X008748Y007891D01*
X008746Y007950D01*
D20*
X008946Y011980D02*
X008346Y011980D01*
X008346Y012230D02*
X008946Y012230D01*
X009526Y013350D02*
X009526Y013600D01*
X009526Y013850D01*
X009776Y013850D02*
X009776Y013600D01*
X009776Y013350D01*
X010346Y012230D02*
X010946Y012230D01*
X010946Y011980D02*
X010346Y011980D01*
X018896Y013470D02*
X019146Y013470D01*
X019396Y013470D01*
X019396Y013720D02*
X019146Y013720D01*
X018896Y013720D01*
M02*
