G75*
G70*
%OFA0B0*%
%FSLAX24Y24*%
%IPPOS*%
%LPD*%
%AMOC8*
5,1,8,0,0,1.08239X$1,22.5*
%
%ADD10C,0.0000*%
D10*
X002146Y000347D02*
X002146Y025343D01*
X028016Y025343D01*
X028016Y000347D01*
X002146Y000347D01*
X002996Y001847D02*
X002998Y001897D01*
X003004Y001947D01*
X003014Y001997D01*
X003027Y002045D01*
X003044Y002093D01*
X003065Y002139D01*
X003089Y002183D01*
X003117Y002225D01*
X003148Y002265D01*
X003182Y002302D01*
X003219Y002337D01*
X003258Y002368D01*
X003299Y002397D01*
X003343Y002422D01*
X003389Y002444D01*
X003436Y002462D01*
X003484Y002476D01*
X003533Y002487D01*
X003583Y002494D01*
X003633Y002497D01*
X003684Y002496D01*
X003734Y002491D01*
X003784Y002482D01*
X003832Y002470D01*
X003880Y002453D01*
X003926Y002433D01*
X003971Y002410D01*
X004014Y002383D01*
X004054Y002353D01*
X004092Y002320D01*
X004127Y002284D01*
X004160Y002245D01*
X004189Y002204D01*
X004215Y002161D01*
X004238Y002116D01*
X004257Y002069D01*
X004272Y002021D01*
X004284Y001972D01*
X004292Y001922D01*
X004296Y001872D01*
X004296Y001822D01*
X004292Y001772D01*
X004284Y001722D01*
X004272Y001673D01*
X004257Y001625D01*
X004238Y001578D01*
X004215Y001533D01*
X004189Y001490D01*
X004160Y001449D01*
X004127Y001410D01*
X004092Y001374D01*
X004054Y001341D01*
X004014Y001311D01*
X003971Y001284D01*
X003926Y001261D01*
X003880Y001241D01*
X003832Y001224D01*
X003784Y001212D01*
X003734Y001203D01*
X003684Y001198D01*
X003633Y001197D01*
X003583Y001200D01*
X003533Y001207D01*
X003484Y001218D01*
X003436Y001232D01*
X003389Y001250D01*
X003343Y001272D01*
X003299Y001297D01*
X003258Y001326D01*
X003219Y001357D01*
X003182Y001392D01*
X003148Y001429D01*
X003117Y001469D01*
X003089Y001511D01*
X003065Y001555D01*
X003044Y001601D01*
X003027Y001649D01*
X003014Y001697D01*
X003004Y001747D01*
X002998Y001797D01*
X002996Y001847D01*
X025996Y001847D02*
X025998Y001897D01*
X026004Y001947D01*
X026014Y001997D01*
X026027Y002045D01*
X026044Y002093D01*
X026065Y002139D01*
X026089Y002183D01*
X026117Y002225D01*
X026148Y002265D01*
X026182Y002302D01*
X026219Y002337D01*
X026258Y002368D01*
X026299Y002397D01*
X026343Y002422D01*
X026389Y002444D01*
X026436Y002462D01*
X026484Y002476D01*
X026533Y002487D01*
X026583Y002494D01*
X026633Y002497D01*
X026684Y002496D01*
X026734Y002491D01*
X026784Y002482D01*
X026832Y002470D01*
X026880Y002453D01*
X026926Y002433D01*
X026971Y002410D01*
X027014Y002383D01*
X027054Y002353D01*
X027092Y002320D01*
X027127Y002284D01*
X027160Y002245D01*
X027189Y002204D01*
X027215Y002161D01*
X027238Y002116D01*
X027257Y002069D01*
X027272Y002021D01*
X027284Y001972D01*
X027292Y001922D01*
X027296Y001872D01*
X027296Y001822D01*
X027292Y001772D01*
X027284Y001722D01*
X027272Y001673D01*
X027257Y001625D01*
X027238Y001578D01*
X027215Y001533D01*
X027189Y001490D01*
X027160Y001449D01*
X027127Y001410D01*
X027092Y001374D01*
X027054Y001341D01*
X027014Y001311D01*
X026971Y001284D01*
X026926Y001261D01*
X026880Y001241D01*
X026832Y001224D01*
X026784Y001212D01*
X026734Y001203D01*
X026684Y001198D01*
X026633Y001197D01*
X026583Y001200D01*
X026533Y001207D01*
X026484Y001218D01*
X026436Y001232D01*
X026389Y001250D01*
X026343Y001272D01*
X026299Y001297D01*
X026258Y001326D01*
X026219Y001357D01*
X026182Y001392D01*
X026148Y001429D01*
X026117Y001469D01*
X026089Y001511D01*
X026065Y001555D01*
X026044Y001601D01*
X026027Y001649D01*
X026014Y001697D01*
X026004Y001747D01*
X025998Y001797D01*
X025996Y001847D01*
X025996Y023847D02*
X025998Y023897D01*
X026004Y023947D01*
X026014Y023997D01*
X026027Y024045D01*
X026044Y024093D01*
X026065Y024139D01*
X026089Y024183D01*
X026117Y024225D01*
X026148Y024265D01*
X026182Y024302D01*
X026219Y024337D01*
X026258Y024368D01*
X026299Y024397D01*
X026343Y024422D01*
X026389Y024444D01*
X026436Y024462D01*
X026484Y024476D01*
X026533Y024487D01*
X026583Y024494D01*
X026633Y024497D01*
X026684Y024496D01*
X026734Y024491D01*
X026784Y024482D01*
X026832Y024470D01*
X026880Y024453D01*
X026926Y024433D01*
X026971Y024410D01*
X027014Y024383D01*
X027054Y024353D01*
X027092Y024320D01*
X027127Y024284D01*
X027160Y024245D01*
X027189Y024204D01*
X027215Y024161D01*
X027238Y024116D01*
X027257Y024069D01*
X027272Y024021D01*
X027284Y023972D01*
X027292Y023922D01*
X027296Y023872D01*
X027296Y023822D01*
X027292Y023772D01*
X027284Y023722D01*
X027272Y023673D01*
X027257Y023625D01*
X027238Y023578D01*
X027215Y023533D01*
X027189Y023490D01*
X027160Y023449D01*
X027127Y023410D01*
X027092Y023374D01*
X027054Y023341D01*
X027014Y023311D01*
X026971Y023284D01*
X026926Y023261D01*
X026880Y023241D01*
X026832Y023224D01*
X026784Y023212D01*
X026734Y023203D01*
X026684Y023198D01*
X026633Y023197D01*
X026583Y023200D01*
X026533Y023207D01*
X026484Y023218D01*
X026436Y023232D01*
X026389Y023250D01*
X026343Y023272D01*
X026299Y023297D01*
X026258Y023326D01*
X026219Y023357D01*
X026182Y023392D01*
X026148Y023429D01*
X026117Y023469D01*
X026089Y023511D01*
X026065Y023555D01*
X026044Y023601D01*
X026027Y023649D01*
X026014Y023697D01*
X026004Y023747D01*
X025998Y023797D01*
X025996Y023847D01*
X002996Y023847D02*
X002998Y023897D01*
X003004Y023947D01*
X003014Y023997D01*
X003027Y024045D01*
X003044Y024093D01*
X003065Y024139D01*
X003089Y024183D01*
X003117Y024225D01*
X003148Y024265D01*
X003182Y024302D01*
X003219Y024337D01*
X003258Y024368D01*
X003299Y024397D01*
X003343Y024422D01*
X003389Y024444D01*
X003436Y024462D01*
X003484Y024476D01*
X003533Y024487D01*
X003583Y024494D01*
X003633Y024497D01*
X003684Y024496D01*
X003734Y024491D01*
X003784Y024482D01*
X003832Y024470D01*
X003880Y024453D01*
X003926Y024433D01*
X003971Y024410D01*
X004014Y024383D01*
X004054Y024353D01*
X004092Y024320D01*
X004127Y024284D01*
X004160Y024245D01*
X004189Y024204D01*
X004215Y024161D01*
X004238Y024116D01*
X004257Y024069D01*
X004272Y024021D01*
X004284Y023972D01*
X004292Y023922D01*
X004296Y023872D01*
X004296Y023822D01*
X004292Y023772D01*
X004284Y023722D01*
X004272Y023673D01*
X004257Y023625D01*
X004238Y023578D01*
X004215Y023533D01*
X004189Y023490D01*
X004160Y023449D01*
X004127Y023410D01*
X004092Y023374D01*
X004054Y023341D01*
X004014Y023311D01*
X003971Y023284D01*
X003926Y023261D01*
X003880Y023241D01*
X003832Y023224D01*
X003784Y023212D01*
X003734Y023203D01*
X003684Y023198D01*
X003633Y023197D01*
X003583Y023200D01*
X003533Y023207D01*
X003484Y023218D01*
X003436Y023232D01*
X003389Y023250D01*
X003343Y023272D01*
X003299Y023297D01*
X003258Y023326D01*
X003219Y023357D01*
X003182Y023392D01*
X003148Y023429D01*
X003117Y023469D01*
X003089Y023511D01*
X003065Y023555D01*
X003044Y023601D01*
X003027Y023649D01*
X003014Y023697D01*
X003004Y023747D01*
X002998Y023797D01*
X002996Y023847D01*
M02*
