%
M48
M72
T01C0.03200
T02C0.03600
T03C0.03740
T04C0.04000
T05C0.09055
T06C0.13000
%
T01
X56461Y16000
X56461Y26000
X76461Y31000
X86461Y31000
X101461Y36000
X116461Y36000
X116461Y46000
X116461Y56000
X116461Y66000
X116461Y76000
X116461Y86000
X116461Y96000
X116461Y106000
X116461Y116000
X116461Y126000
X116461Y136000
X116461Y146000
X116461Y156000
X116461Y166000
X116461Y176000
X116461Y186000
X116461Y196000
X116461Y206000
X116461Y216000
X116461Y226000
X106461Y196000
X106461Y176000
X106461Y166000
X106461Y156000
X106461Y146000
X106461Y136000
X106461Y126000
X106461Y116000
X96461Y100500
X78961Y98500
X76461Y86000
X96461Y81500
X86461Y61000
X76461Y56000
X48961Y98500
X51461Y116000
X51461Y136000
X76461Y146000
X76461Y156000
X76461Y166000
X76461Y176000
X76461Y196000
X86461Y136000
X86461Y126000
X86461Y116000
X176461Y116000
X176461Y106000
X176461Y96000
X176461Y86000
X176461Y76000
X176461Y66000
X176461Y56000
X176461Y46000
X176461Y36000
X101461Y6000
X76461Y11000
X176461Y126000
X176461Y136000
X176461Y146000
X176461Y156000
X176461Y166000
X176461Y176000
X176461Y186000
X176461Y196000
X176461Y206000
X176461Y216000
X176461Y226000
X191461Y146000
X191461Y126000
T02
X33961Y166000
X43961Y166000
X43961Y176000
X43961Y186000
X43961Y196000
X43961Y206000
X33961Y206000
X33961Y196000
X33961Y186000
X33961Y176000
T03
X52130Y56079
X60004Y56079
X60004Y65921
X52130Y65921
T04
X231461Y31000
X241461Y31000
X241461Y41000
X241461Y51000
X241461Y61000
X241461Y71000
X241461Y81000
X241461Y91000
X241461Y101000
X241461Y111000
X241461Y121000
X241461Y131000
X241461Y141000
X241461Y151000
X241461Y161000
X241461Y171000
X241461Y181000
X241461Y191000
X241461Y201000
X241461Y211000
X241461Y221000
X231461Y221000
X231461Y211000
X231461Y201000
X231461Y191000
X231461Y181000
X231461Y171000
X231461Y161000
X231461Y151000
X231461Y141000
X231461Y131000
X231461Y121000
X231461Y111000
X231461Y101000
X231461Y91000
X231461Y81000
X231461Y71000
X231461Y61000
X231461Y51000
X231461Y41000
T05
X41461Y84701
X41461Y37299
T06
X33961Y238500
X258961Y238500
X258961Y13500
X33961Y13500
M30
