G75*
G70*
%OFA0B0*%
%FSLAX24Y24*%
%IPPOS*%
%LPD*%
%AMOC8*
5,1,8,0,0,1.08239X$1,22.5*
%
%ADD10C,0.0000*%
%ADD11C,0.0520*%
%ADD12OC8,0.0560*%
%ADD13OC8,0.0574*%
%ADD14C,0.1306*%
%ADD15OC8,0.0600*%
%ADD16OC8,0.0520*%
%ADD17OC8,0.0630*%
%ADD18C,0.0630*%
%ADD19C,0.0520*%
%ADD20C,0.0100*%
D10*
X002146Y000100D02*
X002146Y025096D01*
X027266Y025096D01*
X027266Y000100D01*
X002146Y000100D01*
X002746Y001350D02*
X002748Y001400D01*
X002754Y001450D01*
X002764Y001500D01*
X002777Y001548D01*
X002794Y001596D01*
X002815Y001642D01*
X002839Y001686D01*
X002867Y001728D01*
X002898Y001768D01*
X002932Y001805D01*
X002969Y001840D01*
X003008Y001871D01*
X003049Y001900D01*
X003093Y001925D01*
X003139Y001947D01*
X003186Y001965D01*
X003234Y001979D01*
X003283Y001990D01*
X003333Y001997D01*
X003383Y002000D01*
X003434Y001999D01*
X003484Y001994D01*
X003534Y001985D01*
X003582Y001973D01*
X003630Y001956D01*
X003676Y001936D01*
X003721Y001913D01*
X003764Y001886D01*
X003804Y001856D01*
X003842Y001823D01*
X003877Y001787D01*
X003910Y001748D01*
X003939Y001707D01*
X003965Y001664D01*
X003988Y001619D01*
X004007Y001572D01*
X004022Y001524D01*
X004034Y001475D01*
X004042Y001425D01*
X004046Y001375D01*
X004046Y001325D01*
X004042Y001275D01*
X004034Y001225D01*
X004022Y001176D01*
X004007Y001128D01*
X003988Y001081D01*
X003965Y001036D01*
X003939Y000993D01*
X003910Y000952D01*
X003877Y000913D01*
X003842Y000877D01*
X003804Y000844D01*
X003764Y000814D01*
X003721Y000787D01*
X003676Y000764D01*
X003630Y000744D01*
X003582Y000727D01*
X003534Y000715D01*
X003484Y000706D01*
X003434Y000701D01*
X003383Y000700D01*
X003333Y000703D01*
X003283Y000710D01*
X003234Y000721D01*
X003186Y000735D01*
X003139Y000753D01*
X003093Y000775D01*
X003049Y000800D01*
X003008Y000829D01*
X002969Y000860D01*
X002932Y000895D01*
X002898Y000932D01*
X002867Y000972D01*
X002839Y001014D01*
X002815Y001058D01*
X002794Y001104D01*
X002777Y001152D01*
X002764Y001200D01*
X002754Y001250D01*
X002748Y001300D01*
X002746Y001350D01*
X025246Y001350D02*
X025248Y001400D01*
X025254Y001450D01*
X025264Y001500D01*
X025277Y001548D01*
X025294Y001596D01*
X025315Y001642D01*
X025339Y001686D01*
X025367Y001728D01*
X025398Y001768D01*
X025432Y001805D01*
X025469Y001840D01*
X025508Y001871D01*
X025549Y001900D01*
X025593Y001925D01*
X025639Y001947D01*
X025686Y001965D01*
X025734Y001979D01*
X025783Y001990D01*
X025833Y001997D01*
X025883Y002000D01*
X025934Y001999D01*
X025984Y001994D01*
X026034Y001985D01*
X026082Y001973D01*
X026130Y001956D01*
X026176Y001936D01*
X026221Y001913D01*
X026264Y001886D01*
X026304Y001856D01*
X026342Y001823D01*
X026377Y001787D01*
X026410Y001748D01*
X026439Y001707D01*
X026465Y001664D01*
X026488Y001619D01*
X026507Y001572D01*
X026522Y001524D01*
X026534Y001475D01*
X026542Y001425D01*
X026546Y001375D01*
X026546Y001325D01*
X026542Y001275D01*
X026534Y001225D01*
X026522Y001176D01*
X026507Y001128D01*
X026488Y001081D01*
X026465Y001036D01*
X026439Y000993D01*
X026410Y000952D01*
X026377Y000913D01*
X026342Y000877D01*
X026304Y000844D01*
X026264Y000814D01*
X026221Y000787D01*
X026176Y000764D01*
X026130Y000744D01*
X026082Y000727D01*
X026034Y000715D01*
X025984Y000706D01*
X025934Y000701D01*
X025883Y000700D01*
X025833Y000703D01*
X025783Y000710D01*
X025734Y000721D01*
X025686Y000735D01*
X025639Y000753D01*
X025593Y000775D01*
X025549Y000800D01*
X025508Y000829D01*
X025469Y000860D01*
X025432Y000895D01*
X025398Y000932D01*
X025367Y000972D01*
X025339Y001014D01*
X025315Y001058D01*
X025294Y001104D01*
X025277Y001152D01*
X025264Y001200D01*
X025254Y001250D01*
X025248Y001300D01*
X025246Y001350D01*
X025246Y023850D02*
X025248Y023900D01*
X025254Y023950D01*
X025264Y024000D01*
X025277Y024048D01*
X025294Y024096D01*
X025315Y024142D01*
X025339Y024186D01*
X025367Y024228D01*
X025398Y024268D01*
X025432Y024305D01*
X025469Y024340D01*
X025508Y024371D01*
X025549Y024400D01*
X025593Y024425D01*
X025639Y024447D01*
X025686Y024465D01*
X025734Y024479D01*
X025783Y024490D01*
X025833Y024497D01*
X025883Y024500D01*
X025934Y024499D01*
X025984Y024494D01*
X026034Y024485D01*
X026082Y024473D01*
X026130Y024456D01*
X026176Y024436D01*
X026221Y024413D01*
X026264Y024386D01*
X026304Y024356D01*
X026342Y024323D01*
X026377Y024287D01*
X026410Y024248D01*
X026439Y024207D01*
X026465Y024164D01*
X026488Y024119D01*
X026507Y024072D01*
X026522Y024024D01*
X026534Y023975D01*
X026542Y023925D01*
X026546Y023875D01*
X026546Y023825D01*
X026542Y023775D01*
X026534Y023725D01*
X026522Y023676D01*
X026507Y023628D01*
X026488Y023581D01*
X026465Y023536D01*
X026439Y023493D01*
X026410Y023452D01*
X026377Y023413D01*
X026342Y023377D01*
X026304Y023344D01*
X026264Y023314D01*
X026221Y023287D01*
X026176Y023264D01*
X026130Y023244D01*
X026082Y023227D01*
X026034Y023215D01*
X025984Y023206D01*
X025934Y023201D01*
X025883Y023200D01*
X025833Y023203D01*
X025783Y023210D01*
X025734Y023221D01*
X025686Y023235D01*
X025639Y023253D01*
X025593Y023275D01*
X025549Y023300D01*
X025508Y023329D01*
X025469Y023360D01*
X025432Y023395D01*
X025398Y023432D01*
X025367Y023472D01*
X025339Y023514D01*
X025315Y023558D01*
X025294Y023604D01*
X025277Y023652D01*
X025264Y023700D01*
X025254Y023750D01*
X025248Y023800D01*
X025246Y023850D01*
X002746Y023850D02*
X002748Y023900D01*
X002754Y023950D01*
X002764Y024000D01*
X002777Y024048D01*
X002794Y024096D01*
X002815Y024142D01*
X002839Y024186D01*
X002867Y024228D01*
X002898Y024268D01*
X002932Y024305D01*
X002969Y024340D01*
X003008Y024371D01*
X003049Y024400D01*
X003093Y024425D01*
X003139Y024447D01*
X003186Y024465D01*
X003234Y024479D01*
X003283Y024490D01*
X003333Y024497D01*
X003383Y024500D01*
X003434Y024499D01*
X003484Y024494D01*
X003534Y024485D01*
X003582Y024473D01*
X003630Y024456D01*
X003676Y024436D01*
X003721Y024413D01*
X003764Y024386D01*
X003804Y024356D01*
X003842Y024323D01*
X003877Y024287D01*
X003910Y024248D01*
X003939Y024207D01*
X003965Y024164D01*
X003988Y024119D01*
X004007Y024072D01*
X004022Y024024D01*
X004034Y023975D01*
X004042Y023925D01*
X004046Y023875D01*
X004046Y023825D01*
X004042Y023775D01*
X004034Y023725D01*
X004022Y023676D01*
X004007Y023628D01*
X003988Y023581D01*
X003965Y023536D01*
X003939Y023493D01*
X003910Y023452D01*
X003877Y023413D01*
X003842Y023377D01*
X003804Y023344D01*
X003764Y023314D01*
X003721Y023287D01*
X003676Y023264D01*
X003630Y023244D01*
X003582Y023227D01*
X003534Y023215D01*
X003484Y023206D01*
X003434Y023201D01*
X003383Y023200D01*
X003333Y023203D01*
X003283Y023210D01*
X003234Y023221D01*
X003186Y023235D01*
X003139Y023253D01*
X003093Y023275D01*
X003049Y023300D01*
X003008Y023329D01*
X002969Y023360D01*
X002932Y023395D01*
X002898Y023432D01*
X002867Y023472D01*
X002839Y023514D01*
X002815Y023558D01*
X002794Y023604D01*
X002777Y023652D01*
X002764Y023700D01*
X002754Y023750D01*
X002748Y023800D01*
X002746Y023850D01*
D11*
X011386Y022600D02*
X011906Y022600D01*
X011906Y021600D02*
X011386Y021600D01*
X011386Y020600D02*
X011906Y020600D01*
X011906Y019600D02*
X011386Y019600D01*
X011386Y018600D02*
X011906Y018600D01*
X011906Y017600D02*
X011386Y017600D01*
X011386Y016600D02*
X011906Y016600D01*
X011906Y015600D02*
X011386Y015600D01*
X011386Y014600D02*
X011906Y014600D01*
X011906Y013600D02*
X011386Y013600D01*
X011386Y012600D02*
X011906Y012600D01*
X011906Y011600D02*
X011386Y011600D01*
X011386Y010600D02*
X011906Y010600D01*
X011906Y009600D02*
X011386Y009600D01*
X011386Y008600D02*
X011906Y008600D01*
X011906Y007600D02*
X011386Y007600D01*
X011386Y006600D02*
X011906Y006600D01*
X011906Y005600D02*
X011386Y005600D01*
X011386Y004600D02*
X011906Y004600D01*
X011906Y003600D02*
X011386Y003600D01*
X017386Y003600D02*
X017906Y003600D01*
X017906Y004600D02*
X017386Y004600D01*
X017386Y005600D02*
X017906Y005600D01*
X017906Y006600D02*
X017386Y006600D01*
X017386Y007600D02*
X017906Y007600D01*
X017906Y008600D02*
X017386Y008600D01*
X017386Y009600D02*
X017906Y009600D01*
X017906Y010600D02*
X017386Y010600D01*
X017386Y011600D02*
X017906Y011600D01*
X017906Y012600D02*
X017386Y012600D01*
X017386Y013600D02*
X017906Y013600D01*
X017906Y014600D02*
X017386Y014600D01*
X017386Y015600D02*
X017906Y015600D01*
X017906Y016600D02*
X017386Y016600D01*
X017386Y017600D02*
X017906Y017600D01*
X017906Y018600D02*
X017386Y018600D01*
X017386Y019600D02*
X017906Y019600D01*
X017906Y020600D02*
X017386Y020600D01*
X017386Y021600D02*
X017906Y021600D01*
X017906Y022600D02*
X017386Y022600D01*
D12*
X004396Y020600D03*
X003396Y020600D03*
X003396Y019600D03*
X003396Y018600D03*
X003396Y017600D03*
X003396Y016600D03*
X004396Y016600D03*
X004396Y017600D03*
X004396Y018600D03*
X004396Y019600D03*
D13*
X005213Y006592D03*
X006000Y006592D03*
X006000Y005608D03*
X005213Y005608D03*
D14*
X004146Y003730D03*
X004146Y008470D03*
D15*
X023146Y008100D03*
X023146Y007100D03*
X023146Y006100D03*
X023146Y005100D03*
X023146Y004100D03*
X023146Y003100D03*
X024146Y003100D03*
X024146Y004100D03*
X024146Y005100D03*
X024146Y006100D03*
X024146Y007100D03*
X024146Y008100D03*
X024146Y009100D03*
X023146Y009100D03*
X023146Y010100D03*
X023146Y011100D03*
X023146Y012100D03*
X023146Y013100D03*
X023146Y014100D03*
X023146Y015100D03*
X023146Y016100D03*
X023146Y017100D03*
X023146Y018100D03*
X023146Y019100D03*
X023146Y020100D03*
X023146Y021100D03*
X023146Y022100D03*
X024146Y022100D03*
X024146Y021100D03*
X024146Y020100D03*
X024146Y019100D03*
X024146Y018100D03*
X024146Y017100D03*
X024146Y016100D03*
X024146Y015100D03*
X024146Y014100D03*
X024146Y013100D03*
X024146Y012100D03*
X024146Y011100D03*
X024146Y010100D03*
D16*
X019146Y012600D03*
X019146Y014600D03*
X010646Y014600D03*
X010646Y013600D03*
X010646Y012600D03*
X010646Y011600D03*
X008646Y011600D03*
X008646Y012600D03*
X008646Y013600D03*
X007646Y014600D03*
X007646Y015600D03*
X007646Y016600D03*
X007646Y017600D03*
X010646Y017600D03*
X010646Y016600D03*
X010646Y015600D03*
X005146Y013600D03*
X005146Y011600D03*
X004396Y009850D03*
X003146Y010100D03*
X003146Y013100D03*
X007396Y009850D03*
X007146Y008600D03*
X008146Y007100D03*
X007146Y005600D03*
X008146Y004100D03*
X008146Y003100D03*
X008146Y001100D03*
D17*
X005646Y001600D03*
D18*
X005646Y002600D03*
D19*
X009646Y008150D03*
X009646Y010050D03*
D20*
X009646Y010000D01*
X011246Y011600D01*
X011646Y011600D01*
X011646Y012600D02*
X010646Y012600D01*
X010646Y013600D01*
X010646Y012600D02*
X008646Y012600D01*
X006146Y012600D01*
X005146Y013600D01*
X005146Y015900D01*
X004446Y016600D01*
X004396Y016600D01*
X004446Y016600D02*
X004446Y017600D01*
X004396Y017600D01*
X004446Y017600D02*
X004446Y018600D01*
X004396Y018600D01*
X004446Y018600D02*
X004446Y019600D01*
X004396Y019600D01*
X003396Y019600D01*
X003946Y020100D02*
X003446Y020600D01*
X003396Y020600D01*
X003946Y020100D02*
X004546Y020100D01*
X007046Y017600D01*
X007646Y017600D01*
X008646Y017200D02*
X008646Y013600D01*
X008646Y011600D02*
X009646Y010600D01*
X009646Y010050D01*
X008146Y009600D02*
X007146Y008600D01*
X007146Y007100D01*
X004396Y009850D01*
X004446Y009900D01*
X004446Y010900D01*
X004946Y011400D01*
X004846Y011400D01*
X003146Y013100D01*
X004946Y011400D02*
X005146Y011600D01*
X003146Y010100D02*
X003146Y009500D01*
X004146Y008500D01*
X004146Y008470D01*
X004146Y006700D01*
X005146Y005700D01*
X005213Y005608D01*
X005146Y005600D01*
X005146Y004800D01*
X004146Y003800D01*
X004146Y003730D01*
X005646Y002600D02*
X005946Y002900D01*
X005946Y005600D01*
X006000Y005608D01*
X006046Y006500D02*
X006000Y006592D01*
X006046Y006500D02*
X006946Y005600D01*
X007146Y005600D01*
X007146Y007100D01*
X008146Y007100D02*
X008646Y007600D01*
X011646Y007600D01*
X011646Y008600D01*
X011646Y009600D02*
X008146Y009600D01*
X008146Y007100D02*
X008146Y004100D01*
X008146Y003100D01*
X010946Y004300D02*
X010946Y006800D01*
X011246Y007100D01*
X012246Y007100D01*
X017246Y012100D01*
X018146Y012100D01*
X023146Y007100D01*
X022946Y006600D02*
X023646Y006600D01*
X024146Y006100D01*
X023146Y006100D02*
X021646Y004600D01*
X017646Y004600D01*
X017246Y004100D02*
X022146Y004100D01*
X023146Y003100D01*
X024146Y002400D02*
X024646Y002900D01*
X024646Y007600D01*
X024146Y008100D01*
X022946Y006600D02*
X021946Y005600D01*
X017646Y005600D01*
X016946Y004400D02*
X017246Y004100D01*
X016946Y004400D02*
X016946Y009900D01*
X017646Y010600D01*
X019146Y012600D02*
X018646Y013100D01*
X023146Y013100D01*
X024146Y013100D01*
X024346Y014600D02*
X019746Y014600D01*
X019246Y015100D01*
X012146Y015100D01*
X011646Y015600D01*
X010646Y015600D01*
X010646Y014600D02*
X011646Y014600D01*
X011646Y013600D02*
X012146Y013100D01*
X018046Y013100D01*
X020046Y011100D01*
X023146Y011100D01*
X024146Y011100D01*
X024346Y014600D02*
X024646Y014900D01*
X024646Y018300D01*
X024146Y018800D01*
X024146Y019100D01*
X023346Y019600D02*
X022946Y019600D01*
X021446Y018100D01*
X012146Y018100D01*
X011646Y017600D01*
X010646Y017600D01*
X010646Y016600D02*
X011646Y016600D01*
X011646Y018600D02*
X016746Y018600D01*
X017246Y019100D01*
X022146Y019100D01*
X023146Y020100D01*
X022946Y020600D02*
X023646Y020600D01*
X024146Y021100D01*
X023146Y021100D02*
X017246Y021100D01*
X016746Y020600D01*
X011646Y020600D01*
X011646Y019600D02*
X016746Y019600D01*
X017246Y020100D01*
X022446Y020100D01*
X022946Y020600D01*
X023846Y020100D02*
X023346Y019600D01*
X023846Y020100D02*
X024146Y020100D01*
X023146Y022100D02*
X017246Y022100D01*
X016746Y022600D01*
X011646Y022600D01*
X008646Y017200D02*
X005246Y020600D01*
X004396Y020600D01*
X017646Y017600D02*
X021946Y017600D01*
X022946Y016600D01*
X023646Y016600D01*
X024146Y016100D01*
X023646Y015600D02*
X024146Y015100D01*
X023646Y015600D02*
X017646Y015600D01*
X017646Y013600D02*
X018146Y013600D01*
X018646Y013100D01*
X015446Y004600D02*
X011646Y004600D01*
X010946Y004300D02*
X011646Y003600D01*
X015446Y004600D02*
X017646Y002400D01*
X024146Y002400D01*
M02*
