%
M48
M72
T01C0.0320
T02C0.0360
T03C0.0374
T04C0.0400
T05C0.0906
T06C0.1300
%
T01
X5646Y1600
X5646Y2600
X8146Y3100
X8146Y4100
X7146Y5600
X8146Y7100
X7146Y8600
X7396Y9850
X8646Y11600
X8646Y12600
X8646Y13600
X7646Y14600
X7646Y15600
X7646Y16600
X7646Y17600
X10646Y17600
X10646Y16600
X10646Y15600
X10646Y14600
X10646Y13600
X10646Y12600
X10646Y11600
X11646Y11600
X11646Y10600
X11646Y9600
X11646Y8600
X11646Y7600
X11646Y6600
X11646Y5600
X11646Y4600
X11646Y3600
X8146Y1100
X9646Y8150
X9646Y10050
X11646Y12600
X11646Y13600
X11646Y14600
X11646Y15600
X11646Y16600
X11646Y17600
X11646Y18600
X11646Y19600
X11646Y20600
X11646Y21600
X11646Y22600
X17646Y22600
X17646Y21600
X17646Y20600
X17646Y19600
X17646Y18600
X17646Y17600
X17646Y16600
X17646Y15600
X17646Y14600
X17646Y13600
X17646Y12600
X17646Y11600
X17646Y10600
X17646Y9600
X17646Y8600
X17646Y7600
X17646Y6600
X17646Y5600
X17646Y4600
X17646Y3600
X19146Y12600
X19146Y14600
X5146Y13600
X5146Y11600
X4396Y9850
X3146Y10100
X3146Y13100
T02
X3396Y16600
X3396Y17600
X3396Y18600
X3396Y19600
X3396Y20600
X4396Y20600
X4396Y19600
X4396Y18600
X4396Y17600
X4396Y16600
T03
X5213Y6592
X6000Y6592
X6000Y5608
X5213Y5608
T04
X23146Y6100
X23146Y5100
X23146Y4100
X23146Y3100
X24146Y3100
X24146Y4100
X24146Y5100
X24146Y6100
X24146Y7100
X23146Y7100
X23146Y8100
X23146Y9100
X23146Y10100
X23146Y11100
X23146Y12100
X23146Y13100
X23146Y14100
X23146Y15100
X23146Y16100
X23146Y17100
X23146Y18100
X23146Y19100
X23146Y20100
X23146Y21100
X23146Y22100
X24146Y22100
X24146Y21100
X24146Y20100
X24146Y19100
X24146Y18100
X24146Y17100
X24146Y16100
X24146Y15100
X24146Y14100
X24146Y13100
X24146Y12100
X24146Y11100
X24146Y10100
X24146Y9100
X24146Y8100
T05
X4146Y8470
X4146Y3730
T06
X3396Y1350
X25896Y1350
X25896Y23850
X3396Y23850
M30
