%
M48
M72
T01C0.0320
T02C0.0360
T03C0.0374
T04C0.0400
T05C0.0906
T06C0.1300
%
T01
X7646Y2347
X9646Y2347
X9646Y3347
X7646Y4347
X7646Y5347
X7646Y6347
X9196Y7847
X9146Y9347
X9146Y10347
X7646Y9847
X6146Y11847
X4646Y10847
X4646Y9847
X4646Y13847
X6146Y13847
X8646Y14847
X8646Y15847
X8646Y16847
X8646Y17847
X11646Y17847
X11646Y16847
X11646Y15847
X11646Y14847
X12146Y13847
X13146Y13847
X13146Y12847
X13146Y11847
X13146Y10847
X13146Y9847
X13146Y8847
X13146Y7847
X13146Y6847
X13146Y5847
X13146Y4847
X13146Y3847
X10646Y5347
X10646Y6347
X11096Y7847
X11146Y9347
X11146Y10347
X10146Y13847
X13146Y14847
X13146Y15847
X13146Y16847
X13146Y17847
X13146Y18847
X13146Y19847
X13146Y20847
X13146Y21847
X13146Y22847
X19146Y22847
X19146Y21847
X19146Y20847
X19146Y19847
X19146Y18847
X19146Y17847
X19146Y16847
X19146Y15847
X19146Y14847
X19146Y13847
X19146Y12847
X19146Y11847
X19146Y10847
X19146Y9847
X19146Y8847
X19146Y7847
X19146Y6847
X19146Y5847
X19146Y4847
X19146Y3847
X20646Y13347
X20646Y15347
T02
X5646Y16347
X4646Y16347
X4646Y17347
X5646Y17347
X5646Y18347
X4646Y18347
X4646Y19347
X4646Y20347
X5646Y20347
X5646Y19347
T03
X6000Y6839
X5213Y6839
X5213Y5855
X6000Y5855
T04
X24146Y6347
X24146Y5347
X24146Y4347
X24146Y3347
X25146Y3347
X25146Y4347
X25146Y5347
X25146Y6347
X25146Y7347
X24146Y7347
X24146Y8347
X25146Y8347
X25146Y9347
X24146Y9347
X24146Y10347
X25146Y10347
X25146Y11347
X24146Y11347
X24146Y12347
X25146Y12347
X25146Y13347
X24146Y13347
X24146Y14347
X25146Y14347
X25146Y15347
X24146Y15347
X24146Y16347
X25146Y16347
X25146Y17347
X24146Y17347
X24146Y18347
X25146Y18347
X25146Y19347
X25146Y20347
X24146Y20347
X24146Y19347
X24146Y21347
X25146Y21347
X25146Y22347
X24146Y22347
T05
X4146Y8717
X4146Y3977
T06
X3646Y1847
X26646Y1847
X26646Y23847
X3646Y23847
M30
